<svg width="24" height="24" viewBox="0 0 24 24" fill="none" xmlns="http://www.w3.org/2000/svg">
<path fill-rule="evenodd" clip-rule="evenodd" d="M17.7315 10.7008C17.9082 10.5091 18.0043 10.2555 17.9998 9.99349C17.9952 9.73148 17.8902 9.4815 17.707 9.29621C17.5238 9.11092 17.2766 9.00478 17.0176 9.00016C16.7585 8.99553 16.5078 9.09279 16.3182 9.27143L12.0249 13.6134L7.73153 9.27143C7.54196 9.09279 7.29123 8.99553 7.03216 9.00016C6.7731 9.00478 6.52592 9.11092 6.3427 9.29621C6.15948 9.4815 6.05453 9.73148 6.04996 9.99349C6.04539 10.2555 6.14155 10.5091 6.31819 10.7008L11.3182 15.7574C11.5057 15.9468 11.7599 16.0532 12.0249 16.0532C12.2899 16.0532 12.544 15.9468 12.7315 15.7574L17.7315 10.7008Z" fill="#373D3C"/>
</svg>
