<svg width="24" height="24" viewBox="0 0 24 24" fill="none" xmlns="http://www.w3.org/2000/svg">
<rect width="24" height="24" rx="4" fill="#CFDDC7"/>
<path d="M6.8529 10.2862C6.34821 9.81514 5.55722 9.84241 5.08618 10.3471C4.61514 10.8518 4.64241 11.6428 5.1471 12.1138L6.8529 10.2862ZM18.9491 8.81349C19.3983 8.28933 19.3376 7.50021 18.8135 7.05093C18.2893 6.60165 17.5002 6.66235 17.0509 7.18651L18.9491 8.81349ZM11.1429 16L10.29 16.9138C10.539 17.1463 10.8722 17.267 11.2123 17.2481C11.5525 17.2291 11.8702 17.0722 12.0919 16.8135L11.1429 16ZM5.1471 12.1138L10.29 16.9138L11.9958 15.0862L6.8529 10.2862L5.1471 12.1138ZM12.0919 16.8135L18.9491 8.81349L17.0509 7.18651L10.1938 15.1865L12.0919 16.8135Z" fill="#666C63"/>
</svg>
