<?xml version="1.0" encoding="utf-8"?>
<!-- Generator: Adobe Illustrator 15.0.0, SVG Export Plug-In . SVG Version: 6.00 Build 0)  -->
<!DOCTYPE svg PUBLIC "-//W3C//DTD SVG 1.1//EN" "http://www.w3.org/Graphics/SVG/1.1/DTD/svg11.dtd">
<svg version="1.1" id="Layer_1" xmlns="http://www.w3.org/2000/svg" xmlns:xlink="http://www.w3.org/1999/xlink" x="0px" y="0px"
	 width="137.881px" height="26.323px" viewBox="0 0 137.881 26.323" enable-background="new 0 0 137.881 26.323"
	 xml:space="preserve">
<path fill="#F7F6F5" d="M41.019,24.474c0,0.746-0.604,1.35-1.35,1.35H1.851c-0.746,0-1.351-0.604-1.351-1.35V1.851
	C0.5,1.104,1.105,0.5,1.851,0.5h37.818c0.746,0,1.35,0.604,1.35,1.351V24.474z"/>
<path fill="none" stroke="#D0D2D3" stroke-miterlimit="10" d="M41.019,24.474c0,0.746-0.604,1.35-1.35,1.35H1.851
	c-0.746,0-1.351-0.604-1.351-1.35V1.851C0.5,1.104,1.105,0.5,1.851,0.5h37.818c0.746,0,1.35,0.604,1.35,1.351V24.474z"/>
<polygon fill="#0A67B2" points="19.146,16.966 17.167,16.966 18.404,9.363 20.384,9.363 "/>
<path fill="#0A67B2" d="M15.502,9.363l-1.887,5.229l-0.223-1.126v0.001l-0.666-3.419c0,0-0.081-0.685-0.939-0.685h-3.12L8.631,9.492
	c0,0,0.954,0.198,2.071,0.869l1.719,6.604h2.062l3.149-7.603H15.502z"/>
<path fill="#0A67B2" d="M31.071,16.966h1.817l-1.584-7.604h-1.591c-0.735,0-0.914,0.567-0.914,0.567l-2.952,7.036h2.063l0.413-1.129
	h2.516L31.071,16.966z M28.893,14.276l1.04-2.846l0.585,2.846H28.893z"/>
<path fill="#0A67B2" d="M26.001,11.191l0.282-1.633c0,0-0.871-0.331-1.78-0.331c-0.982,0-3.315,0.429-3.315,2.517
	c0,1.964,2.738,1.989,2.738,3.021c0,1.03-2.455,0.847-3.266,0.195l-0.294,1.707c0,0,0.883,0.43,2.234,0.43
	c1.35,0,3.389-0.699,3.389-2.603c0-1.977-2.763-2.161-2.763-3.02C23.227,10.614,25.155,10.725,26.001,11.191"/>
<path fill="#FAA634" d="M13.392,13.467l-0.666-3.419c0,0-0.08-0.686-0.939-0.686H8.667L8.63,9.491c0,0,1.5,0.312,2.938,1.476
	C12.943,12.08,13.392,13.467,13.392,13.467"/>
<path fill="#F7F6F5" d="M89.2,24.474c0,0.746-0.604,1.35-1.351,1.35H50.031c-0.745,0-1.35-0.604-1.35-1.35V1.851
	c0-0.746,0.605-1.351,1.35-1.351h37.818c0.746,0,1.351,0.604,1.351,1.351V24.474z"/>
<path fill="none" stroke="#D0D2D3" stroke-miterlimit="10" d="M89.2,24.474c0,0.746-0.604,1.35-1.351,1.35H50.031
	c-0.745,0-1.35-0.604-1.35-1.35V1.851c0-0.746,0.605-1.351,1.35-1.351h37.818c0.746,0,1.351,0.604,1.351,1.351V24.474z"/>
<polygon fill-rule="evenodd" clip-rule="evenodd" fill="#FBB230" points="73.803,20.432 74.178,20.421 74.548,20.395 74.911,20.349 
	75.272,20.284 75.623,20.203 75.968,20.105 76.306,19.99 76.638,19.86 76.961,19.713 77.276,19.555 77.579,19.377 77.876,19.188 
	78.161,18.985 78.436,18.77 78.7,18.541 78.952,18.298 79.196,18.045 79.423,17.78 79.639,17.506 79.843,17.222 80.032,16.925 
	80.208,16.62 80.368,16.308 80.514,15.983 80.645,15.652 80.759,15.313 80.858,14.968 80.938,14.617 81.002,14.257 81.049,13.895 
	81.077,13.524 81.085,13.148 81.077,12.776 81.049,12.408 81.002,12.045 80.938,11.689 80.858,11.339 80.759,10.995 80.645,10.657 
	80.514,10.328 80.368,10.007 80.208,9.693 80.032,9.393 79.843,9.096 79.639,8.812 79.423,8.538 79.196,8.274 78.952,8.021 
	78.7,7.781 78.436,7.554 78.161,7.337 77.876,7.133 77.579,6.945 77.276,6.771 76.961,6.611 76.638,6.464 76.306,6.334 75.968,6.22 
	75.623,6.121 75.272,6.04 74.911,5.977 74.548,5.93 74.178,5.902 73.803,5.893 73.43,5.902 73.061,5.93 72.698,5.977 72.339,6.04 
	71.989,6.121 71.643,6.22 71.307,6.334 70.975,6.464 70.655,6.611 70.343,6.771 70.04,6.945 69.745,7.133 69.46,7.337 69.186,7.554 
	68.923,7.781 68.67,8.021 68.43,8.274 68.202,8.538 67.986,8.812 67.786,9.096 67.597,9.393 67.422,9.693 67.261,10.007 
	67.116,10.328 66.986,10.657 66.874,10.995 66.775,11.339 66.694,11.689 66.63,12.045 66.584,12.408 66.557,12.776 66.547,13.148 
	66.557,13.524 66.584,13.895 66.63,14.257 66.694,14.617 66.775,14.968 66.874,15.313 66.986,15.652 67.116,15.983 67.261,16.308 
	67.422,16.62 67.597,16.925 67.786,17.222 67.986,17.506 68.202,17.78 68.43,18.045 68.67,18.298 68.923,18.541 69.186,18.77 
	69.46,18.985 69.745,19.188 70.04,19.377 70.343,19.555 70.655,19.713 70.975,19.86 71.307,19.99 71.643,20.105 71.989,20.203 
	72.339,20.284 72.698,20.349 73.061,20.395 73.43,20.421 "/>
<polygon fill-rule="evenodd" clip-rule="evenodd" fill="#EB2230" points="64.078,20.432 64.45,20.421 64.821,20.395 65.184,20.349 
	65.542,20.284 65.892,20.203 66.238,20.105 66.574,19.99 66.905,19.86 67.226,19.713 67.538,19.555 67.842,19.377 68.136,19.188 
	68.421,18.985 68.695,18.77 68.957,18.541 69.21,18.298 69.45,18.045 69.679,17.78 69.894,17.506 70.095,17.222 70.284,16.925 
	70.458,16.62 70.62,16.308 70.765,15.983 70.895,15.652 71.007,15.313 71.105,14.968 71.187,14.617 71.25,14.257 71.297,13.895 
	71.325,13.524 71.334,13.148 71.325,12.776 71.297,12.408 71.25,12.045 71.187,11.689 71.105,11.339 71.007,10.995 70.895,10.657 
	70.765,10.328 70.62,10.007 70.458,9.693 70.284,9.393 70.095,9.096 69.894,8.812 69.679,8.538 69.45,8.274 69.21,8.021 
	68.957,7.781 68.695,7.554 68.421,7.337 68.136,7.133 67.842,6.945 67.538,6.771 67.226,6.611 66.905,6.464 66.574,6.334 
	66.238,6.22 65.892,6.121 65.542,6.04 65.184,5.977 64.821,5.93 64.45,5.902 64.078,5.893 63.702,5.902 63.332,5.93 62.969,5.977 
	62.609,6.04 62.258,6.121 61.912,6.22 61.574,6.334 61.243,6.464 60.92,6.611 60.605,6.771 60.301,6.945 60.005,7.133 59.72,7.337 
	59.446,7.554 59.181,7.781 58.929,8.021 58.686,8.274 58.458,8.538 58.242,8.812 58.038,9.096 57.85,9.393 57.673,9.693 
	57.514,10.007 57.366,10.328 57.236,10.657 57.121,10.995 57.023,11.339 56.942,11.689 56.878,12.045 56.832,12.408 56.805,12.776 
	56.795,13.148 56.805,13.524 56.832,13.895 56.878,14.257 56.942,14.617 57.023,14.968 57.121,15.313 57.236,15.652 57.366,15.983 
	57.514,16.308 57.673,16.62 57.85,16.925 58.038,17.222 58.242,17.506 58.458,17.78 58.686,18.045 58.929,18.298 59.181,18.541 
	59.446,18.77 59.72,18.985 60.005,19.188 60.301,19.377 60.605,19.555 60.92,19.713 61.243,19.86 61.574,19.99 61.912,20.105 
	62.258,20.203 62.609,20.284 62.969,20.349 63.332,20.395 63.702,20.421 "/>
<polygon fill-rule="evenodd" clip-rule="evenodd" fill="#FBB230" points="68.09,8.681 71.952,8.681 71.952,8.286 68.423,8.286 "/>
<polygon fill-rule="evenodd" clip-rule="evenodd" fill="#FBB230" points="67.511,9.559 71.952,9.559 71.952,9.163 67.744,9.163 "/>
<polygon fill-rule="evenodd" clip-rule="evenodd" fill="#FBB230" points="67.08,10.435 71.952,10.435 71.952,10.039 67.251,10.039 
	"/>
<polygon fill-rule="evenodd" clip-rule="evenodd" fill="#FBB230" points="66.783,11.312 71.952,11.312 71.952,10.917 66.906,10.917 
	"/>
<polygon fill-rule="evenodd" clip-rule="evenodd" fill="#FBB230" points="66.955,15.555 71.963,15.555 71.963,15.159 66.832,15.159 
	"/>
<polygon fill-rule="evenodd" clip-rule="evenodd" fill="#FBB230" points="67.325,16.432 71.963,16.432 71.963,16.037 67.141,16.037 
	"/>
<polygon fill-rule="evenodd" clip-rule="evenodd" fill="#FBB230" points="67.844,17.308 71.964,17.308 71.964,16.912 67.597,16.912 
	"/>
<polygon fill-rule="evenodd" clip-rule="evenodd" fill="#FBB230" points="68.561,18.186 71.963,18.186 71.963,17.788 68.214,17.788 
	"/>
<polygon fill-rule="evenodd" clip-rule="evenodd" fill="#FBB230" points="66.609,12.188 71.952,12.188 71.952,11.792 66.685,11.792 
	"/>
<polygon fill-rule="evenodd" clip-rule="evenodd" fill="#FBB230" points="69.865,14.679 71.903,14.679 71.903,14.284 69.939,14.284 
	"/>
<polygon fill-rule="evenodd" clip-rule="evenodd" fill="#FBB230" points="70.027,13.804 71.903,13.804 71.903,13.406 70.1,13.406 
	"/>
<polygon fill-rule="evenodd" clip-rule="evenodd" fill="#FBB230" points="66.474,13.406 67.004,13.406 67.004,13.803 66.499,13.803 
	"/>
<polygon fill-rule="evenodd" clip-rule="evenodd" fill="#FFFFFF" points="65.485,12.928 65.451,12.926 65.417,12.921 65.385,12.916 
	65.353,12.91 65.323,12.905 65.292,12.9 65.26,12.896 65.225,12.891 65.191,12.887 65.152,12.884 65.108,12.882 65.061,12.879 
	65.01,12.879 64.953,12.882 64.889,12.887 64.818,12.891 64.77,12.898 64.723,12.905 64.681,12.921 64.644,12.935 64.61,12.953 
	64.578,12.972 64.553,12.997 64.531,13.019 64.517,13.046 64.505,13.072 64.499,13.102 64.499,13.132 64.507,13.164 64.517,13.195 
	64.536,13.228 64.561,13.259 64.61,13.306 64.669,13.343 64.737,13.374 64.811,13.4 64.889,13.426 64.97,13.453 65.051,13.482 
	65.13,13.514 65.203,13.556 65.272,13.606 65.333,13.669 65.385,13.745 65.424,13.838 65.449,13.947 65.458,14.081 65.449,14.234 
	65.432,14.351 65.402,14.45 65.363,14.544 65.314,14.625 65.258,14.696 65.193,14.758 65.125,14.812 65.049,14.857 64.97,14.895 
	64.889,14.927 64.806,14.95 64.72,14.971 64.637,14.985 64.556,14.992 64.475,14.998 64.399,15 64.293,15 64.195,14.998 
	64.11,14.998 64.029,14.996 63.955,14.992 63.889,14.987 63.83,14.982 63.774,14.976 63.722,14.971 63.676,14.961 63.629,14.953 
	63.587,14.941 63.545,14.932 63.507,14.917 63.467,14.901 63.425,14.888 63.536,14.346 63.558,14.351 63.585,14.357 63.619,14.366 
	63.661,14.378 63.705,14.387 63.754,14.396 63.808,14.408 63.867,14.419 63.928,14.429 63.992,14.438 64.058,14.445 64.127,14.453 
	64.198,14.456 64.269,14.458 64.34,14.458 64.411,14.456 64.482,14.44 64.539,14.421 64.583,14.395 64.617,14.359 64.642,14.325 
	64.661,14.285 64.674,14.248 64.683,14.211 64.689,14.14 64.667,14.078 64.624,14.028 64.563,13.987 64.49,13.95 64.404,13.914 
	64.308,13.879 64.213,13.841 64.115,13.796 64.022,13.745 63.936,13.681 63.857,13.604 63.796,13.512 63.752,13.4 63.729,13.269 
	63.732,13.111 63.744,13.017 63.762,12.926 63.786,12.842 63.815,12.764 63.855,12.69 63.899,12.627 63.95,12.564 64.012,12.512 
	64.083,12.465 64.161,12.426 64.249,12.389 64.347,12.361 64.458,12.34 64.578,12.322 64.71,12.312 64.855,12.31 64.946,12.31 
	65.029,12.312 65.105,12.315 65.174,12.317 65.235,12.322 65.292,12.328 65.341,12.332 65.385,12.337 65.426,12.342 65.461,12.35 
	65.493,12.354 65.522,12.358 65.547,12.363 65.569,12.366 65.591,12.372 65.61,12.374 "/>
<polyline fill="none" stroke="#FFFFFF" stroke-width="0.216" stroke-miterlimit="2.613" points="65.485,12.928 65.485,12.928 
	65.451,12.926 65.417,12.921 65.385,12.916 65.353,12.91 65.323,12.905 65.292,12.9 65.26,12.896 65.225,12.891 65.191,12.887 
	65.152,12.884 65.108,12.882 65.061,12.879 65.01,12.879 64.953,12.882 64.889,12.887 64.818,12.891 64.77,12.898 64.723,12.905 
	64.681,12.921 64.644,12.935 64.61,12.953 64.578,12.972 64.553,12.997 64.531,13.019 64.517,13.046 64.505,13.072 64.499,13.102 
	64.499,13.132 64.507,13.164 64.517,13.195 64.536,13.228 64.561,13.259 64.61,13.306 64.669,13.343 64.737,13.374 64.811,13.4 
	64.889,13.426 64.97,13.453 65.051,13.482 65.13,13.514 65.203,13.556 65.272,13.606 65.333,13.669 65.385,13.745 65.424,13.838 
	65.449,13.947 65.458,14.081 65.449,14.234 65.432,14.351 65.402,14.45 65.363,14.544 65.314,14.625 65.258,14.696 65.193,14.758 
	65.125,14.812 65.049,14.857 64.97,14.895 64.889,14.927 64.806,14.95 64.72,14.971 64.637,14.985 64.556,14.992 64.475,14.998 
	64.399,15 64.293,15 64.195,14.998 64.11,14.998 64.029,14.996 63.955,14.992 63.889,14.987 63.83,14.982 63.774,14.976 
	63.722,14.971 63.676,14.961 63.629,14.953 63.587,14.941 63.545,14.932 63.507,14.917 63.467,14.901 63.425,14.888 63.536,14.346 
	63.558,14.351 63.585,14.357 63.619,14.366 63.661,14.378 63.705,14.387 63.754,14.396 63.808,14.408 63.867,14.419 63.928,14.429 
	63.992,14.438 64.058,14.445 64.127,14.453 64.198,14.456 64.269,14.458 64.34,14.458 64.411,14.456 64.482,14.44 64.539,14.421 
	64.583,14.395 64.617,14.359 64.642,14.325 64.661,14.285 64.674,14.248 64.683,14.211 64.689,14.14 64.667,14.078 64.624,14.028 
	64.563,13.987 64.49,13.95 64.404,13.914 64.308,13.879 64.213,13.841 64.115,13.796 64.022,13.745 63.936,13.681 63.857,13.604 
	63.796,13.512 63.752,13.4 63.729,13.269 63.732,13.111 63.744,13.017 63.762,12.926 63.786,12.842 63.815,12.764 63.855,12.69 
	63.899,12.627 63.95,12.564 64.012,12.512 64.083,12.465 64.161,12.426 64.249,12.389 64.347,12.361 64.458,12.34 64.578,12.322 
	64.71,12.312 64.855,12.31 64.946,12.31 65.029,12.312 65.105,12.315 65.174,12.317 65.235,12.322 65.292,12.328 65.341,12.332 
	65.385,12.337 65.426,12.342 65.461,12.35 65.493,12.354 65.522,12.358 65.547,12.363 65.569,12.366 65.591,12.372 65.61,12.374 
	65.485,12.928 "/>
<polygon fill-rule="evenodd" clip-rule="evenodd" fill="#FFFFFF" points="66.066,11.769 66.747,11.769 66.646,12.361 67.055,12.361 
	66.967,12.916 66.535,12.903 66.3,14.271 66.298,14.32 66.31,14.362 66.333,14.395 66.366,14.421 66.411,14.438 66.458,14.453 
	66.513,14.462 66.572,14.468 66.625,14.465 66.675,14.46 66.719,14.453 66.759,14.443 66.791,14.434 66.812,14.426 66.827,14.421 
	66.832,14.419 66.747,14.875 66.729,14.888 66.711,14.897 66.695,14.906 66.678,14.916 66.661,14.924 66.641,14.932 66.619,14.938 
	66.597,14.946 66.572,14.953 66.546,14.958 66.518,14.963 66.489,14.968 66.457,14.974 66.419,14.979 66.381,14.982 66.339,14.987 
	66.153,14.987 66.054,14.98 65.969,14.971 65.891,14.956 65.824,14.938 65.768,14.916 65.721,14.893 65.68,14.862 65.647,14.83 
	65.623,14.796 65.605,14.755 65.594,14.712 65.585,14.666 65.583,14.615 65.583,14.562 65.591,14.505 65.599,14.443 "/>
<polyline fill="none" stroke="#FFFFFF" stroke-width="0.216" stroke-miterlimit="2.613" points="66.066,11.769 66.747,11.769 
	66.646,12.361 67.055,12.361 66.967,12.916 66.535,12.903 66.3,14.271 66.298,14.32 66.31,14.362 66.333,14.395 66.366,14.421 
	66.411,14.438 66.458,14.453 66.513,14.462 66.572,14.468 66.625,14.465 66.675,14.46 66.719,14.453 66.759,14.443 66.791,14.434 
	66.812,14.426 66.827,14.421 66.832,14.419 66.747,14.875 66.729,14.888 66.711,14.897 66.695,14.906 66.678,14.916 66.661,14.924 
	66.641,14.932 66.619,14.938 66.597,14.946 66.572,14.953 66.546,14.958 66.518,14.963 66.489,14.968 66.457,14.974 66.419,14.979 
	66.381,14.982 66.339,14.987 66.153,14.987 66.054,14.98 65.969,14.971 65.891,14.956 65.824,14.938 65.768,14.916 65.721,14.893 
	65.68,14.862 65.647,14.83 65.623,14.796 65.605,14.755 65.594,14.712 65.585,14.666 65.583,14.615 65.583,14.562 65.591,14.505 
	65.599,14.443 66.066,11.769 "/>
<polyline fill="none" stroke="#FFFFFF" stroke-width="0.216" stroke-miterlimit="2.613" points="67.597,13.84 67.597,13.84 
	67.589,13.881 67.587,13.925 67.592,13.972 67.602,14.02 67.619,14.066 67.639,14.11 67.666,14.156 67.695,14.198 67.729,14.24 
	67.766,14.277 67.805,14.313 67.849,14.343 67.894,14.37 67.943,14.393 67.992,14.409 68.041,14.419 68.104,14.428 68.166,14.437 
	68.23,14.443 68.293,14.448 68.357,14.451 68.423,14.451 68.487,14.448 68.553,14.443 68.619,14.434 68.686,14.421 68.754,14.406 
	68.82,14.384 68.889,14.358 68.96,14.328 69.029,14.289 69.1,14.247 69.002,14.851 68.962,14.87 68.924,14.891 68.884,14.904 
	68.848,14.919 68.811,14.931 68.771,14.944 68.732,14.953 68.69,14.961 68.646,14.968 68.597,14.973 68.546,14.979 68.489,14.983 
	68.426,14.985 68.36,14.985 68.283,14.988 68.202,14.988 68.082,14.985 67.96,14.973 67.837,14.956 67.715,14.926 67.594,14.891 
	67.48,14.843 67.369,14.782 67.266,14.71 67.17,14.627 67.087,14.527 67.016,14.414 66.957,14.284 66.915,14.139 66.888,13.976 
	66.881,13.793 66.893,13.592 66.903,13.514 66.917,13.423 66.937,13.328 66.964,13.225 67.001,13.119 67.045,13.014 67.101,12.906 
	67.17,12.803 67.248,12.705 67.344,12.612 67.452,12.528 67.575,12.455 67.717,12.394 67.877,12.35 68.053,12.32 68.252,12.311 
	68.347,12.312 68.448,12.322 68.548,12.339 68.649,12.364 68.747,12.401 68.843,12.445 68.931,12.504 69.012,12.572 69.085,12.656 
	69.147,12.754 69.196,12.867 69.23,12.997 69.25,13.144 69.252,13.311 69.235,13.496 69.198,13.703 69.186,13.853 67.399,13.853 
	67.511,13.369 68.585,13.369 68.59,13.309 68.587,13.249 68.582,13.195 68.573,13.146 68.556,13.101 68.539,13.058 68.514,13.021 
	68.489,12.987 68.46,12.957 68.428,12.934 68.391,12.911 68.354,12.892 68.315,12.877 68.276,12.867 68.234,12.859 68.19,12.854 
	68.144,12.857 68.1,12.864 68.058,12.874 68.016,12.889 67.974,12.908 67.938,12.93 67.901,12.957 67.869,12.987 67.837,13.021 
	67.808,13.058 67.781,13.097 67.759,13.139 67.736,13.184 67.719,13.232 67.705,13.281 67.695,13.332 67.597,13.84 "/>
<polygon fill-rule="evenodd" clip-rule="evenodd" fill="#FFFFFF" points="73.445,12.509 73.413,12.491 73.381,12.477 73.346,12.46 
	73.31,12.442 73.273,12.428 73.232,12.413 73.19,12.397 73.146,12.384 73.1,12.372 73.053,12.361 73.002,12.352 72.95,12.345 
	72.894,12.34 72.836,12.335 72.778,12.335 72.717,12.335 72.656,12.335 72.592,12.34 72.526,12.347 72.458,12.358 72.387,12.379 
	72.32,12.405 72.25,12.439 72.182,12.483 72.116,12.538 72.051,12.602 71.991,12.681 71.932,12.771 71.877,12.879 71.827,13.002 
	71.78,13.139 71.741,13.296 71.726,13.384 71.717,13.47 71.711,13.556 71.715,13.639 71.721,13.723 71.738,13.801 71.76,13.875 
	71.788,13.947 71.824,14.015 71.868,14.078 71.92,14.135 71.979,14.186 72.045,14.229 72.121,14.267 72.205,14.299 72.297,14.32 
	72.33,14.328 72.367,14.336 72.411,14.341 72.459,14.346 72.512,14.351 72.57,14.351 72.631,14.351 72.693,14.346 72.756,14.338 
	72.82,14.325 72.881,14.309 72.943,14.289 73.004,14.262 73.06,14.229 73.112,14.19 73.161,14.146 73.051,14.802 73.036,14.813 
	73.021,14.829 73.002,14.846 72.98,14.859 72.953,14.88 72.918,14.896 72.879,14.914 72.834,14.929 72.778,14.945 72.715,14.959 
	72.641,14.969 72.555,14.978 72.459,14.982 72.348,14.985 72.223,14.982 72.086,14.976 71.973,14.964 71.861,14.938 71.749,14.901 
	71.635,14.853 71.528,14.795 71.424,14.72 71.327,14.635 71.236,14.537 71.155,14.427 71.086,14.304 71.028,14.167 70.984,14.017 
	70.954,13.853 70.944,13.679 70.949,13.486 70.976,13.283 70.996,13.183 71.016,13.085 71.042,12.989 71.067,12.898 71.092,12.812 
	71.125,12.727 71.158,12.646 71.192,12.569 71.229,12.493 71.264,12.423 71.307,12.354 71.351,12.291 71.395,12.229 71.444,12.171 
	71.493,12.116 71.545,12.064 71.601,12.016 71.658,11.97 71.717,11.928 71.778,11.888 71.844,11.852 71.91,11.819 71.979,11.791 
	72.049,11.763 72.125,11.738 72.202,11.719 72.28,11.701 72.364,11.688 72.447,11.675 72.536,11.665 72.624,11.66 72.717,11.657 
	72.795,11.66 72.871,11.665 72.945,11.673 73.018,11.683 73.086,11.691 73.153,11.707 73.217,11.719 73.276,11.733 73.333,11.749 
	73.381,11.763 73.428,11.777 73.467,11.793 73.502,11.805 73.531,11.814 73.553,11.824 73.568,11.83 "/>
<polyline fill="none" stroke="#FFFFFF" stroke-width="0.216" stroke-miterlimit="2.613" points="73.445,12.509 73.445,12.509 
	73.413,12.491 73.381,12.477 73.346,12.46 73.31,12.442 73.273,12.428 73.232,12.413 73.19,12.397 73.146,12.384 73.1,12.372 
	73.053,12.361 73.002,12.352 72.95,12.345 72.894,12.34 72.836,12.335 72.778,12.335 72.717,12.335 72.656,12.335 72.592,12.34 
	72.526,12.347 72.458,12.358 72.387,12.379 72.32,12.405 72.25,12.439 72.182,12.483 72.116,12.538 72.051,12.602 71.991,12.681 
	71.932,12.771 71.877,12.879 71.827,13.002 71.78,13.139 71.741,13.296 71.726,13.384 71.717,13.47 71.711,13.556 71.715,13.639 
	71.721,13.723 71.738,13.801 71.76,13.875 71.788,13.947 71.824,14.015 71.868,14.078 71.92,14.135 71.979,14.186 72.045,14.229 
	72.121,14.267 72.205,14.299 72.297,14.32 72.33,14.328 72.367,14.336 72.411,14.341 72.459,14.346 72.512,14.351 72.57,14.351 
	72.631,14.351 72.693,14.346 72.756,14.338 72.82,14.325 72.881,14.309 72.943,14.289 73.004,14.262 73.06,14.229 73.112,14.19 
	73.161,14.146 73.051,14.802 73.036,14.813 73.021,14.829 73.002,14.846 72.98,14.859 72.953,14.88 72.918,14.896 72.879,14.914 
	72.834,14.929 72.778,14.945 72.715,14.959 72.641,14.969 72.555,14.978 72.459,14.982 72.348,14.985 72.223,14.982 72.086,14.976 
	71.973,14.964 71.861,14.938 71.749,14.901 71.635,14.853 71.528,14.795 71.424,14.72 71.327,14.635 71.236,14.537 71.155,14.427 
	71.086,14.304 71.028,14.167 70.984,14.017 70.954,13.853 70.944,13.679 70.949,13.486 70.976,13.283 70.996,13.183 71.016,13.085 
	71.042,12.989 71.067,12.898 71.092,12.812 71.125,12.727 71.158,12.646 71.192,12.569 71.229,12.493 71.264,12.423 71.307,12.354 
	71.351,12.291 71.395,12.229 71.444,12.171 71.493,12.116 71.545,12.064 71.601,12.016 71.658,11.97 71.717,11.928 71.778,11.888 
	71.844,11.852 71.91,11.819 71.979,11.791 72.049,11.763 72.125,11.738 72.202,11.719 72.28,11.701 72.364,11.688 72.447,11.675 
	72.536,11.665 72.624,11.66 72.717,11.657 72.795,11.66 72.871,11.665 72.945,11.673 73.018,11.683 73.086,11.691 73.153,11.707 
	73.217,11.719 73.276,11.733 73.333,11.749 73.381,11.763 73.428,11.777 73.467,11.793 73.502,11.805 73.531,11.814 73.553,11.824 
	73.568,11.83 73.445,12.509 "/>
<polygon fill-rule="evenodd" clip-rule="evenodd" fill="#FFFFFF" points="79.482,14.987 78.803,14.987 78.852,14.716 78.852,14.69 
	78.813,14.74 78.771,14.783 78.729,14.823 78.685,14.857 78.641,14.89 78.597,14.917 78.553,14.938 78.506,14.961 78.459,14.978 
	78.413,14.99 78.366,15.003 78.317,15.01 78.269,15.018 78.222,15.021 78.173,15.024 78.124,15.024 77.997,15.015 77.879,14.987 
	77.771,14.945 77.672,14.89 77.584,14.818 77.506,14.735 77.437,14.645 77.377,14.542 77.331,14.431 77.29,14.315 77.263,14.195 
	77.243,14.07 77.237,13.945 77.239,13.818 77.25,13.692 77.273,13.568 77.31,13.423 77.354,13.285 77.405,13.16 77.466,13.044 
	77.53,12.933 77.604,12.835 77.68,12.747 77.761,12.666 77.847,12.595 77.937,12.533 78.032,12.479 78.124,12.438 78.222,12.402 
	78.321,12.382 78.418,12.366 78.518,12.361 78.59,12.363 78.659,12.372 78.722,12.384 78.782,12.4 78.836,12.421 78.887,12.442 
	78.935,12.47 78.98,12.497 79.019,12.525 79.055,12.558 79.086,12.59 79.118,12.622 79.141,12.653 79.165,12.686 79.183,12.715 
	79.198,12.745 79.37,11.78 80.036,11.78 "/>
<polyline fill="none" stroke="#FFFFFF" stroke-width="0.216" stroke-miterlimit="2.613" points="79.482,14.987 78.803,14.987 
	78.852,14.716 78.852,14.69 78.813,14.74 78.771,14.783 78.729,14.823 78.685,14.857 78.641,14.89 78.597,14.917 78.553,14.938 
	78.506,14.961 78.459,14.978 78.413,14.99 78.366,15.003 78.317,15.01 78.269,15.018 78.222,15.021 78.173,15.024 78.124,15.024 
	77.997,15.015 77.879,14.987 77.771,14.945 77.672,14.89 77.584,14.818 77.506,14.735 77.437,14.645 77.377,14.542 77.331,14.431 
	77.29,14.315 77.263,14.195 77.243,14.07 77.237,13.945 77.239,13.818 77.25,13.692 77.273,13.568 77.31,13.423 77.354,13.285 
	77.405,13.16 77.466,13.044 77.53,12.933 77.604,12.835 77.68,12.747 77.761,12.666 77.847,12.595 77.937,12.533 78.032,12.479 
	78.124,12.438 78.222,12.402 78.321,12.382 78.418,12.366 78.518,12.361 78.59,12.363 78.659,12.372 78.722,12.384 78.782,12.4 
	78.836,12.421 78.887,12.442 78.935,12.47 78.98,12.497 79.019,12.525 79.055,12.558 79.086,12.59 79.118,12.622 79.141,12.653 
	79.165,12.686 79.183,12.715 79.198,12.745 79.37,11.78 80.036,11.78 79.482,14.987 "/>
<polygon fill-rule="evenodd" clip-rule="evenodd" fill="#FBB230" points="78.372,14.395 78.44,14.39 78.503,14.374 78.563,14.357 
	78.62,14.33 78.67,14.302 78.719,14.265 78.766,14.224 78.808,14.179 78.844,14.13 78.879,14.075 78.911,14.02 78.938,13.961 
	78.962,13.898 78.983,13.836 79,13.77 79.011,13.703 79.024,13.635 79.032,13.563 79.032,13.496 79.03,13.429 79.022,13.364 
	79.011,13.304 78.995,13.244 78.974,13.188 78.95,13.14 78.92,13.093 78.889,13.053 78.852,13.019 78.811,12.989 78.766,12.97 
	78.719,12.957 78.668,12.952 78.602,12.957 78.541,12.968 78.485,12.986 78.427,13.012 78.379,13.043 78.329,13.082 78.289,13.124 
	78.247,13.171 78.209,13.225 78.175,13.281 78.143,13.34 78.116,13.403 78.091,13.47 78.073,13.536 78.052,13.607 78.039,13.679 
	78.026,13.786 78.03,13.904 78.047,14.023 78.081,14.14 78.128,14.24 78.192,14.32 78.274,14.374 "/>
<polygon fill-rule="evenodd" clip-rule="evenodd" fill="#FFFFFF" points="63.313,14.443 63.215,14.987 62.597,14.987 62.614,14.888 
	62.627,14.796 62.636,14.729 62.646,14.691 62.612,14.73 62.572,14.77 62.526,14.807 62.474,14.841 62.415,14.875 62.354,14.904 
	62.29,14.934 62.224,14.958 62.152,14.98 62.082,14.997 62.01,15.013 61.937,15.022 61.866,15.027 61.795,15.029 61.726,15.022 
	61.66,15.013 61.574,14.99 61.496,14.966 61.427,14.934 61.366,14.897 61.312,14.858 61.263,14.813 61.223,14.768 61.189,14.719 
	61.16,14.666 61.135,14.612 61.116,14.559 61.101,14.505 61.091,14.448 61.084,14.392 61.079,14.337 61.079,14.284 61.086,14.188 
	61.101,14.098 61.126,14.012 61.157,13.929 61.197,13.851 61.241,13.779 61.292,13.71 61.351,13.648 61.413,13.593 61.481,13.54 
	61.552,13.494 61.626,13.455 61.704,13.421 61.785,13.394 61.868,13.371 61.954,13.357 61.959,13.357 61.971,13.354 61.989,13.353 
	62.015,13.35 62.045,13.346 62.079,13.343 62.116,13.337 62.158,13.332 62.199,13.328 62.241,13.323 62.286,13.32 62.324,13.315 
	62.364,13.313 62.4,13.311 62.435,13.309 62.462,13.309 62.518,13.309 62.577,13.311 62.631,13.313 62.685,13.313 62.729,13.315 
	62.764,13.317 62.788,13.32 62.795,13.32 62.8,13.304 62.815,13.26 62.827,13.207 62.832,13.161 62.822,13.107 62.8,13.058 
	62.771,13.014 62.731,12.978 62.685,12.945 62.633,12.924 62.575,12.908 62.511,12.903 62.442,12.901 62.368,12.898 62.292,12.898 
	62.214,12.901 62.133,12.906 62.055,12.913 61.976,12.92 61.9,12.931 61.827,12.94 61.755,12.952 61.692,12.965 61.633,12.978 
	61.579,12.992 61.535,13.006 61.501,13.023 61.473,13.038 61.648,12.447 61.702,12.426 61.755,12.405 61.815,12.389 61.873,12.376 
	61.933,12.363 61.996,12.354 62.06,12.345 62.126,12.34 62.194,12.334 62.266,12.332 62.339,12.329 62.415,12.329 62.494,12.329 
	62.575,12.329 62.66,12.332 62.746,12.334 62.815,12.34 62.889,12.352 62.964,12.369 63.043,12.392 63.119,12.42 63.193,12.455 
	63.266,12.496 63.335,12.543 63.396,12.598 63.45,12.656 63.499,12.722 63.536,12.795 63.56,12.874 63.575,12.957 63.575,13.051 
	63.56,13.148 "/>
<polyline fill="none" stroke="#FFFFFF" stroke-width="0.216" stroke-miterlimit="2.613" points="63.313,14.443 63.215,14.987 
	62.597,14.987 62.614,14.888 62.627,14.796 62.636,14.729 62.646,14.691 62.612,14.73 62.572,14.77 62.526,14.807 62.474,14.841 
	62.415,14.875 62.354,14.904 62.29,14.934 62.224,14.958 62.152,14.98 62.082,14.997 62.01,15.013 61.937,15.022 61.866,15.027 
	61.795,15.029 61.726,15.022 61.66,15.013 61.574,14.99 61.496,14.966 61.427,14.934 61.366,14.897 61.312,14.858 61.263,14.813 
	61.223,14.768 61.189,14.719 61.16,14.666 61.135,14.612 61.116,14.559 61.101,14.505 61.091,14.448 61.084,14.392 61.079,14.337 
	61.079,14.284 61.086,14.188 61.101,14.098 61.126,14.012 61.157,13.929 61.197,13.851 61.241,13.779 61.292,13.71 61.351,13.648 
	61.413,13.593 61.481,13.54 61.552,13.494 61.626,13.455 61.704,13.421 61.785,13.394 61.868,13.371 61.954,13.357 61.959,13.357 
	61.971,13.354 61.989,13.353 62.015,13.35 62.045,13.346 62.079,13.343 62.116,13.337 62.158,13.332 62.199,13.328 62.241,13.323 
	62.286,13.32 62.324,13.315 62.364,13.313 62.4,13.311 62.435,13.309 62.462,13.309 62.518,13.309 62.577,13.311 62.631,13.313 
	62.685,13.313 62.729,13.315 62.764,13.317 62.788,13.32 62.795,13.32 62.8,13.304 62.815,13.26 62.827,13.207 62.832,13.161 
	62.822,13.107 62.8,13.058 62.771,13.014 62.731,12.978 62.685,12.945 62.633,12.924 62.575,12.908 62.511,12.903 62.442,12.901 
	62.368,12.898 62.292,12.898 62.214,12.901 62.133,12.906 62.055,12.913 61.976,12.92 61.9,12.931 61.827,12.94 61.755,12.952 
	61.692,12.965 61.633,12.978 61.579,12.992 61.535,13.006 61.501,13.023 61.473,13.038 61.648,12.447 61.702,12.426 61.755,12.405 
	61.815,12.389 61.873,12.376 61.933,12.363 61.996,12.354 62.06,12.345 62.126,12.34 62.194,12.334 62.266,12.332 62.339,12.329 
	62.415,12.329 62.494,12.329 62.575,12.329 62.66,12.332 62.746,12.334 62.815,12.34 62.889,12.352 62.964,12.369 63.043,12.392 
	63.119,12.42 63.193,12.455 63.266,12.496 63.335,12.543 63.396,12.598 63.45,12.656 63.499,12.722 63.536,12.795 63.56,12.874 
	63.575,12.957 63.575,13.051 63.56,13.148 63.313,14.443 "/>
<polygon fill-rule="evenodd" clip-rule="evenodd" fill="#EB2230" points="62.722,13.804 62.719,13.791 62.71,13.779 62.695,13.771 
	62.671,13.767 62.643,13.763 62.612,13.759 62.575,13.759 62.538,13.759 62.499,13.763 62.457,13.767 62.418,13.771 62.379,13.776 
	62.342,13.781 62.307,13.788 62.278,13.796 62.251,13.804 62.234,13.809 62.214,13.816 62.187,13.825 62.16,13.837 62.128,13.853 
	62.097,13.87 62.062,13.887 62.031,13.906 61.996,13.932 61.964,13.955 61.935,13.985 61.908,14.015 61.883,14.046 61.866,14.08 
	61.852,14.119 61.844,14.159 61.842,14.242 61.854,14.309 61.878,14.357 61.91,14.395 61.947,14.419 61.989,14.434 62.028,14.441 
	62.067,14.443 62.141,14.441 62.207,14.434 62.271,14.423 62.327,14.409 62.376,14.393 62.423,14.37 62.464,14.349 62.501,14.321 
	62.533,14.296 62.562,14.268 62.587,14.24 62.607,14.21 62.624,14.182 62.639,14.151 62.651,14.124 62.658,14.098 62.678,14.027 
	62.695,13.945 62.71,13.867 "/>
<polygon fill-rule="evenodd" clip-rule="evenodd" fill="#FFFFFF" points="58.153,14.987 57.486,14.987 58.043,11.769 59.203,11.769 
	59.313,13.679 60.115,11.769 61.326,11.769 60.757,14.987 60.09,14.987 60.512,12.583 60.486,12.583 59.487,14.987 58.735,14.987 
	58.73,14.888 58.713,14.62 58.691,14.239 58.667,13.804 58.641,13.364 58.619,12.979 58.603,12.7 58.597,12.583 58.59,12.583 
	58.575,12.583 58.561,12.583 "/>
<polyline fill="none" stroke="#FFFFFF" stroke-width="0.216" stroke-miterlimit="2.613" points="58.153,14.987 57.486,14.987 
	58.043,11.769 59.203,11.769 59.313,13.679 60.115,11.769 61.326,11.769 60.757,14.987 60.09,14.987 60.512,12.583 60.486,12.583 
	59.487,14.987 58.735,14.987 58.73,14.888 58.713,14.62 58.691,14.239 58.667,13.804 58.641,13.364 58.619,12.979 58.603,12.7 
	58.597,12.583 58.59,12.583 58.575,12.583 58.561,12.583 58.153,14.987 "/>
<polygon fill-rule="evenodd" clip-rule="evenodd" fill="#FFFFFF" points="75.483,14.443 75.382,14.987 74.767,14.987 74.772,14.888 
	74.774,14.8 74.774,14.733 74.78,14.703 74.748,14.74 74.71,14.777 74.667,14.812 74.618,14.847 74.567,14.877 74.507,14.906 
	74.446,14.937 74.384,14.961 74.319,14.98 74.25,14.999 74.181,15.013 74.112,15.022 74.042,15.027 73.972,15.029 73.907,15.022 
	73.839,15.013 73.751,14.99 73.673,14.966 73.604,14.934 73.541,14.897 73.487,14.858 73.44,14.813 73.401,14.768 73.368,14.719 
	73.337,14.666 73.315,14.612 73.295,14.559 73.284,14.505 73.274,14.448 73.266,14.392 73.26,14.337 73.26,14.284 73.266,14.188 
	73.282,14.098 73.302,14.012 73.335,13.929 73.372,13.851 73.418,13.779 73.469,13.71 73.526,13.648 73.59,13.593 73.657,13.54 
	73.727,13.494 73.803,13.455 73.879,13.421 73.96,13.394 74.042,13.371 74.125,13.357 74.129,13.357 74.141,13.354 74.159,13.353 
	74.183,13.35 74.215,13.346 74.25,13.343 74.286,13.337 74.325,13.332 74.368,13.328 74.411,13.323 74.454,13.32 74.495,13.315 
	74.534,13.313 74.569,13.311 74.602,13.309 74.629,13.309 74.688,13.309 74.748,13.311 74.803,13.313 74.858,13.313 74.905,13.315 
	74.944,13.317 74.965,13.32 74.975,13.32 74.981,13.304 74.987,13.26 74.995,13.207 75,13.161 74.991,13.107 74.97,13.058 
	74.94,13.014 74.901,12.978 74.858,12.945 74.806,12.924 74.752,12.908 74.694,12.903 74.625,12.901 74.551,12.898 74.475,12.898 
	74.397,12.901 74.315,12.906 74.237,12.913 74.159,12.92 74.083,12.931 74.008,12.94 73.938,12.952 73.875,12.965 73.815,12.978 
	73.761,12.992 73.717,13.006 73.682,13.023 73.657,13.038 73.827,12.447 73.881,12.426 73.938,12.405 73.995,12.389 74.053,12.376 
	74.114,12.363 74.176,12.354 74.239,12.345 74.306,12.34 74.375,12.334 74.446,12.332 74.516,12.329 74.592,12.329 74.668,12.329 
	74.748,12.329 74.831,12.332 74.915,12.334 74.983,12.34 75.056,12.352 75.132,12.369 75.21,12.392 75.288,12.42 75.362,12.455 
	75.436,12.496 75.504,12.543 75.567,12.598 75.623,12.656 75.671,12.722 75.708,12.795 75.735,12.874 75.753,12.957 75.753,13.051 
	75.741,13.148 "/>
<polygon fill-rule="evenodd" clip-rule="evenodd" fill="#FFFFFF" points="75.382,15.005 75.397,14.99 75.498,14.446 75.469,14.441 
	75.368,14.986 75.382,14.97 75.382,15.005 75.395,15.002 75.397,14.99 "/>
<polygon fill-rule="evenodd" clip-rule="evenodd" fill="#FFFFFF" points="74.752,14.987 74.767,15.005 75.382,15.005 75.382,14.971 
	74.767,14.971 74.782,14.987 74.752,14.987 74.75,15.005 74.767,15.005 "/>
<polygon fill-rule="evenodd" clip-rule="evenodd" fill="#FFFFFF" points="74.792,14.713 74.77,14.693 74.76,14.732 74.756,14.799 
	74.756,14.887 74.752,14.987 74.782,14.987 74.787,14.887 74.792,14.799 74.789,14.732 74.789,14.713 74.766,14.693 "/>
<polygon fill-rule="evenodd" clip-rule="evenodd" fill="#FFFFFF" points="73.837,15.027 73.837,15.027 73.907,15.037 73.973,15.044 
	74.041,15.042 74.112,15.037 74.184,15.027 74.251,15.015 74.321,14.995 74.389,14.975 74.451,14.951 74.514,14.922 74.574,14.892 
	74.625,14.858 74.676,14.823 74.719,14.789 74.76,14.75 74.792,14.713 74.766,14.693 74.735,14.73 74.701,14.765 74.657,14.799 
	74.61,14.833 74.559,14.863 74.5,14.892 74.44,14.922 74.379,14.946 74.315,14.966 74.248,14.986 74.178,14.998 74.112,15.007 
	74.041,15.012 73.973,15.015 73.907,15.007 73.842,14.998 "/>
<polygon fill-rule="evenodd" clip-rule="evenodd" fill="#FFFFFF" points="73.245,14.284 73.245,14.284 73.247,14.338 73.251,14.392 
	73.259,14.451 73.269,14.507 73.282,14.561 73.3,14.618 73.323,14.674 73.354,14.725 73.388,14.777 73.428,14.823 73.477,14.87 
	73.534,14.909 73.597,14.949 73.668,14.979 73.749,15.005 73.837,15.027 73.842,14.998 73.754,14.976 73.678,14.951 73.612,14.92 
	73.548,14.885 73.497,14.846 73.452,14.804 73.413,14.757 73.379,14.711 73.352,14.659 73.331,14.607 73.31,14.557 73.298,14.502 
	73.288,14.446 73.282,14.392 73.276,14.338 73.278,14.284 "/>
<polygon fill-rule="evenodd" clip-rule="evenodd" fill="#FFFFFF" points="74.125,13.343 74.125,13.343 74.039,13.357 73.956,13.379 
	73.875,13.406 73.796,13.44 73.719,13.479 73.647,13.528 73.581,13.58 73.516,13.64 73.458,13.7 73.405,13.77 73.356,13.843 
	73.321,13.924 73.289,14.008 73.266,14.096 73.251,14.188 73.245,14.284 73.278,14.284 73.282,14.188 73.295,14.101 73.317,14.017 
	73.349,13.934 73.386,13.857 73.43,13.788 73.483,13.721 73.536,13.659 73.599,13.604 73.666,13.554 73.735,13.51 73.811,13.47 
	73.884,13.436 73.965,13.408 74.043,13.387 74.125,13.371 "/>
<polygon fill-rule="evenodd" clip-rule="evenodd" fill="#FFFFFF" points="74.629,13.291 74.629,13.291 74.602,13.291 74.569,13.296 
	74.534,13.299 74.495,13.301 74.454,13.306 74.412,13.308 74.368,13.312 74.325,13.317 74.287,13.322 74.25,13.328 74.215,13.33 
	74.184,13.335 74.159,13.338 74.139,13.34 74.129,13.343 74.125,13.343 74.125,13.372 74.129,13.372 74.145,13.369 74.159,13.367 
	74.184,13.365 74.215,13.359 74.25,13.356 74.287,13.352 74.325,13.347 74.368,13.343 74.412,13.338 74.454,13.335 74.495,13.33 
	74.534,13.328 74.569,13.325 74.602,13.325 74.629,13.325 "/>
<polygon fill-rule="evenodd" clip-rule="evenodd" fill="#FFFFFF" points="74.96,13.317 74.975,13.306 74.965,13.306 74.944,13.303 
	74.905,13.301 74.858,13.296 74.803,13.296 74.748,13.296 74.688,13.291 74.629,13.291 74.629,13.325 74.688,13.325 74.748,13.325 
	74.803,13.33 74.858,13.33 74.905,13.33 74.944,13.333 74.965,13.336 74.975,13.336 74.99,13.322 74.975,13.336 74.988,13.338 
	74.99,13.322 "/>
<polygon fill-rule="evenodd" clip-rule="evenodd" fill="#FFFFFF" points="74.985,13.161 74.983,13.161 74.981,13.207 74.972,13.257 
	74.965,13.301 74.96,13.318 74.991,13.323 74.995,13.305 75.002,13.261 75.009,13.207 75.017,13.161 75.014,13.161 "/>
<polygon fill-rule="evenodd" clip-rule="evenodd" fill="#FFFFFF" points="74.694,12.918 74.694,12.92 74.75,12.923 74.801,12.938 
	74.85,12.96 74.892,12.989 74.926,13.023 74.956,13.065 74.975,13.109 74.985,13.161 75.014,13.161 75.004,13.105 74.985,13.05 
	74.952,13.004 74.913,12.964 74.866,12.93 74.811,12.908 74.754,12.895 74.694,12.886 74.694,12.889 "/>
<polygon fill-rule="evenodd" clip-rule="evenodd" fill="#FFFFFF" points="73.641,13.036 73.666,13.051 73.69,13.038 73.722,13.021 
	73.764,13.006 73.817,12.992 73.877,12.979 73.94,12.967 74.011,12.955 74.083,12.945 74.159,12.935 74.237,12.928 74.315,12.921 
	74.397,12.916 74.475,12.916 74.551,12.916 74.625,12.916 74.694,12.918 74.694,12.889 74.625,12.886 74.551,12.881 74.475,12.881 
	74.397,12.886 74.315,12.891 74.237,12.899 74.159,12.906 74.083,12.916 74.006,12.925 73.936,12.938 73.873,12.95 73.813,12.963 
	73.759,12.977 73.712,12.992 73.675,13.009 73.647,13.026 73.67,13.041 "/>
<polygon fill-rule="evenodd" clip-rule="evenodd" fill="#FFFFFF" points="73.823,12.433 73.813,12.444 73.641,13.035 73.67,13.041 
	73.843,12.449 73.833,12.463 73.823,12.433 73.815,12.436 73.813,12.444 "/>
<polygon fill-rule="evenodd" clip-rule="evenodd" fill="#FFFFFF" points="74.915,12.32 74.915,12.32 74.831,12.315 74.747,12.312 
	74.668,12.312 74.592,12.312 74.517,12.312 74.446,12.317 74.374,12.32 74.306,12.325 74.239,12.329 74.172,12.339 74.112,12.349 
	74.051,12.362 73.992,12.374 73.933,12.391 73.877,12.411 73.823,12.432 73.833,12.462 73.887,12.44 73.943,12.421 73.997,12.403 
	74.056,12.391 74.117,12.379 74.178,12.369 74.239,12.359 74.306,12.354 74.374,12.349 74.446,12.347 74.517,12.347 74.592,12.347 
	74.668,12.347 74.747,12.347 74.831,12.349 74.915,12.349 "/>
<polygon fill-rule="evenodd" clip-rule="evenodd" fill="#FFFFFF" points="75.755,13.151 75.755,13.151 75.767,13.05 75.767,12.957 
	75.75,12.871 75.723,12.79 75.684,12.715 75.634,12.646 75.577,12.585 75.515,12.531 75.444,12.484 75.37,12.44 75.292,12.406 
	75.215,12.376 75.135,12.354 75.058,12.337 74.983,12.325 74.915,12.32 74.915,12.35 74.983,12.354 75.054,12.366 75.13,12.383 
	75.206,12.406 75.282,12.436 75.355,12.469 75.429,12.509 75.495,12.555 75.556,12.609 75.61,12.666 75.659,12.729 75.694,12.801 
	75.72,12.877 75.739,12.957 75.739,13.05 75.726,13.146 "/>
<polygon fill-rule="evenodd" clip-rule="evenodd" fill="#FFFFFF" points="75.498,14.445 75.498,14.445 75.756,13.15 75.725,13.146 
	75.469,14.44 "/>
<polygon fill-rule="evenodd" clip-rule="evenodd" fill="#FBB230" points="74.889,13.804 74.884,13.788 74.875,13.776 74.858,13.77 
	74.833,13.763 74.806,13.759 74.774,13.756 74.737,13.756 74.7,13.759 74.661,13.765 74.623,13.77 74.583,13.774 74.545,13.779 
	74.509,13.786 74.477,13.791 74.446,13.798 74.421,13.804 74.405,13.807 74.384,13.813 74.36,13.82 74.333,13.83 74.3,13.846 
	74.272,13.86 74.237,13.877 74.206,13.899 74.173,13.921 74.141,13.948 74.114,13.975 74.087,14.007 74.065,14.041 74.048,14.078 
	74.034,14.117 74.026,14.159 74.024,14.242 74.036,14.309 74.056,14.357 74.085,14.395 74.122,14.419 74.164,14.434 74.206,14.441 
	74.248,14.443 74.321,14.441 74.389,14.434 74.454,14.421 74.509,14.404 74.563,14.384 74.61,14.362 74.655,14.337 74.694,14.309 
	74.727,14.281 74.756,14.25 74.784,14.221 74.806,14.188 74.823,14.159 74.835,14.129 74.845,14.101 74.852,14.073 74.862,14.004 
	74.875,13.934 74.884,13.865 "/>
<polygon fill-rule="evenodd" clip-rule="evenodd" fill="#FFFFFF" points="79.94,14.652 79.947,14.595 79.964,14.529 80,14.47 
	80.042,14.419 80.092,14.377 80.153,14.349 80.215,14.328 80.285,14.321 80.352,14.328 80.417,14.349 80.475,14.377 80.528,14.419 
	80.569,14.47 80.604,14.529 80.623,14.595 80.627,14.652 80.553,14.652 80.551,14.608 80.537,14.553 80.512,14.505 80.481,14.463 
	80.442,14.428 80.395,14.404 80.34,14.387 80.285,14.382 80.227,14.387 80.174,14.404 80.127,14.428 80.087,14.463 80.057,14.505 
	80.032,14.553 80.018,14.608 80.012,14.652 "/>
<polygon fill-rule="evenodd" clip-rule="evenodd" fill="#FFFFFF" points="80.162,14.652 80.162,14.505 80.296,14.505 80.327,14.507 
	80.352,14.512 80.373,14.52 80.389,14.529 80.401,14.544 80.412,14.56 80.417,14.575 80.419,14.593 80.417,14.615 80.412,14.632 
	80.405,14.647 80.399,14.652 80.296,14.652 80.305,14.649 80.323,14.647 80.338,14.643 80.35,14.637 80.36,14.63 80.366,14.622 
	80.37,14.61 80.37,14.593 80.368,14.581 80.362,14.571 80.356,14.566 80.348,14.562 80.335,14.56 80.323,14.557 80.311,14.557 
	80.296,14.557 80.223,14.557 80.223,14.652 "/>
<polygon fill-rule="evenodd" clip-rule="evenodd" fill="#FFFFFF" points="79.94,14.652 79.938,14.666 79.947,14.737 79.964,14.804 
	80,14.863 80.042,14.912 80.092,14.953 80.153,14.985 80.215,15.005 80.285,15.012 80.352,15.005 80.417,14.985 80.475,14.953 
	80.528,14.912 80.569,14.863 80.604,14.804 80.623,14.737 80.629,14.666 80.627,14.652 80.553,14.652 80.557,14.666 80.551,14.726 
	80.537,14.779 80.512,14.826 80.481,14.867 80.442,14.902 80.395,14.928 80.34,14.946 80.285,14.951 80.227,14.946 80.174,14.928 
	80.127,14.902 80.087,14.867 80.057,14.826 80.032,14.779 80.018,14.726 80.012,14.666 80.012,14.652 "/>
<polygon fill-rule="evenodd" clip-rule="evenodd" fill="#FFFFFF" points="80.162,14.652 80.162,14.801 80.223,14.801 80.223,14.679 
	80.285,14.679 80.358,14.801 80.407,14.801 80.333,14.679 80.35,14.679 80.368,14.674 80.382,14.669 80.395,14.659 80.399,14.652 
	80.296,14.652 80.285,14.654 80.223,14.654 80.223,14.652 "/>
<path fill="none" stroke="#FFFFFF" stroke-width="0.216" stroke-miterlimit="2.613" d="M79.939,14.667L79.939,14.667l0.007-0.072
	l0.02-0.065l0.033-0.06l0.043-0.051l0.052-0.042l0.059-0.029l0.063-0.02l0.068-0.007l0.069,0.007l0.063,0.02l0.059,0.029
	l0.052,0.042l0.042,0.051l0.034,0.06l0.019,0.065l0.008,0.072l-0.008,0.071l-0.019,0.065l-0.034,0.06l-0.042,0.049l-0.052,0.041
	l-0.059,0.033l-0.063,0.019l-0.069,0.008l-0.068-0.008l-0.063-0.019l-0.059-0.033l-0.052-0.041l-0.043-0.049l-0.033-0.06
	l-0.02-0.065L79.939,14.667 M80.223,14.802h-0.062v-0.297h0.135l0.031,0.002l0.026,0.005l0.019,0.007l0.018,0.011l0.013,0.015
	l0.011,0.015l0.004,0.018l0.002,0.017l-0.002,0.022l-0.004,0.017l-0.009,0.015l-0.009,0.013l-0.014,0.01l-0.014,0.005l-0.018,0.005
	h-0.018l0.074,0.123h-0.05l-0.073-0.123h-0.061V14.802 M80.284,14.654L80.284,14.654l0.022-0.005l0.017-0.003l0.016-0.005
	l0.012-0.005l0.01-0.007l0.006-0.008l0.004-0.012v-0.018l-0.002-0.012l-0.006-0.01l-0.007-0.005l-0.007-0.006l-0.014-0.002
	l-0.012-0.002h-0.012h-0.016h-0.072v0.098H80.284 M80.284,14.951L80.284,14.951l0.057-0.005l0.055-0.018l0.046-0.026l0.039-0.035
	l0.032-0.041l0.025-0.046l0.015-0.056l0.004-0.058l-0.004-0.059l-0.015-0.055l-0.025-0.049l-0.032-0.042l-0.039-0.034l-0.046-0.024
	l-0.055-0.018l-0.057-0.005l-0.056,0.005l-0.054,0.018l-0.047,0.024l-0.039,0.034l-0.032,0.042l-0.024,0.049l-0.015,0.055
	l-0.005,0.059l0.005,0.058l0.015,0.056l0.024,0.046l0.032,0.041l0.039,0.035l0.047,0.026l0.054,0.018L80.284,14.951"/>
<polygon fill-rule="evenodd" clip-rule="evenodd" fill="#FFFFFF" points="75.667,14.987 76.359,14.987 76.606,13.593 76.616,13.539 
	76.631,13.484 76.645,13.431 76.665,13.377 76.689,13.322 76.719,13.271 76.75,13.223 76.79,13.176 76.834,13.134 76.883,13.095 
	76.939,13.058 77.002,13.028 77.075,13.004 77.153,12.984 77.239,12.97 77.334,12.965 77.37,12.965 77.388,12.965 77.395,12.965 
	77.506,12.335 77.437,12.34 77.372,12.347 77.31,12.358 77.25,12.376 77.198,12.396 77.145,12.421 77.096,12.447 77.049,12.477 
	77.006,12.512 76.964,12.546 76.925,12.585 76.886,12.624 76.848,12.666 76.812,12.712 76.775,12.757 76.741,12.806 76.815,12.361 
	76.125,12.361 "/>
<polyline fill="none" stroke="#FFFFFF" stroke-width="0.216" stroke-miterlimit="2.613" points="75.667,14.987 76.359,14.987 
	76.606,13.593 76.616,13.539 76.631,13.484 76.645,13.431 76.665,13.377 76.689,13.322 76.719,13.271 76.75,13.223 76.79,13.176 
	76.834,13.134 76.883,13.095 76.939,13.058 77.002,13.028 77.075,13.004 77.153,12.984 77.239,12.97 77.334,12.965 77.37,12.965 
	77.388,12.965 77.395,12.965 77.506,12.335 77.437,12.34 77.372,12.347 77.31,12.358 77.25,12.376 77.198,12.396 77.145,12.421 
	77.096,12.447 77.049,12.477 77.006,12.512 76.964,12.546 76.925,12.585 76.886,12.624 76.848,12.666 76.812,12.712 76.775,12.757 
	76.741,12.806 76.815,12.361 76.125,12.361 75.667,14.987 "/>
<polygon fill-rule="evenodd" clip-rule="evenodd" fill="#FFFFFF" points="69.174,14.987 69.865,14.987 69.876,14.987 70.113,13.593 
	70.123,13.539 70.135,13.486 70.147,13.436 70.165,13.387 70.184,13.338 70.208,13.291 70.238,13.247 70.272,13.205 70.311,13.168 
	70.356,13.132 70.41,13.102 70.469,13.074 70.537,13.053 70.613,13.033 70.697,13.021 70.792,13.014 70.799,13.014 70.809,13.017 
	70.822,13.019 70.833,13.019 70.846,13.021 70.856,13.023 70.863,13.025 70.866,13.025 70.868,13.017 70.875,12.986 70.885,12.942 
	70.897,12.889 70.915,12.824 70.932,12.757 70.954,12.688 70.975,12.619 70.996,12.572 71.02,12.525 71.044,12.479 71.069,12.438 
	71.09,12.4 71.108,12.372 71.121,12.354 71.125,12.347 71.124,12.347 71.113,12.345 71.102,12.342 71.083,12.34 71.067,12.34 
	71.046,12.337 71.03,12.335 71.012,12.335 70.936,12.34 70.868,12.347 70.805,12.358 70.746,12.374 70.69,12.394 70.637,12.418 
	70.59,12.442 70.546,12.472 70.506,12.504 70.465,12.541 70.428,12.578 70.393,12.619 70.356,12.66 70.322,12.708 70.285,12.757 
	70.248,12.806 70.335,12.361 69.631,12.361 "/>
<polyline fill="none" stroke="#FFFFFF" stroke-width="0.216" stroke-miterlimit="2.613" points="69.174,14.987 69.865,14.987 
	69.876,14.987 70.113,13.593 70.123,13.539 70.135,13.486 70.147,13.436 70.165,13.387 70.184,13.338 70.208,13.291 70.238,13.247 
	70.272,13.205 70.311,13.168 70.356,13.132 70.41,13.102 70.469,13.074 70.537,13.053 70.613,13.033 70.697,13.021 70.792,13.014 
	70.799,13.014 70.809,13.017 70.822,13.019 70.833,13.019 70.846,13.021 70.856,13.023 70.863,13.025 70.866,13.025 70.868,13.017 
	70.875,12.986 70.885,12.942 70.897,12.889 70.915,12.824 70.932,12.757 70.954,12.688 70.975,12.619 70.996,12.572 71.02,12.525 
	71.044,12.479 71.069,12.438 71.09,12.4 71.108,12.372 71.121,12.354 71.125,12.347 71.124,12.347 71.113,12.345 71.102,12.342 
	71.083,12.34 71.067,12.34 71.046,12.337 71.03,12.335 71.012,12.335 70.936,12.34 70.868,12.347 70.805,12.358 70.746,12.374 
	70.69,12.394 70.637,12.418 70.59,12.442 70.546,12.472 70.506,12.504 70.465,12.541 70.428,12.578 70.393,12.619 70.356,12.66 
	70.322,12.708 70.285,12.757 70.248,12.806 70.335,12.361 69.631,12.361 69.174,14.987 "/>
<polygon fill-rule="evenodd" clip-rule="evenodd" fill="#FBB230" points="79.946,17.567 79.946,17.558 79.965,17.493 79.999,17.438 
	80.042,17.389 80.093,17.35 80.153,17.319 80.216,17.303 80.284,17.296 80.353,17.303 80.417,17.319 80.475,17.35 80.528,17.389 
	80.569,17.438 80.603,17.493 80.622,17.558 80.622,17.567 80.552,17.567 80.536,17.517 80.512,17.47 80.48,17.428 80.441,17.394 
	80.394,17.366 80.341,17.35 80.284,17.345 80.228,17.35 80.174,17.366 80.127,17.394 80.088,17.428 80.056,17.47 80.032,17.517 
	80.017,17.567 "/>
<polygon fill-rule="evenodd" clip-rule="evenodd" fill="#FBB230" points="80.162,17.567 80.162,17.482 80.296,17.482 80.327,17.482 
	80.352,17.486 80.373,17.491 80.389,17.5 80.401,17.514 80.412,17.528 80.417,17.546 80.419,17.567 80.37,17.567 80.37,17.556 
	80.368,17.542 80.362,17.533 80.356,17.528 80.348,17.523 80.335,17.521 80.323,17.519 80.311,17.519 80.296,17.519 80.223,17.519 
	80.223,17.567 "/>
<polygon fill-rule="evenodd" clip-rule="evenodd" fill="#FBB230" points="79.938,17.621 79.947,17.567 80.016,17.567 80.016,17.569 
	80.012,17.621 "/>
<polygon fill-rule="evenodd" clip-rule="evenodd" fill="#FBB230" points="80.162,17.621 80.162,17.567 80.223,17.567 80.223,17.616 
	80.285,17.616 80.305,17.612 80.323,17.609 80.338,17.604 80.35,17.6 80.36,17.592 80.366,17.584 80.37,17.572 80.37,17.567 
	80.419,17.567 80.417,17.584 80.412,17.6 80.405,17.612 80.395,17.621 "/>
<polygon fill-rule="evenodd" clip-rule="evenodd" fill="#FBB230" points="80.557,17.621 80.551,17.569 80.551,17.567 80.623,17.567 
	80.629,17.621 "/>
<polygon fill-rule="evenodd" clip-rule="evenodd" fill="#FBB230" points="79.938,17.621 79.938,17.628 79.947,17.699 79.965,17.767 
	80,17.825 80.042,17.876 80.092,17.918 80.152,17.947 80.215,17.967 80.284,17.975 80.352,17.967 80.417,17.947 80.475,17.918 
	80.528,17.876 80.569,17.825 80.604,17.767 80.623,17.699 80.629,17.628 80.629,17.621 80.557,17.621 80.557,17.628 80.551,17.688 
	80.537,17.741 80.512,17.788 80.481,17.829 80.442,17.864 80.395,17.892 80.34,17.908 80.284,17.913 80.227,17.908 80.174,17.892 
	80.127,17.864 80.087,17.829 80.057,17.788 80.032,17.741 80.016,17.688 80.012,17.628 80.012,17.621 "/>
<polygon fill-rule="evenodd" clip-rule="evenodd" fill="#FBB230" points="80.162,17.621 80.162,17.763 80.223,17.763 80.223,17.642 
	80.285,17.642 80.358,17.763 80.407,17.763 80.333,17.642 80.35,17.642 80.368,17.636 80.382,17.631 80.395,17.621 "/>
<path fill-rule="evenodd" clip-rule="evenodd" fill="#FFFFFF" d="M69.25,13.144l-0.02-0.146l-0.035-0.13l-0.048-0.113l-0.062-0.098
	l-0.073-0.084l-0.081-0.068l-0.088-0.059l-0.096-0.044l-0.098-0.037l-0.101-0.025l-0.1-0.017l-0.101-0.01l-0.095-0.002l-0.2,0.01
	l-0.176,0.029l-0.159,0.044l-0.142,0.062l-0.123,0.073l-0.108,0.084l-0.096,0.093l-0.078,0.098l-0.069,0.104l-0.056,0.107
	l-0.044,0.105l-0.037,0.105l-0.027,0.104l-0.02,0.095l-0.014,0.091l-0.01,0.078l-0.012,0.201l0.007,0.183l0.027,0.163l0.042,0.146
	l0.059,0.13l0.071,0.113l0.083,0.1l0.096,0.083l0.103,0.072l0.11,0.061l0.115,0.048l0.12,0.035l0.123,0.03l0.123,0.017l0.122,0.013
	l0.12,0.002h0.081l0.077-0.002h0.066l0.063-0.002l0.057-0.005l0.051-0.006l0.049-0.005l0.044-0.007l0.042-0.008l0.039-0.009
	l0.04-0.013l0.037-0.013l0.036-0.015l0.04-0.014l0.038-0.021l0.04-0.02l0.098-0.604l-0.071,0.042l-0.069,0.039l-0.071,0.03
	l-0.069,0.025l-0.066,0.022l-0.068,0.015l-0.067,0.013l-0.066,0.01l-0.066,0.005l-0.064,0.003h-0.066l-0.064-0.003l-0.063-0.005
	l-0.064-0.007l-0.062-0.009l-0.063-0.009l-0.05-0.01l-0.048-0.017l-0.049-0.022l-0.045-0.027l-0.044-0.029l-0.039-0.036
	l-0.037-0.037l-0.034-0.042l-0.029-0.042l-0.027-0.046l-0.02-0.044l-0.017-0.047l-0.01-0.048l-0.005-0.047l0.002-0.041l0.006-0.031
	h1.591l0.012-0.149l0.037-0.207l0.017-0.186L69.25,13.144z M68.585,13.369h-0.896l0.001-0.002h-0.002l0.007-0.035l0.01-0.051
	l0.014-0.049l0.017-0.049l0.023-0.045l0.022-0.042l0.027-0.039l0.029-0.036l0.032-0.034l0.032-0.03l0.037-0.027l0.036-0.021
	l0.042-0.02l0.042-0.015l0.042-0.01l0.044-0.007l0.046-0.003l0.044,0.005l0.042,0.008l0.039,0.01l0.039,0.015l0.037,0.02
	l0.037,0.022l0.032,0.023l0.029,0.03l0.025,0.034l0.025,0.036l0.017,0.043l0.017,0.046l0.009,0.049l0.005,0.054l0.003,0.06
	L68.585,13.369z"/>
<path fill="#F7F6F5" d="M137.381,24.474c0,0.746-0.604,1.35-1.351,1.35H98.213c-0.746,0-1.352-0.604-1.352-1.35V1.85
	c0-0.745,0.605-1.35,1.352-1.35h37.817c0.746,0,1.351,0.604,1.351,1.35V24.474z"/>
<path fill="none" stroke="#D0D2D3" stroke-miterlimit="10" d="M137.381,24.474c0,0.746-0.604,1.35-1.351,1.35H98.213
	c-0.746,0-1.352-0.604-1.352-1.35V1.85c0-0.745,0.605-1.35,1.352-1.35h37.817c0.746,0,1.351,0.604,1.351,1.35V24.474z"/>
<path fill="#FFFFFF" d="M109.434,12.572v-0.405l-0.193,0.405h-1.679l-0.21-0.436v0.436h-3.135l-0.371-0.877h-0.628l-0.392,0.877
	H101.2V9.925l1.191-2.696h2.281l0.322,0.764V7.234h2.791l0.613,1.286l0.6-1.292h8.812c0,0,0.462-0.006,0.765,0.208V7.229h2.219
	v0.292c0,0,0.398-0.292,0.988-0.292h3.918l0.344,0.774V7.229h2.51l0.456,0.774V7.229h2.399v5.349h-2.466l-0.579-0.932v0.927h-3.064
	l-0.43-0.955h-0.601l-0.405,0.955h-1.854c0,0-0.691-0.009-1.211-0.38v0.38h-3.691v-1.248c0-0.181-0.139-0.168-0.139-0.168h-0.135
	v1.416H109.434z"/>
<path fill="#FFFFFF" d="M107.592,13.73h4.852l0.698,0.792l0.718-0.792h3.729c0,0,0.352,0.009,0.684,0.186V13.73h3.32
	c0.422,0,0.775,0.211,0.775,0.211V13.73h4.27v0.194c0,0,0.305-0.194,0.713-0.194h2.781v0.194c0,0,0.35-0.194,0.72-0.194h2.183v5.041
	c0,0-0.285,0.325-0.879,0.325h-2.879v-0.161c0,0-0.274,0.161-0.691,0.161h-7.646v-1.304c0-0.128-0.058-0.151-0.172-0.151h-0.105
	v1.455h-2.389V17.65c0,0-0.266,0.143-0.707,0.143h-0.861v1.304h-2.945l-0.671-0.818l-0.716,0.818h-4.779V13.73z"/>
<polygon fill="#0078A9" points="122.881,14.535 125.924,14.535 125.924,15.351 123.813,15.351 123.813,16.062 125.866,16.062 
	125.866,16.782 123.813,16.782 123.813,17.531 125.924,17.531 125.924,18.328 122.881,18.328 "/>
<path fill="#0078A9" d="M131.805,16.013c1.145,0.059,1.24,0.63,1.24,1.24c0,0.71-0.584,1.092-1.193,1.092h-1.957v-0.813h1.525
	c0.258,0,0.643,0,0.643-0.363c0-0.173-0.067-0.284-0.343-0.313c-0.122-0.017-0.575-0.043-0.643-0.044
	c-1.034-0.027-1.275-0.541-1.275-1.167c0-0.711,0.5-1.1,1.11-1.1h1.956v0.812h-1.433c-0.324,0.003-0.676-0.039-0.676,0.329
	c0,0.233,0.172,0.28,0.393,0.301C131.229,15.986,131.737,16.014,131.805,16.013"/>
<path fill="#0078A9" d="M128.299,16.013c1.146,0.059,1.24,0.63,1.24,1.24c0,0.71-0.584,1.092-1.193,1.092h-1.955v-0.813h1.523
	c0.258,0,0.645,0,0.645-0.363c0-0.173-0.068-0.284-0.344-0.313c-0.123-0.017-0.576-0.043-0.644-0.044
	c-1.034-0.027-1.274-0.541-1.274-1.167c0-0.711,0.5-1.1,1.109-1.1h1.956v0.812h-1.431c-0.326,0.003-0.678-0.039-0.678,0.329
	c0,0.233,0.174,0.28,0.394,0.301C127.723,15.986,128.233,16.014,128.299,16.013"/>
<path fill="#0078A9" d="M117.259,14.543h-3.269l-1.065,1.177l-1.033-1.186h-3.67v3.793h3.552l1.117-1.253l1.092,1.263h1.786v-1.288
	h1.253c0.483,0,1.363-0.017,1.363-1.347C118.385,14.755,117.717,14.543,117.259,14.543 M111.288,17.531h-2.147v-0.749h2.054v-0.719
	h-2.054v-0.712l2.265,0.005l0.906,1.032L111.288,17.531z M114.847,17.972l-1.338-1.583l1.338-1.481V17.972z M116.946,16.268h-1.16
	v-0.91h1.164c0.39,0,0.513,0.249,0.513,0.436C117.462,16.048,117.327,16.268,116.946,16.268"/>
<path fill="#0078A9" d="M121.757,16.608c0.508-0.253,0.644-0.592,0.644-1.049c0-0.812-0.66-1.017-1.117-1.017h-2.422v3.793h0.932
	v-1.338h1.22c0.321,0,0.448,0.322,0.456,0.644l0.025,0.694h0.906l-0.033-0.778C122.368,16.947,122.198,16.659,121.757,16.608
	 M120.954,16.217h-1.16v-0.859h1.164c0.39,0,0.512,0.25,0.512,0.436C121.469,16.046,121.334,16.217,120.954,16.217"/>
<rect x="119.235" y="7.988" fill="#0078A9" width="0.932" height="3.797"/>
<polygon fill="#0078A9" points="111.613,7.992 114.656,7.992 114.656,8.809 112.545,8.809 112.545,9.521 114.596,9.521 
	114.596,10.239 112.545,10.239 112.545,10.988 114.656,10.988 114.656,11.785 111.613,11.785 "/>
<path fill="#0078A9" d="M118.104,10.057c0.509-0.253,0.645-0.592,0.645-1.049c0-0.813-0.66-1.016-1.119-1.016h-2.42v3.793h0.931
	v-1.339h1.219c0.322,0,0.449,0.322,0.457,0.644l0.026,0.695h0.906l-0.035-0.779C118.713,10.396,118.545,10.108,118.104,10.057
	 M117.299,9.665h-1.159V8.806h1.164c0.39,0,0.512,0.25,0.512,0.437C117.816,9.496,117.681,9.665,117.299,9.665"/>
<path fill="#0078A9" d="M109.465,7.991l-1.143,2.544l-1.139-2.544h-1.461v3.653l-1.625-3.653h-1.232l-1.659,3.793h0.983l0.362-0.847
	h1.859l0.368,0.847h1.875V8.97l1.244,2.814h0.847l1.274-2.769v2.769h0.932V7.991H109.465z M102.905,10.12l0.555-1.326l0.579,1.326
	H102.905z"/>
<path fill="#0078A9" d="M129.775,7.99v2.626l-1.569-2.626h-1.377v3.562l-1.586-3.56h-1.232l-1.282,2.938c0,0-0.542,0-0.597-0.013
	c-0.225-0.047-0.575-0.204-0.58-0.873V9.769c0-0.889,0.482-0.954,1.102-0.954h0.575V7.99h-1.216c-0.423,0-1.344,0.323-1.375,1.881
	c-0.021,1.05,0.436,1.915,1.468,1.915h1.228l0.365-0.847h1.857l0.368,0.847h1.837V9.01l1.676,2.776h1.27V7.99H129.775z
	 M124.056,10.121l0.554-1.325l0.586,1.325H124.056z"/>
</svg>
