<svg width="52" height="34" viewBox="0 0 52 34" fill="none" xmlns="http://www.w3.org/2000/svg">
<path d="M49.7778 20V24C49.7778 28.4183 46.196 32 41.7778 32H16.9305M49.7778 20V10C49.7778 5.58172 46.1961 2 41.7778 2H16.9305M49.7778 20H16.9305M2 20V10C2 5.58172 5.58172 2 10 2H16.9305M2 20V24C2 28.4183 5.58172 32 10 32H16.9305M2 20H16.9305M16.9305 32V20M16.9305 2V20M16.9305 20L10.9583 26M16.8858 20C16.8858 14 12.4094 6.5 7.93086 11C3.45234 15.5 10.9124 20 16.8858 20ZM16.8858 20C16.8858 14 21.3626 6.5 25.8411 11C30.3196 15.5 22.8592 20 16.8858 20ZM16.8858 20L22.8546 26" stroke="white" stroke-width="3" stroke-linecap="round"/>
</svg>
