<svg width="24" height="24" viewBox="0 0 24 24" fill="none" xmlns="http://www.w3.org/2000/svg">
<path fill-rule="evenodd" clip-rule="evenodd" d="M5.41075 5.90471C4.82295 6.81228 4.5 8.09638 4.5 9.5C4.5 11.4741 5.72732 13.6815 7.40917 15.6114C8.94957 17.379 10.7513 18.7767 12 19.4183C13.2487 18.7767 15.0504 17.379 16.5908 15.6114C18.2727 13.6815 19.5 11.4741 19.5 9.5C19.5 8.09638 19.1771 6.81228 18.5892 5.90471C18.0178 5.02237 17.2074 4.5 16.125 4.5C13.882 4.5 12.9927 6.21378 12.7211 7.16437C12.6291 7.48635 12.3349 7.70833 12 7.70833C11.6651 7.70833 11.3708 7.48635 11.2789 7.16437C11.0073 6.21378 10.118 4.5 7.875 4.5C6.79261 4.5 5.98222 5.02237 5.41075 5.90471ZM4.15175 5.08929C4.95528 3.84864 6.20739 3 7.875 3C10.0086 3 11.2808 4.10032 12 5.1934C12.7192 4.10032 13.9914 3 16.125 3C17.7926 3 19.0447 3.84864 19.8483 5.08929C20.6354 6.30472 21 7.89563 21 9.5C21 12.0259 19.4773 14.5824 17.7217 16.5969C15.9549 18.6242 13.8081 20.2671 12.3046 20.9354C12.1107 21.0215 11.8893 21.0215 11.6954 20.9354C10.1919 20.2671 8.04509 18.6242 6.27833 16.5969C4.52269 14.5824 3 12.0259 3 9.5C3 7.89563 3.36455 6.30472 4.15175 5.08929Z" fill="black"/>
</svg>
