<svg width="25" height="24" viewBox="0 0 25 24" fill="none" xmlns="http://www.w3.org/2000/svg">
<path fill-rule="evenodd" clip-rule="evenodd" d="M7.66501 1.066C8.83801 1.012 9.21201 1 12.2 1C15.188 1 15.562 1.013 16.734 1.066C17.906 1.119 18.706 1.306 19.406 1.577C20.139 1.854 20.804 2.287 21.354 2.847C21.914 3.396 22.346 4.06 22.622 4.794C22.894 5.494 23.08 6.294 23.134 7.464C23.188 8.639 23.2 9.013 23.2 12C23.2 14.988 23.187 15.362 23.134 16.535C23.081 17.705 22.894 18.505 22.622 19.205C22.346 19.9391 21.9133 20.6042 21.354 21.154C20.804 21.714 20.139 22.146 19.406 22.422C18.706 22.694 17.906 22.88 16.736 22.934C15.562 22.988 15.188 23 12.2 23C9.21201 23 8.83801 22.987 7.66501 22.934C6.49501 22.881 5.69501 22.694 4.99501 22.422C4.26093 22.146 3.59583 21.7133 3.04601 21.154C2.48639 20.6047 2.05333 19.9399 1.77701 19.206C1.50601 18.506 1.32001 17.706 1.26601 16.536C1.21201 15.361 1.20001 14.987 1.20001 12C1.20001 9.012 1.21301 8.638 1.26601 7.466C1.31901 6.294 1.50601 5.494 1.77701 4.794C2.05374 4.06008 2.48713 3.39531 3.04701 2.846C3.59605 2.2865 4.26048 1.85344 4.99401 1.577C5.69401 1.306 6.49401 1.12 7.66401 1.066H7.66501ZM16.645 3.046C15.485 2.993 15.137 2.982 12.2 2.982C9.26301 2.982 8.91501 2.993 7.75501 3.046C6.68201 3.095 6.10001 3.274 5.71201 3.425C5.19901 3.625 4.83201 3.862 4.44701 4.247C4.08206 4.60205 3.80119 5.03428 3.62501 5.512C3.47401 5.9 3.29501 6.482 3.24601 7.555C3.19301 8.715 3.18201 9.063 3.18201 12C3.18201 14.937 3.19301 15.285 3.24601 16.445C3.29501 17.518 3.47401 18.1 3.62501 18.488C3.80101 18.965 4.08201 19.398 4.44701 19.753C4.80201 20.118 5.23501 20.399 5.71201 20.575C6.10001 20.726 6.68201 20.905 7.75501 20.954C8.91501 21.007 9.26201 21.018 12.2 21.018C15.138 21.018 15.485 21.007 16.645 20.954C17.718 20.905 18.3 20.726 18.688 20.575C19.201 20.375 19.568 20.138 19.953 19.753C20.318 19.398 20.599 18.965 20.775 18.488C20.926 18.1 21.105 17.518 21.154 16.445C21.207 15.285 21.218 14.937 21.218 12C21.218 9.063 21.207 8.715 21.154 7.555C21.105 6.482 20.926 5.9 20.775 5.512C20.575 4.999 20.338 4.632 19.953 4.247C19.5979 3.88207 19.1657 3.60121 18.688 3.425C18.3 3.274 17.718 3.095 16.645 3.046ZM10.795 15.391C11.5797 15.7176 12.4534 15.7617 13.2669 15.5157C14.0805 15.2697 14.7834 14.7489 15.2556 14.0422C15.7278 13.3356 15.9401 12.4869 15.8561 11.6411C15.7721 10.7953 15.397 10.005 14.795 9.405C14.4112 9.02148 13.9472 8.72781 13.4363 8.54515C12.9255 8.36248 12.3804 8.29536 11.8405 8.34862C11.3006 8.40187 10.7792 8.57418 10.3138 8.85313C9.84847 9.13208 9.45076 9.51074 9.14931 9.96185C8.84787 10.413 8.6502 10.9253 8.57053 11.462C8.49086 11.9986 8.53116 12.5463 8.68855 13.0655C8.84594 13.5847 9.11649 14.0626 9.48073 14.4647C9.84497 14.8668 10.2938 15.1832 10.795 15.391ZM8.20201 8.002C8.72704 7.47697 9.35033 7.0605 10.0363 6.77636C10.7223 6.49222 11.4575 6.34597 12.2 6.34597C12.9425 6.34597 13.6777 6.49222 14.3637 6.77636C15.0497 7.0605 15.673 7.47697 16.198 8.002C16.723 8.52702 17.1395 9.15032 17.4237 9.8363C17.7078 10.5223 17.854 11.2575 17.854 12C17.854 12.7425 17.7078 13.4777 17.4237 14.1637C17.1395 14.8497 16.723 15.473 16.198 15.998C15.1377 17.0583 13.6996 17.654 12.2 17.654C10.7005 17.654 9.26235 17.0583 8.20201 15.998C7.14168 14.9377 6.54599 13.4995 6.54599 12C6.54599 10.5005 7.14168 9.06234 8.20201 8.002ZM19.108 7.188C19.2381 7.06527 19.3423 6.91768 19.4143 6.75397C19.4864 6.59027 19.5248 6.41377 19.5274 6.23493C19.53 6.05609 19.4967 5.87855 19.4295 5.71281C19.3623 5.54707 19.2624 5.39651 19.136 5.27004C19.0095 5.14357 18.8589 5.04376 18.6932 4.97652C18.5275 4.90928 18.3499 4.87598 18.1711 4.87858C17.9922 4.88119 17.8157 4.91965 17.652 4.9917C17.4883 5.06374 17.3407 5.1679 17.218 5.298C16.9793 5.55103 16.8486 5.88712 16.8537 6.23493C16.8588 6.58274 16.9992 6.91488 17.2452 7.16084C17.4911 7.40681 17.8233 7.54723 18.1711 7.5523C18.5189 7.55737 18.855 7.42669 19.108 7.188Z" fill="#394531"/>
</svg>
