<svg width="24" height="24" viewBox="0 0 24 24" fill="none" xmlns="http://www.w3.org/2000/svg">
<path fill-rule="evenodd" clip-rule="evenodd" d="M17 3.25C16.0335 3.25 15.25 4.0335 15.25 5V7.26772C15.1683 7.25604 15.0849 7.25 15 7.25H13C12.0335 7.25 11.25 8.0335 11.25 9V11.2677C11.1683 11.256 11.0849 11.25 11 11.25H9C8.0335 11.25 7.25 12.0335 7.25 13V15.2677C7.16835 15.256 7.08488 15.25 7 15.25H5C4.0335 15.25 3.25 16.0335 3.25 17V19C3.25 19.9665 4.0335 20.75 5 20.75H19C19.9665 20.75 20.75 19.9665 20.75 19V5C20.75 4.0335 19.9665 3.25 19 3.25H17ZM16.75 19.25H19C19.1381 19.25 19.25 19.1381 19.25 19V5C19.25 4.86193 19.1381 4.75 19 4.75H17C16.8619 4.75 16.75 4.86193 16.75 5V19.25ZM15.25 19.25V9C15.25 8.86193 15.1381 8.75 15 8.75H13C12.8619 8.75 12.75 8.86193 12.75 9V19.25H15.25ZM11.25 13V19.25H8.75V13C8.75 12.8619 8.86193 12.75 9 12.75H11C11.1381 12.75 11.25 12.8619 11.25 13ZM7.25 19.25V17C7.25 16.8619 7.13807 16.75 7 16.75H5C4.86193 16.75 4.75 16.8619 4.75 17V19C4.75 19.1381 4.86193 19.25 5 19.25H7.25Z" fill="black"/>
</svg>
