<svg width="24" height="24" viewBox="0 0 24 24" fill="none" xmlns="http://www.w3.org/2000/svg">
<path d="M7.17107 5.009C7.17107 6.2174 6.19147 7.197 4.98307 7.197C3.77468 7.197 2.79507 6.2174 2.79507 5.009C2.79507 3.8006 3.77468 2.821 4.98307 2.821C6.19147 2.821 7.17107 3.8006 7.17107 5.009Z" fill="#394531"/>
<path d="M9.237 20.994V8.855H12.855V10.515H12.906C13.409 9.562 14.639 8.555 16.474 8.555C20.296 8.555 21 11.068 21 14.338V20.995H17.229V15.091C17.229 13.684 17.205 11.873 15.268 11.873C13.304 11.873 13.006 13.407 13.006 14.991V20.994H9.237Z" fill="#394531"/>
<path d="M6.87 8.855H3.095V20.994H6.87V8.855Z" fill="#394531"/>
</svg>
