<svg width="24" height="25" viewBox="0 0 24 25" fill="none" xmlns="http://www.w3.org/2000/svg">
<path d="M4.98301 8.01516C6.19141 8.01516 7.17101 7.03556 7.17101 5.82716C7.17101 4.61876 6.19141 3.63916 4.98301 3.63916C3.77461 3.63916 2.79501 4.61876 2.79501 5.82716C2.79501 7.03556 3.77461 8.01516 4.98301 8.01516Z" fill="white"/>
<path d="M9.237 9.67317V21.8122H13.006V15.8092C13.006 14.2252 13.304 12.6912 15.268 12.6912C17.205 12.6912 17.229 14.5022 17.229 15.9092V21.8132H21V15.1562C21 11.8862 20.296 9.37317 16.474 9.37317C14.639 9.37317 13.409 10.3802 12.906 11.3332H12.855V9.67317H9.237ZM3.095 9.67317H6.87V21.8122H3.095V9.67317Z" fill="white"/>
</svg>
