<svg width="35" height="36" viewBox="0 0 35 36" fill="none" xmlns="http://www.w3.org/2000/svg">
<g clip-path="url(#clip0_736_35418)">
<path d="M22.5794 10.0557C23.6474 9.65993 24.7153 9.4903 25.8395 9.4903C27.5819 9.4903 29.3806 10.0557 30.8982 11.017C31.0106 10.395 31.123 9.77302 31.123 9.15104C31.123 4.3449 27.2447 0.5 22.5232 0.5C20.2749 0.5 18.1952 1.34814 16.5651 2.93133L16.5089 3.04443C15.7782 3.83603 15.2161 4.57108 14.8227 5.36268C14.4292 6.15428 14.2044 6.94588 14.0358 7.85057C13.7547 9.77302 14.092 11.6955 15.0475 13.3918C15.5534 14.353 16.2841 15.1446 17.1272 15.9362C17.2958 15.3708 17.5769 14.8053 17.8579 14.2964C18.8134 12.3174 20.4997 10.8473 22.5794 10.0557Z" fill="#262E20"/>
<path d="M19.9377 16.7843C19.9939 16.7843 19.9939 16.7843 19.9377 16.7843H19.9939C22.186 17.1236 24.1533 18.2544 25.5585 19.8942C26.1206 20.5727 26.6265 21.3077 26.9637 22.0993C27.0761 22.269 27.1324 22.4951 27.1886 22.6648C27.5258 23.4564 27.6944 24.3611 27.7506 25.2092C27.8069 26.1139 27.7506 27.0751 27.5258 27.9233C28.1441 27.8667 28.8186 27.6971 29.4369 27.4709C33.8773 25.7746 36.1257 20.7989 34.4394 16.332C33.8773 14.8619 32.9218 13.5614 31.6852 12.6002L31.5166 12.4871L31.4604 12.4305C29.999 11.3562 28.2003 10.7908 26.4016 10.7908C23.3102 10.7908 20.4436 12.4871 18.926 15.2011C18.6449 15.6535 18.4201 16.2189 18.2515 16.7278C18.3639 16.7278 18.4763 16.7278 18.5325 16.7278C19.0946 16.6712 19.488 16.7278 19.9377 16.7843Z" fill="#262E20"/>
<path d="M18.1955 35.5C20.219 35.5 22.2425 34.7649 23.8163 33.4079C25.2215 32.2205 26.1771 30.6373 26.5705 28.8279C26.7392 27.9233 26.8516 27.0186 26.7954 26.1704C26.7392 25.1527 26.4581 24.1914 26.0647 23.2302C24.8281 20.5727 22.4111 18.7068 19.5445 18.2544C19.5445 18.2544 19.5445 18.2544 19.4883 18.2544H19.4321C18.9824 18.1979 18.589 18.1414 18.2517 18.1414C18.1393 18.1414 18.0831 18.1414 17.9707 18.1414C19.4321 21.8732 18.4204 26.0573 15.3851 28.6583C14.0361 29.8457 12.3499 30.5808 10.6074 30.8069C10.8885 31.3724 11.2819 31.9378 11.7316 32.4467C13.3054 34.3691 15.6662 35.5 18.1955 35.5Z" fill="#262E20"/>
<path d="M9.65169 30.1284C9.7079 30.1284 9.7079 30.1284 9.65169 30.1284C9.7079 30.1284 9.7641 30.1284 9.7641 30.1284C12.4621 29.7892 14.8228 28.206 16.1156 25.7746C17.4084 23.5129 17.577 20.7423 16.6215 18.311C16.1156 18.7633 15.6098 19.1591 15.0477 19.4984C13.6425 20.29 12.0686 20.7423 10.4948 20.7423C10.2138 20.7423 9.93273 20.7423 9.59548 20.6858C8.24648 20.5727 7.0099 20.1769 5.88574 19.4984C5.6047 19.3288 5.32366 19.1591 5.04261 18.9895C4.08708 18.311 3.24395 17.4063 2.62566 16.4451C2.51325 16.2189 2.34462 15.9927 2.23221 15.71C1.78254 16.2189 1.38908 16.7278 1.10804 17.2932C-0.016122 19.3288 -0.297164 21.647 0.321126 23.8522C0.939416 26.0574 2.40083 27.9233 4.36812 29.0541C5.6609 29.7892 7.12232 30.185 8.58373 30.185C8.80856 30.185 9.0334 30.185 9.25823 30.1284C9.42685 30.185 9.53927 30.185 9.65169 30.1284Z" fill="#262E20"/>
<path d="M10.1013 1.91357C8.07781 1.91357 6.16674 2.64863 4.59291 4.00566C3.01908 5.36268 2.00733 7.2286 1.67008 9.26414C1.33283 11.3562 1.7825 13.5048 2.90666 15.2577C3.46874 16.1624 4.25566 17.0105 5.15499 17.6325C6.22294 18.4241 7.45952 18.933 8.80852 19.1591C9.03335 19.2157 9.20198 19.2157 9.3706 19.2157C9.59544 19.2157 9.87648 19.2722 10.1575 19.2722C11.6751 19.2722 13.1928 18.8764 14.4855 18.1414C15.0476 17.8021 15.5535 17.4628 16.0032 17.0105C15.0476 16.2189 14.2607 15.2577 13.6986 14.2399C12.9117 12.8263 12.5183 11.2997 12.5183 9.77302C12.5183 9.26414 12.5745 8.81179 12.6307 8.30291C12.6307 8.18982 12.6869 8.07673 12.6869 8.02019C12.8555 7.17205 13.0803 6.43699 13.4738 5.64539C13.8673 4.8538 14.3731 4.0622 15.0476 3.44023C14.5418 3.10097 13.4176 2.42245 11.6189 2.0832C11.1131 1.97011 10.6072 1.91357 10.1013 1.91357Z" fill="#262E20"/>
</g>
<defs>
<clipPath id="clip0_736_35418">
<rect width="35" height="35" fill="white" transform="translate(0 0.5)"/>
</clipPath>
</defs>
</svg>
