<svg width="219" height="44" viewBox="0 0 219 44" fill="none" xmlns="http://www.w3.org/2000/svg">
<path d="M14.8839 36.3798C21.0451 34.373 24.5681 27.9951 23.1493 21.7868C28.901 22.1706 33.4502 26.9692 33.4502 32.8356C33.4502 38.9528 28.5035 43.9091 22.4049 43.9091C17.7538 43.9091 13.7716 41.0263 12.144 36.9427C13.0576 36.8608 13.9758 36.6755 14.8839 36.3798Z" fill="#314B4E"/>
<path d="M34.8144 32.8366C34.8144 26.3462 29.8538 21.0148 23.5225 20.4481C25.6641 15.0793 31.624 12.2268 37.1871 14.0387C42.9879 15.928 46.1647 22.1749 44.2789 27.9927C42.8412 32.4281 38.8759 35.3323 34.5016 35.623C34.7063 34.7267 34.8144 33.7939 34.8144 32.8366Z" fill="#314B4E"/>
<path d="M20.5104 4.66707C24.0962 -0.2803 31.0029 -1.37631 35.9374 2.21743C39.7005 4.95805 41.2319 9.63662 40.1553 13.899C39.3687 13.4275 38.5178 13.0367 37.6104 12.7412C31.4493 10.7345 24.8588 13.8183 22.3652 19.6761C17.9366 15.9754 17.0712 9.41209 20.5104 4.66707Z" fill="#314B4E"/>
<path d="M8.9087 2.20615C12.672 -0.534598 17.5833 -0.548032 21.2933 1.79579C20.6018 2.40054 19.9672 3.09178 19.4056 3.86658C15.599 9.11853 16.4873 16.3542 21.2772 20.5417C16.3983 23.6221 9.9042 22.4198 6.46496 17.6747C2.8784 12.7264 3.97322 5.80062 8.9087 2.20615Z" fill="#314B4E"/>
<path d="M0.543713 27.9727C-0.893917 23.5375 0.610758 18.8509 3.97932 16.0376C4.33915 16.8826 4.7984 17.7001 5.35931 18.474C9.16579 23.7258 16.3055 25.1158 21.7594 21.8454C23.1737 27.4508 20.024 33.2702 14.461 35.082C8.66087 36.9711 2.42928 33.7899 0.543713 27.9727Z" fill="#314B4E"/>
<path d="M68.6245 12.6339H67.3072H67.1198L67.0538 12.8138L61.4071 27.75L55.8264 12.8138L55.7578 12.6339H55.5677H54.2214H53.8228L53.9627 13.007L60.4699 30.2874L59.6965 32.3195C58.7408 34.8833 57.1648 35.8015 54.4273 35.3914L54.1131 35.3411V35.6612V36.844V37.0715L54.3375 37.1138C57.6426 37.7303 60.1479 36.2539 61.3913 32.9518L68.8806 13.0043L69.0205 12.6313H68.6245V12.6339Z" fill="#314B4E"/>
<path d="M78.5083 12.1942C73.577 12.1942 69.5645 16.4436 69.5645 21.6666C69.5645 26.8155 73.577 31.004 78.5083 31.004C83.4581 31.004 87.4865 26.8155 87.4865 21.6666C87.4865 16.4436 83.4581 12.1942 78.5083 12.1942ZM78.5083 29.2683C74.567 29.2683 71.3622 25.8577 71.3622 21.6639C71.3622 17.3961 74.5696 13.9247 78.5083 13.9247C82.4496 13.9247 85.6544 17.3961 85.6544 21.6639C85.6544 25.8577 82.4496 29.2683 78.5083 29.2683Z" fill="#314B4E"/>
<path d="M107.056 12.6335H105.807H105.533V12.9086V15.9858C103.959 13.5939 101.37 12.1942 98.4182 12.1942C93.487 12.1942 89.4744 16.4436 89.4744 21.6666C89.4744 26.8341 93.487 31.0384 98.4182 31.0384C101.362 31.0384 103.951 29.644 105.533 27.268V29.8504C105.533 34.3881 102.769 37.3171 98.4869 37.3171C95.2926 37.3171 92.9141 35.7587 91.9638 33.0387L91.903 32.8535H91.7077H90.393H90.0261L90.1291 33.2054C91.2088 36.907 94.3344 39.1164 98.4869 39.1164C103.777 39.1164 107.33 35.3909 107.33 29.8477V12.9086V12.6335H107.056ZM98.4209 14.0279C102.542 14.0279 105.535 17.24 105.535 21.6639C105.535 26.0323 102.544 29.1995 98.4209 29.1995C94.4796 29.1995 91.2748 25.818 91.2748 21.6639C91.2748 17.4543 94.4796 14.0279 98.4209 14.0279Z" fill="#314B4E"/>
<path d="M126.134 30.2208C125.87 29.5567 125.646 28.3052 125.646 27.4823V17.6422C125.646 14.1813 123.053 12.1942 118.526 12.1942C114.534 12.1942 111.781 14.057 110.973 17.3035L110.889 17.6448H111.24H112.52H112.721L112.784 17.4543C113.499 15.1709 115.487 13.9617 118.528 13.9617C120.957 13.9617 123.85 14.5994 123.85 17.6395C123.85 19.5366 121.411 19.915 117.692 20.2722C114.138 20.6003 110.054 21.5131 110.054 25.7545C110.054 29.2895 113.468 30.9008 116.636 30.9008C119.722 30.9008 122.306 29.9245 123.866 28.1993C123.906 29.0831 124.059 29.8239 124.352 30.4404L124.426 30.5965H124.6H125.878H126.284L126.134 30.2208ZM123.85 23.9976C123.85 27.522 120.226 29.099 116.636 29.099C115.015 29.099 111.95 28.3925 111.95 25.7228C111.95 23.823 112.958 22.4577 117.876 21.9709C119.986 21.7936 122.348 21.5846 123.848 20.5606V23.9976H123.85Z" fill="#314B4E"/>
<path d="M150.835 12.6256H149.523H149.318L149.259 12.8214L144.867 27.3051L140.474 12.8214L140.416 12.6256H140.21H138.861H138.658L138.6 12.8214L134.21 27.3051L129.812 12.8214L129.753 12.6256H129.55H128.236H127.866L127.972 12.9802L133.267 30.3929L133.328 30.5887H133.531H134.88H135.086L135.144 30.3929L139.534 15.9092L143.93 30.3929L143.988 30.5887H144.194H145.543H145.746L145.804 30.3929L151.099 12.9802L151.205 12.6256H150.835Z" fill="#314B4E"/>
<path d="M160.822 12.1862C155.888 12.1862 151.878 16.4356 151.878 21.6586C151.878 26.8075 155.888 30.996 160.822 30.996C165.772 30.996 169.8 26.8075 169.8 21.6586C169.8 16.4356 165.775 12.1862 160.822 12.1862ZM160.822 29.2603C156.881 29.2603 153.674 25.8523 153.674 21.6559C153.674 17.3907 156.881 13.9193 160.822 13.9193C164.761 13.9193 167.968 17.3907 167.968 21.6559C167.968 25.8523 164.761 29.2603 160.822 29.2603Z" fill="#314B4E"/>
<path d="M180.682 12.2551C178.304 11.9826 176.186 12.6017 174.563 14.0464C174.317 14.2766 174.088 14.5438 173.874 14.8428V12.9007V12.6255H173.599H172.319H172.044V12.9007V30.3134V30.5886H172.319H173.599H173.874V30.3134V19.7986C173.874 18.0258 174.542 16.4118 175.706 15.372C176.836 14.2739 178.581 13.7712 180.627 13.9538L180.925 13.9802V13.6786V12.5303V12.2842L180.682 12.2551Z" fill="#314B4E"/>
<path d="M198.224 30.16L190.93 19.2959L197.342 13.0992L197.833 12.6256H197.152H195.367H195.254L195.175 12.705L185.449 22.1244V5.15883V4.88365H185.177H183.929H183.654V5.15883V30.3135V30.5886H183.929H185.177H185.449V30.3135V24.6142L189.618 20.5951L196.252 30.4669L196.334 30.5886H196.479H197.997H198.511L198.224 30.16Z" fill="#314B4E"/>
<path d="M207.043 20.1002C202.88 19.5154 201.605 18.8354 201.579 17.1897C201.568 16.5229 201.832 15.8932 202.35 15.3666C203.25 14.4459 204.813 13.9193 206.634 13.9193C209.564 13.9193 211.481 15.1259 212.173 17.4093L212.233 17.6051H212.434H213.714H214.063L213.981 17.269C213.21 13.9908 210.586 12.1889 206.595 12.1889C202.096 12.1889 199.744 14.7078 199.744 17.1976C199.815 20.8463 203.614 21.4046 206.669 21.8518L206.761 21.865C210.877 22.455 212.503 23.4525 212.563 25.4211C212.624 26.2572 212.35 27.0351 211.795 27.6251C210.792 28.665 209.092 29.2629 207.136 29.2629C203.501 29.2629 201.191 27.8156 200.623 25.1856L200.578 24.9686H200.357H199.111H198.789L198.841 25.2888C199.42 28.8634 202.532 30.9987 207.17 30.9987C209.638 30.9987 211.8 30.2287 213.105 28.8872C213.965 27.9903 214.435 26.7123 214.395 25.3682C214.219 21.6798 210.758 20.6558 207.043 20.1002Z" fill="#314B4E"/>
<path d="M215.966 14.303H216.206C216.478 14.303 216.708 14.2051 216.708 13.9485C216.708 13.7659 216.576 13.586 216.206 13.586C216.098 13.586 216.026 13.5939 215.966 13.6019V14.303ZM215.966 15.4513H215.636V13.3796C215.81 13.3531 215.974 13.3293 216.219 13.3293C216.533 13.3293 216.739 13.3955 216.863 13.4881C216.987 13.578 217.053 13.7183 217.053 13.9167C217.053 14.1919 216.871 14.3533 216.647 14.4194V14.4353C216.829 14.4697 216.953 14.6338 216.993 14.9407C217.043 15.2608 217.093 15.3852 217.125 15.4513H216.779C216.729 15.3852 216.681 15.1947 216.639 14.9222C216.591 14.6602 216.457 14.5597 216.193 14.5597H215.963V15.4513H215.966ZM216.312 12.8054C215.498 12.8054 214.833 13.5066 214.833 14.3692C214.833 15.2529 215.501 15.9461 216.322 15.9461C217.146 15.9541 217.803 15.2555 217.803 14.3798C217.803 13.5066 217.146 12.8054 216.322 12.8054H216.312ZM216.322 12.5144C217.336 12.5144 218.141 13.3399 218.141 14.3692C218.141 15.4196 217.336 16.2345 216.314 16.2345C215.303 16.2345 214.479 15.4196 214.479 14.3692C214.479 13.3399 215.303 12.5144 216.314 12.5144H216.322Z" fill="#314B4E"/>
</svg>
