<svg width="24" height="24" viewBox="0 0 24 24" fill="none" xmlns="http://www.w3.org/2000/svg">
<path fill-rule="evenodd" clip-rule="evenodd" d="M15.0028 11.7483C16.2156 10.836 17 9.38458 17 7.75C17 4.98858 14.7614 2.75 12 2.75C9.23858 2.75 7 4.98858 7 7.75C7 9.38458 7.78436 10.836 8.99724 11.7483C5.36254 12.9951 2.75 16.4424 2.75 20.5C2.75 20.9142 3.08579 21.25 3.5 21.25C3.91421 21.25 4.25 20.9142 4.25 20.5C4.25 16.2198 7.71979 12.75 12 12.75C16.2802 12.75 19.75 16.2198 19.75 20.5C19.75 20.9142 20.0858 21.25 20.5 21.25C20.9142 21.25 21.25 20.9142 21.25 20.5C21.25 16.4424 18.6375 12.9951 15.0028 11.7483ZM8.5 7.75C8.5 5.817 10.067 4.25 12 4.25C13.933 4.25 15.5 5.817 15.5 7.75C15.5 9.683 13.933 11.25 12 11.25C10.067 11.25 8.5 9.683 8.5 7.75Z" fill="black"/>
</svg>
