<svg width="25" height="25" viewBox="0 0 25 25" fill="none" xmlns="http://www.w3.org/2000/svg">
<g clip-path="url(#clip0_4048_143513)">
<path d="M13.3625 1.12256C8.55275 1.12256 3.8 4.32881 3.8 9.51806C3.8 12.8181 5.65625 14.6931 6.78125 14.6931C7.2455 14.6931 7.5125 13.3993 7.5125 13.0341C7.5125 12.5983 6.40175 11.6698 6.40175 9.85556C6.40175 6.08681 9.2705 3.41456 12.983 3.41456C16.175 3.41456 18.5375 5.22881 18.5375 8.56181C18.5375 11.0511 17.5393 15.7198 14.3045 15.7198C13.1375 15.7198 12.1385 14.8761 12.1385 13.6671C12.1385 11.8948 13.376 10.1796 13.376 8.35106C13.376 5.24831 8.97425 5.81081 8.97425 9.56081C8.97425 10.3483 9.0725 11.2198 9.42425 11.9376C8.777 14.7223 7.4555 18.8706 7.4555 21.7393C7.4555 22.6251 7.58225 23.4973 7.66625 24.3831C7.82525 24.5616 7.74575 24.5428 7.9895 24.4536C10.352 21.2188 10.268 20.5866 11.3368 16.3536C11.9135 17.4508 13.4038 18.0411 14.585 18.0411C19.5628 18.0411 21.7993 13.1893 21.7993 8.81606C21.7993 4.16156 17.777 1.12406 13.3618 1.12406L13.3625 1.12256Z" fill="white"/>
</g>
<defs>
<clipPath id="clip0_4048_143513">
<rect width="24" height="24" fill="white" transform="translate(0.800003 0.818115)"/>
</clipPath>
</defs>
</svg>
