<?xml version="1.0" encoding="utf-8"?>
<!-- Generator: Adobe Illustrator 15.0.0, SVG Export Plug-In . SVG Version: 6.00 Build 0)  -->
<!DOCTYPE svg PUBLIC "-//W3C//DTD SVG 1.1//EN" "http://www.w3.org/Graphics/SVG/1.1/DTD/svg11.dtd">
<svg version="1.1" id="Layer_1" xmlns="http://www.w3.org/2000/svg" xmlns:xlink="http://www.w3.org/1999/xlink" x="0px" y="0px"
	 width="19.7px" height="19.699px" viewBox="0 0 19.7 19.699" enable-background="new 0 0 19.7 19.699" xml:space="preserve">
<path fill="#848484" d="M19.7,9.85C19.699,4.41,15.29,0.001,9.848,0C4.408,0.001,0.001,4.41,0,9.85
	c0.001,5.44,4.408,9.85,9.848,9.85C15.29,19.699,19.699,15.29,19.7,9.85h-1c0,4.887-3.963,8.85-8.852,8.85
	C4.96,18.699,1,14.738,1,9.85C1,4.963,4.96,1,9.848,1C14.737,1,18.7,4.963,18.7,9.85H19.7z"/>
<path fill="#848484" d="M8.98,11.906v-0.344c0-0.494,0.076-0.902,0.229-1.221c0.152-0.32,0.436-0.657,0.85-1.013
	c0.576-0.486,0.938-0.852,1.089-1.098c0.15-0.245,0.225-0.542,0.225-0.888c0-0.432-0.139-0.765-0.416-1
	C10.681,6.107,10.282,5.99,9.762,5.99c-0.335,0-0.66,0.039-0.978,0.117c-0.317,0.08-0.681,0.222-1.092,0.429L7.317,5.68
	c0.8-0.419,1.636-0.629,2.507-0.629c0.808,0,1.437,0.199,1.886,0.596c0.447,0.399,0.672,0.959,0.672,1.683
	c0,0.309-0.041,0.581-0.123,0.816c-0.083,0.235-0.205,0.457-0.365,0.667c-0.161,0.208-0.508,0.546-1.041,1.011
	c-0.428,0.364-0.71,0.667-0.848,0.908C9.869,10.974,9.8,11.295,9.8,11.697v0.209H8.98z M8.669,13.791
	c0-0.574,0.254-0.862,0.762-0.862c0.245,0,0.434,0.074,0.568,0.222c0.133,0.148,0.2,0.362,0.2,0.641
	c0,0.271-0.068,0.482-0.203,0.633c-0.136,0.15-0.324,0.225-0.565,0.225c-0.22,0-0.402-0.066-0.546-0.199
	C8.742,14.314,8.669,14.097,8.669,13.791"/>
</svg>
