<svg width="320" height="49" viewBox="0 0 320 49" fill="none" xmlns="http://www.w3.org/2000/svg">
<path opacity="0.8" fill-rule="evenodd" clip-rule="evenodd" d="M13.3613 46.4078C13.3056 47.2048 13.2789 48.0066 13.2789 48.8181H0.833374C0.833374 47.9824 0.855196 47.1539 0.896414 46.3303C2.19116 20.9774 23.1592 0.818115 48.8334 0.818115C74.6846 0.818115 95.7617 21.2511 96.7922 46.8487C96.8188 47.5027 96.8334 48.1568 96.8334 48.8181H84.3903C84.3903 48.0817 84.366 47.3501 84.32 46.6234C83.1852 28.0363 67.6993 13.262 48.8334 13.262C30.0378 13.262 14.6027 27.9224 13.3613 46.4078ZM29.4098 46.5532C29.3223 47.305 29.2786 48.0612 29.2789 48.8181H16.8334C16.8334 48.1083 16.8576 47.4058 16.9037 46.7106C17.9899 30.0202 31.8684 16.8181 48.8334 16.8181C65.825 16.8181 79.7229 30.059 80.7703 46.7833C80.8116 47.4567 80.8309 48.135 80.8309 48.8181H68.3903C68.3903 48.1035 68.3515 47.401 68.2739 46.7034C67.2192 36.912 58.9028 29.262 48.8334 29.262C38.8173 29.262 30.5348 36.8345 29.4098 46.5532ZM48.8334 32.8181C50.9357 32.8184 53.0173 33.2326 54.9593 34.037C56.9013 34.8413 58.6656 36.0201 60.1515 37.506C61.6374 38.9919 62.8156 40.7557 63.619 42.6967C64.4223 44.6376 64.835 46.7177 64.8334 48.8181H32.8334C32.8321 46.7178 33.245 44.6379 34.0484 42.697C34.8519 40.7562 36.0301 38.9925 37.5159 37.5067C39.0017 36.0209 40.766 34.8421 42.7078 34.0376C44.6497 33.2331 46.7312 32.8187 48.8334 32.8181Z" fill="#F1543D"/>
<path fill-rule="evenodd" clip-rule="evenodd" d="M144.403 44.0841V14.1148H157.809V5.55208H120.833V14.1148H134.057V44.0841H144.403ZM200.205 24.8181C200.205 36.6835 191.389 44.8181 180.186 44.8181C168.983 44.8181 160.168 36.6835 160.168 24.8181C160.168 12.9527 168.983 4.81812 180.186 4.81812C191.389 4.81812 200.205 12.9527 200.205 24.8181ZM189.492 24.8181C189.492 18.2738 185.88 13.9924 180.187 13.9924C174.493 13.9924 170.882 18.2738 170.882 24.8181C170.882 31.3624 174.493 35.6438 180.187 35.6438C185.88 35.6438 189.492 31.3624 189.492 24.8181ZM216.216 35.8884H220.317C227.051 35.8884 231.031 31.8517 231.031 24.757C231.031 17.7845 227.051 13.7478 220.317 13.7478H216.216V35.8884ZM205.809 44.0841V5.55208H221.052C233.847 5.55208 241.744 12.7692 241.744 24.8181C241.744 36.8671 233.847 44.0841 221.052 44.0841H205.809ZM257.938 5.55208H269.569L284.935 44.0841H273.854L270.978 36.6224H255.917L253.04 44.0841H242.572L257.938 5.55208ZM263.325 17.4787L258.917 28.8548H267.977L263.57 17.4787H263.325ZM299.699 19.4358L307.964 5.55208H319.167L304.352 29.4664V44.0841H294.251V29.4664L279.435 5.55208H291.006L299.699 19.4358Z" fill="#8D9690"/>
</svg>
