<svg width="24" height="24" viewBox="0 0 24 24" fill="none" xmlns="http://www.w3.org/2000/svg">
<path fill-rule="evenodd" clip-rule="evenodd" d="M8.32501 5.25C8.67247 3.53832 10.1858 2.25 12 2.25C13.8142 2.25 15.3275 3.53832 15.675 5.25H20C20.4142 5.25 20.75 5.58579 20.75 6C20.75 6.41421 20.4142 6.75 20 6.75H18.6505L16.8038 19.6768C16.7158 20.2926 16.1884 20.75 15.5664 20.75H8.43365C7.81158 20.75 7.28418 20.2926 7.19621 19.6768L5.34953 6.75H4C3.58579 6.75 3.25 6.41421 3.25 6C3.25 5.58579 3.58579 5.25 4 5.25H8.32501ZM9.87803 5.25C10.1869 4.37611 11.0203 3.75 12 3.75C12.9797 3.75 13.8131 4.37611 14.122 5.25H9.87803ZM8.65047 19.25L6.86476 6.75H17.1352L15.3495 19.25H8.65047Z" fill="black"/>
</svg>
