<svg width="25" height="24" viewBox="0 0 25 24" fill="none" xmlns="http://www.w3.org/2000/svg">
<path d="M22.6 5.92858C21.8645 6.25449 21.0744 6.47469 20.2438 6.57423C21.1008 6.0614 21.742 5.25428 22.0477 4.30346C21.2425 4.78174 20.3613 5.11839 19.4423 5.29879C18.8242 4.63894 18.0057 4.20157 17.1136 4.0546C16.2216 3.90764 15.306 4.05929 14.509 4.48601C13.7119 4.91274 13.0781 5.59066 12.7058 6.41454C12.3336 7.23841 12.2437 8.16213 12.4503 9.0423C10.8187 8.96038 9.2226 8.53631 7.76553 7.79761C6.30847 7.05891 5.02301 6.02209 3.99259 4.75444C3.64026 5.36221 3.43767 6.06687 3.43767 6.81733C3.43728 7.49292 3.60365 8.15816 3.92202 8.75403C4.24039 9.3499 4.70091 9.85797 5.26274 10.2332C4.61117 10.2124 3.97398 10.0364 3.4042 9.71965V9.7725C3.40413 10.72 3.73189 11.6384 4.33187 12.3718C4.93184 13.1052 5.76707 13.6084 6.69584 13.7961C6.0914 13.9597 5.4577 13.9838 4.84259 13.8666C5.10463 14.6819 5.61506 15.3948 6.30243 15.9056C6.98981 16.4164 7.8197 16.6995 8.67593 16.7152C7.22243 17.8562 5.42735 18.4751 3.57948 18.4724C3.25215 18.4725 2.9251 18.4534 2.60001 18.4151C4.4757 19.6212 6.65914 20.2612 8.88909 20.2587C16.4378 20.2587 20.5644 14.0066 20.5644 8.58427C20.5644 8.4081 20.56 8.23018 20.5521 8.05401C21.3548 7.47352 22.0477 6.7547 22.5982 5.93122L22.6 5.92858Z" fill="#394531"/>
</svg>
