<svg width="358" height="49" viewBox="0 0 358 49" fill="none" xmlns="http://www.w3.org/2000/svg">
<g clip-path="url(#clip0_4048_143258)">
<path opacity="0.8" d="M24.0674 48.8181C37.3222 48.8181 48.0674 38.0729 48.0674 24.8181C48.0674 11.5633 37.3222 0.818115 24.0674 0.818115C10.8125 0.818115 0.0673828 11.5633 0.0673828 24.8181C0.0673828 38.0729 10.8125 48.8181 24.0674 48.8181Z" fill="#2891F7"/>
<path d="M87.6273 34.7402C88.4398 34.7899 89.2535 34.6656 90.014 34.3755C90.7746 34.0855 91.4644 33.6364 92.0375 33.0584C93.1183 31.6818 93.627 29.9417 93.4577 28.1997V7.38241H102.913V28.1997C103.031 30.1628 102.728 32.1283 102.026 33.965C101.323 35.8018 100.237 37.4676 98.8396 38.8513C95.7144 41.4794 91.7043 42.8161 87.6273 42.5887C83.5499 42.8199 79.5384 41.4828 76.4151 38.8513C74.9706 37.4909 73.8357 35.8355 73.0877 33.9976C72.3396 32.1597 71.9958 30.1823 72.0798 28.1997V7.38241H81.5354V28.1997C81.4236 29.9369 81.9858 31.6504 83.1051 32.9836C83.6824 33.5921 84.3874 34.0652 85.1693 34.3689C85.9512 34.6726 86.7906 34.7994 87.6273 34.7402ZM121.787 42.6261C119.055 42.6242 116.346 42.1304 113.789 41.1685C111.289 40.2554 109 38.844 107.062 37.02L111.621 31.2644C112.963 32.4813 114.506 33.4551 116.181 34.1422C117.962 34.8577 119.868 35.2134 121.787 35.1887C122.903 35.2495 124.015 35.0039 125.001 34.4786C125.37 34.262 125.672 33.9493 125.876 33.574C126.08 33.1988 126.178 32.775 126.16 32.3483C126.154 31.8893 126.021 31.4408 125.778 31.0519C125.534 30.6631 125.188 30.3487 124.777 30.1432C123.25 29.2853 121.616 28.6319 119.919 28.1997L117.788 27.6391C115.125 27.0638 112.669 25.7714 110.687 23.9017C109.875 23.053 109.242 22.0501 108.825 20.9523C108.408 19.8546 108.215 18.6843 108.258 17.5108C108.274 15.5034 108.899 13.5484 110.052 11.9047C111.272 10.2427 112.928 8.94945 114.836 8.16727C117.07 7.23018 119.477 6.77184 121.899 6.8218C124.461 6.82707 126.998 7.32181 129.374 8.27939C131.71 9.18491 133.872 10.4872 135.765 12.1289L131.056 18.0714C129.753 16.9728 128.307 16.055 126.758 15.3431C125.235 14.591 123.561 14.1948 121.862 14.1845C120.773 14.1145 119.687 14.3473 118.723 14.8572C118.339 15.0587 118.021 15.3671 117.809 15.7452C117.597 16.1233 117.499 16.5548 117.527 16.9875C117.539 17.4034 117.651 17.8102 117.853 18.1742C118.054 18.5382 118.34 18.8489 118.685 19.0805C119.917 19.8751 121.285 20.4328 122.722 20.7249L125.3 21.435C128.275 22.0477 131.012 23.5004 133.186 25.6209C134.706 27.3121 135.534 29.5139 135.503 31.7876C135.54 33.8379 134.939 35.849 133.784 37.5432C132.553 39.2107 130.885 40.5044 128.963 41.2807C126.691 42.2236 124.247 42.6818 121.787 42.6261ZM164.095 41.9534L161.89 35.6745H148.958L146.79 42.1403H137.447L150.117 7.56928H161.105L173.588 41.9534H164.095ZM151.163 28.4987H159.348L155.461 16.3896L151.163 28.4987ZM195.879 42.1403V15.1936H185.601V7.71877H215.5V15.1936H205.334V42.1403H195.879ZM235.383 42.813C232.159 42.8756 228.976 42.0893 226.152 40.5332C223.51 39.0268 221.326 36.8307 219.836 34.1796C218.239 31.3551 217.426 28.1551 217.481 24.9108C217.444 22.4598 217.875 20.0242 218.752 17.735C219.596 15.6057 220.868 13.6722 222.489 12.0542C224.116 10.4433 226.047 9.1728 228.17 8.31676C232.78 6.56088 237.874 6.56088 242.484 8.31676C244.607 9.17368 246.538 10.4441 248.165 12.0542C249.787 13.6715 251.059 15.6052 251.903 17.735C252.883 20.0034 253.416 22.4401 253.472 24.9108C253.539 28.1516 252.739 31.3515 251.155 34.1796C249.638 36.8268 247.429 39.0105 244.764 40.4958C241.9 42.0907 238.661 42.8907 235.383 42.813ZM235.383 35.0018C236.925 35.0356 238.439 34.5917 239.719 33.7311C240.994 32.834 242.002 31.6066 242.634 30.1806C243.383 28.5267 243.754 26.7262 243.718 24.9108C243.747 23.096 243.377 21.2969 242.634 19.6411C242.023 18.1517 241.014 16.8588 239.719 15.9037C238.426 15.0533 236.912 14.6001 235.365 14.6001C233.817 14.6001 232.303 15.0533 231.01 15.9037C229.715 16.8588 228.706 18.1517 228.095 19.6411C227.352 21.2969 226.982 23.096 227.011 24.9108C226.976 26.7262 227.346 28.5267 228.095 30.1806C228.727 31.6066 229.735 32.834 231.01 33.7311C232.305 34.586 233.833 35.017 235.383 34.9644V35.0018ZM258.742 42.1403V7.56928H272.383C275.551 7.50304 278.681 8.26302 281.465 9.77435C284.039 11.2034 286.172 13.3103 287.632 15.8663C289.098 18.6289 289.865 21.7086 289.865 24.8361C289.865 27.9635 289.098 31.0433 287.632 33.8058C286.172 36.3618 284.039 38.4688 281.465 39.8978C278.681 41.4091 275.551 42.1691 272.383 42.1029L258.742 42.1403ZM268.048 34.6654H272.383C273.504 34.7094 274.619 34.4887 275.639 34.0211C276.658 33.5536 277.553 32.8525 278.251 31.9745C279.759 29.9224 280.524 27.418 280.419 24.8734C280.524 22.3289 279.759 19.8245 278.251 17.7724C277.553 16.8944 276.658 16.1933 275.639 15.7258C274.619 15.2582 273.504 15.0375 272.383 15.0815H268.048V34.6654ZM317.756 42.1403L315.588 35.6745H302.619L300.451 42.1403H291.108L303.778 7.56928H314.766L327.435 42.1403H317.756ZM305.011 28.6856H313.271L309.197 16.5764L305.011 28.6856ZM345.674 29.6947V42.1403H336.069V29.6947L323.81 7.56928H334.499L340.89 21.4724L347.244 7.75615H357.933L345.674 29.6947Z" fill="#8D9690"/>
</g>
<defs>
<clipPath id="clip0_4048_143258">
<rect width="357.865" height="48" fill="white" transform="translate(0.0673828 0.818115)"/>
</clipPath>
</defs>
</svg>
