<svg width="358" height="48" viewBox="0 0 358 48" fill="none" xmlns="http://www.w3.org/2000/svg">
<g clip-path="url(#clip0_3231_130846)">
<path opacity="0.8" d="M24.0674 48C37.3222 48 48.0674 37.2548 48.0674 24C48.0674 10.7452 37.3222 0 24.0674 0C10.8125 0 0.0673828 10.7452 0.0673828 24C0.0673828 37.2548 10.8125 48 24.0674 48Z" fill="#2891F7"/>
<path d="M87.6273 33.9221C88.4398 33.9718 89.2535 33.8475 90.014 33.5574C90.7746 33.2674 91.4644 32.8183 92.0375 32.2402C93.1183 30.8637 93.627 29.1236 93.4577 27.3816V6.5643H102.913V27.3816C103.031 29.3447 102.728 31.3101 102.026 33.1469C101.323 34.9837 100.237 36.6495 98.8396 38.0332C95.7144 40.6613 91.7043 41.998 87.6273 41.7706C83.5499 42.0018 79.5384 40.6647 76.4151 38.0332C74.9706 36.6728 73.8357 35.0174 73.0877 33.1795C72.3396 31.3416 71.9958 29.3642 72.0798 27.3816V6.5643H81.5354V27.3816C81.4236 29.1188 81.9858 30.8322 83.1051 32.1655C83.6824 32.774 84.3874 33.2471 85.1693 33.5508C85.9512 33.8545 86.7906 33.9813 87.6273 33.9221ZM121.787 41.808C119.055 41.8061 116.346 41.3123 113.789 40.3504C111.289 39.4373 109 38.0259 107.062 36.2019L111.621 30.4463C112.963 31.6632 114.506 32.637 116.181 33.3241C117.962 34.0396 119.868 34.3953 121.787 34.3706C122.903 34.4314 124.015 34.1858 125.001 33.6605C125.37 33.4439 125.672 33.1312 125.876 32.7559C126.08 32.3807 126.178 31.9569 126.16 31.5301C126.154 31.0712 126.021 30.6227 125.778 30.2338C125.534 29.8449 125.188 29.5306 124.777 29.3251C123.25 28.4672 121.616 27.8138 119.919 27.3816L117.788 26.821C115.125 26.2456 112.669 24.9533 110.687 23.0836C109.875 22.2349 109.242 21.232 108.825 20.1342C108.408 19.0365 108.215 17.8662 108.258 16.6927C108.274 14.6853 108.899 12.7303 110.052 11.0866C111.272 9.42455 112.928 8.13134 114.836 7.34915C117.07 6.41206 119.477 5.95373 121.899 6.00369C124.461 6.00896 126.998 6.50369 129.374 7.46127C131.71 8.3668 133.872 9.66913 135.765 11.3108L131.056 17.2533C129.753 16.1546 128.307 15.2369 126.758 14.525C125.235 13.7729 123.561 13.3767 121.862 13.3664C120.773 13.2964 119.687 13.5292 118.723 14.0391C118.339 14.2405 118.021 14.549 117.809 14.9271C117.597 15.3052 117.499 15.7367 117.527 16.1694C117.539 16.5853 117.651 16.9921 117.853 17.3561C118.054 17.7201 118.34 18.0308 118.685 18.2624C119.917 19.057 121.285 19.6147 122.722 19.9068L125.3 20.6169C128.275 21.2296 131.012 22.6823 133.186 24.8028C134.706 26.494 135.534 28.6958 135.503 30.9695C135.54 33.0198 134.939 35.0308 133.784 36.7251C132.553 38.3926 130.885 39.6863 128.963 40.4625C126.691 41.4054 124.247 41.8637 121.787 41.808ZM164.095 41.1353L161.89 34.8564H148.958L146.79 41.3221H137.447L150.117 6.75117H161.105L173.588 41.1353H164.095ZM151.163 27.6806H159.348L155.461 15.5714L151.163 27.6806ZM195.879 41.3221V14.3755H185.601V6.90066H215.5V14.3755H205.334V41.3221H195.879ZM235.383 41.9949C232.159 42.0574 228.976 41.2712 226.152 39.715C223.51 38.2087 221.326 36.0126 219.836 33.3615C218.239 30.537 217.426 27.3369 217.481 24.0927C217.444 21.6417 217.875 19.2061 218.752 16.9169C219.596 14.7876 220.868 12.8541 222.489 11.236C224.116 9.62522 226.047 8.35468 228.17 7.49864C232.78 5.74277 237.874 5.74277 242.484 7.49864C244.607 8.35557 246.538 9.626 248.165 11.236C249.787 12.8534 251.059 14.7871 251.903 16.9169C252.883 19.1853 253.416 21.622 253.472 24.0927C253.539 27.3335 252.739 30.5333 251.155 33.3615C249.638 36.0087 247.429 38.1924 244.764 39.6777C241.9 41.2726 238.661 42.0726 235.383 41.9949ZM235.383 34.1837C236.925 34.2174 238.439 33.7736 239.719 32.913C240.994 32.0159 242.002 30.7885 242.634 29.3624C243.383 27.7086 243.754 25.9081 243.718 24.0927C243.747 22.2779 243.377 20.4788 242.634 18.823C242.023 17.3336 241.014 16.0407 239.719 15.0856C238.426 14.2352 236.912 13.782 235.365 13.782C233.817 13.782 232.303 14.2352 231.01 15.0856C229.715 16.0407 228.706 17.3336 228.095 18.823C227.352 20.4788 226.982 22.2779 227.011 24.0927C226.976 25.9081 227.346 27.7086 228.095 29.3624C228.727 30.7885 229.735 32.0159 231.01 32.913C232.305 33.7678 233.833 34.1989 235.383 34.1463V34.1837ZM258.742 41.3221V6.75117H272.383C275.551 6.68493 278.681 7.4449 281.465 8.95623C284.039 10.3853 286.172 12.4922 287.632 15.0482C289.098 17.8108 289.865 20.8905 289.865 24.018C289.865 27.1454 289.098 30.2252 287.632 32.9877C286.172 35.5437 284.039 37.6507 281.465 39.0797C278.681 40.591 275.551 41.351 272.383 41.2848L258.742 41.3221ZM268.048 33.8473H272.383C273.504 33.8913 274.619 33.6705 275.639 33.203C276.658 32.7355 277.553 32.0343 278.251 31.1564C279.759 29.1042 280.524 26.5998 280.419 24.0553C280.524 21.5108 279.759 19.0064 278.251 16.9543C277.553 16.0763 276.658 15.3752 275.639 14.9077C274.619 14.4401 273.504 14.2194 272.383 14.2633H268.048V33.8473ZM317.756 41.3221L315.588 34.8564H302.619L300.451 41.3221H291.108L303.778 6.75117H314.766L327.435 41.3221H317.756ZM305.011 27.8675H313.271L309.197 15.7583L305.011 27.8675ZM345.674 28.8766V41.3221H336.069V28.8766L323.81 6.75117H334.499L340.89 20.6543L347.244 6.93803H357.933L345.674 28.8766Z" fill="#8D9690"/>
</g>
<defs>
<clipPath id="clip0_3231_130846">
<rect width="357.865" height="48" fill="white" transform="translate(0.0673828)"/>
</clipPath>
</defs>
</svg>
