<svg width="12" height="8" viewBox="0 0 12 8" fill="none" xmlns="http://www.w3.org/2000/svg">
<path fill-rule="evenodd" clip-rule="evenodd" d="M11.7316 1.70077C11.9083 1.50906 12.0045 1.25549 11.9999 0.993486C11.9953 0.731483 11.8904 0.481503 11.7071 0.29621C11.5239 0.110918 11.2767 0.00478028 11.0177 0.000157558C10.7586 -0.00446517 10.5079 0.0927896 10.3183 0.27143L6.02498 4.61339L1.73165 0.27143C1.54208 0.0927896 1.29135 -0.00446517 1.03229 0.000157558C0.773217 0.00478028 0.526038 0.110918 0.34282 0.29621C0.159603 0.481503 0.0546535 0.731483 0.0500826 0.993486C0.0455116 1.25549 0.141676 1.50906 0.318316 1.70077L5.31832 6.7574C5.50582 6.94679 5.75998 7.05317 6.02498 7.05317C6.28998 7.05317 6.54415 6.94679 6.73165 6.7574L11.7316 1.70077Z" fill="#F18D7E"/>
</svg>
