<svg width="25" height="25" viewBox="0 0 25 25" fill="none" xmlns="http://www.w3.org/2000/svg">
<g clip-path="url(#clip0_4048_143518)">
<path d="M10.3 0.818115H8.94999L8.04999 4.26812L7.14999 0.818115H5.64999C5.94999 1.71812 6.24999 2.46812 6.54999 3.36812C6.99999 4.56812 7.29999 5.61811 7.29999 6.21811V9.81812H8.64999V6.21811L10.3 0.818115ZM13.9 7.56812V5.31812C13.9 4.56812 13.75 4.11812 13.45 3.66812C13.15 3.21812 12.7 3.06812 12.1 3.06812C11.5 3.06812 11.05 3.36812 10.75 3.81812C10.45 4.11812 10.3 4.56812 10.3 5.31812V7.71811C10.3 8.46811 10.45 8.91811 10.75 9.21811C11.05 9.66811 11.5 9.81812 12.1 9.81812C12.7 9.81812 13.15 9.51812 13.45 9.06812C13.75 8.91812 13.9 8.31812 13.9 7.56812ZM12.7 7.86811C12.7 8.46811 12.55 8.76812 12.1 8.76812C11.65 8.76812 11.5 8.46811 11.5 7.86811V5.01812C11.5 4.41812 11.65 4.11812 12.1 4.11812C12.55 4.11812 12.7 4.41812 12.7 5.01812V7.86811ZM18.4 9.81812V3.06812H17.2V8.16812C16.9 8.61812 16.75 8.76812 16.45 8.76812C16.3 8.76812 16.15 8.61811 16.15 8.46811V3.06812H14.95V8.31812C14.95 8.76812 14.95 9.06812 15.1 9.36811C15.1 9.66811 15.4 9.81812 15.85 9.81812C16.3 9.81812 16.75 9.51812 17.2 9.06812V9.81812H18.4Z" fill="white"/>
<path d="M19 16.5681C18.55 16.5681 18.4 16.8681 18.4 17.4681V18.0681H19.6V17.4681C19.6 16.8681 19.45 16.5681 19 16.5681Z" fill="white"/>
<path d="M14.65 16.5681C14.5 16.5681 14.2 16.7181 14.05 16.8681V20.9181C14.2 21.0681 14.5 21.2181 14.65 21.2181C14.95 21.2181 15.1 20.9181 15.1 20.3181V17.4681C15.1 16.8681 14.95 16.5681 14.65 16.5681Z" fill="white"/>
<path d="M21.9999 13.2681C21.6999 12.2181 20.7999 11.3181 19.8999 11.3181C17.4999 11.0181 14.9499 11.0181 12.3999 11.0181C9.84994 11.0181 7.44994 11.0181 4.89994 11.3181C3.99994 11.3181 3.09994 12.2181 2.79994 13.2681C2.49994 14.7681 2.49994 16.4181 2.49994 17.9181C2.49994 19.4181 2.49994 21.0681 2.79994 22.5681C3.09994 23.6181 3.84994 24.3681 4.89994 24.5181C7.44994 24.8181 9.84994 24.8181 12.3999 24.8181C14.9499 24.8181 17.3499 24.8181 19.8999 24.5181C20.9499 24.3681 21.8499 23.6181 21.9999 22.5681C22.2999 21.0681 22.2999 19.4181 22.2999 17.9181C22.2999 16.4181 22.2999 14.7681 21.9999 13.2681ZM8.19994 14.6181H6.69994V22.2681H5.34994V14.6181H3.99994V13.2681H8.19994V14.6181ZM11.7999 22.2681H10.5999V21.5181C10.1499 22.1181 9.69994 22.2681 9.24994 22.2681C8.79994 22.2681 8.64994 22.1181 8.49994 21.8181C8.49994 21.6681 8.34994 21.3681 8.34994 20.7681V15.5181H9.54994V20.7681C9.54994 20.9181 9.69994 21.0681 9.84994 21.0681C10.1499 21.0681 10.2999 20.9181 10.5999 20.4681V15.5181H11.7999V22.2681ZM16.2999 20.1681C16.2999 20.7681 16.2999 21.2181 16.1499 21.5181C15.9999 21.9681 15.6999 22.2681 15.2499 22.2681C14.7999 22.2681 14.3499 21.9681 14.0499 21.5181V22.1181H12.8499V13.2681H14.0499V16.1181C14.4999 15.6681 14.7999 15.3681 15.2499 15.3681C15.6999 15.3681 15.9999 15.6681 16.1499 16.1181C16.2999 16.4181 16.2999 16.8681 16.2999 17.4681V20.1681ZM20.7999 19.1181H18.3999V20.3181C18.3999 20.9181 18.5499 21.2181 18.9999 21.2181C19.2999 21.2181 19.4499 21.0681 19.5999 20.7681V20.0181H20.7999V20.9181C20.7999 21.2181 20.6499 21.3681 20.4999 21.6681C20.1999 22.1181 19.7499 22.4181 18.9999 22.4181C18.3999 22.4181 17.9499 22.1181 17.4999 21.6681C17.1999 21.3681 17.0499 20.7681 17.0499 20.1681V17.9181C17.0499 17.1681 17.1999 16.7181 17.3499 16.4181C17.6499 15.9681 18.0999 15.6681 18.8499 15.6681C19.4499 15.6681 19.8999 15.9681 20.1999 16.4181C20.4999 16.7181 20.4999 17.3181 20.4999 17.9181V19.1181H20.7999Z" fill="white"/>
</g>
<defs>
<clipPath id="clip0_4048_143518">
<rect width="24" height="24" fill="white" transform="translate(0.399994 0.818115)"/>
</clipPath>
</defs>
</svg>
