<svg width="25" height="24" viewBox="0 0 25 24" fill="none" xmlns="http://www.w3.org/2000/svg">
<g clip-path="url(#clip0_734_33792)">
<path d="M8.95001 0H10.3L8.65001 5.4V9H7.30001V5.4C7.30001 4.8 7.00001 3.75 6.55001 2.55C6.40001 2.1 6.25001 1.6875 6.10001 1.275C5.95001 0.862502 5.80001 0.449999 5.65001 0H7.15001L8.05001 3.45L8.95001 0Z" fill="#394531"/>
<path fill-rule="evenodd" clip-rule="evenodd" d="M13.9 4.5V6.75C13.9 7.5 13.75 8.1 13.45 8.25C13.15 8.7 12.7 9 12.1 9C11.5 9 11.05 8.85 10.75 8.4C10.45 8.1 10.3 7.65 10.3 6.9V4.5C10.3 3.75 10.45 3.3 10.75 3C11.05 2.55 11.5 2.25 12.1 2.25C12.7 2.25 13.15 2.4 13.45 2.85C13.75 3.3 13.9 3.75 13.9 4.5ZM12.1 7.95C12.55 7.95 12.7 7.65 12.7 7.05V4.2C12.7 3.6 12.55 3.3 12.1 3.3C11.65 3.3 11.5 3.6 11.5 4.2V7.05C11.5 7.65 11.65 7.95 12.1 7.95Z" fill="#394531"/>
<path d="M18.4 2.25V9H17.2V8.25C16.75 8.7 16.3 9 15.85 9C15.4 9 15.1 8.85 15.1 8.55C14.95 8.25 14.95 7.95 14.95 7.5V2.25H16.15V7.65C16.15 7.8 16.3 7.95 16.45 7.95C16.75 7.95 16.9 7.8 17.2 7.35V2.25H18.4Z" fill="#394531"/>
<path d="M14.65 15.75C14.5 15.75 14.2 15.9 14.05 16.05V20.1C14.2 20.25 14.5 20.4 14.65 20.4C14.95 20.4 15.1 20.1 15.1 19.5V16.65C15.1 16.05 14.95 15.75 14.65 15.75Z" fill="#394531"/>
<path d="M18.4 16.65C18.4 16.05 18.55 15.75 19 15.75C19.45 15.75 19.6 16.05 19.6 16.65V17.25H18.4V16.65Z" fill="#394531"/>
<path fill-rule="evenodd" clip-rule="evenodd" d="M19.9 10.5C20.8 10.5 21.7 11.4 22 12.45C22.3 13.95 22.3 15.6 22.3 17.1C22.3 18.6 22.3 20.25 22 21.75C21.85 22.8 20.95 23.55 19.9 23.7C17.35 24 14.95 24 12.4 24C9.84998 24 7.44999 24 4.89998 23.7C3.84998 23.55 3.09998 22.8 2.79998 21.75C2.49998 20.25 2.49998 18.6 2.49998 17.1C2.49998 15.6 2.49998 13.95 2.79998 12.45C3.09998 11.4 3.99998 10.5 4.89998 10.5C7.44999 10.2 9.84998 10.2 12.4 10.2C14.95 10.2 17.5 10.2 19.9 10.5ZM6.69998 13.8H8.19998V12.45H3.99998V13.8H5.34998V21.45H6.69998V13.8ZM10.6 21.45H11.8V14.7H10.6V19.65C10.3 20.1 10.15 20.25 9.84999 20.25C9.69999 20.25 9.54998 20.1 9.54998 19.95V14.7H8.34999V19.95C8.34999 20.35 8.41665 20.6167 8.4611 20.7944C8.48332 20.8833 8.49998 20.95 8.49998 21C8.64998 21.3 8.79998 21.45 9.24998 21.45C9.69998 21.45 10.15 21.3 10.6 20.7V21.45ZM16.15 20.7C16.3 20.4 16.3 19.95 16.3 19.35V16.65C16.3 16.05 16.3 15.6 16.15 15.3C16 14.85 15.7 14.55 15.25 14.55C14.8 14.55 14.5 14.85 14.05 15.3V12.45H12.85V21.3H14.05V20.7C14.35 21.15 14.8 21.45 15.25 21.45C15.7 21.45 16 21.15 16.15 20.7ZM18.4 18.3H20.5V17.1C20.5 16.5 20.5 15.9 20.2 15.6C19.9 15.15 19.45 14.85 18.85 14.85C18.1 14.85 17.65 15.15 17.35 15.6C17.2 15.9 17.05 16.35 17.05 17.1V19.35C17.05 19.95 17.2 20.55 17.5 20.85C17.95 21.3 18.4 21.6 19 21.6C19.75 21.6 20.2 21.3 20.5 20.85C20.5402 20.7696 20.5804 20.7 20.6177 20.6354C20.7196 20.4588 20.8 20.3196 20.8 20.1V19.2H19.6V19.95C19.45 20.25 19.3 20.4 19 20.4C18.55 20.4 18.4 20.1 18.4 19.5V18.3Z" fill="#394531"/>
</g>
<defs>
<clipPath id="clip0_734_33792">
<rect width="24" height="24" fill="white" transform="translate(0.400009)"/>
</clipPath>
</defs>
</svg>
