<svg xmlns="http://www.w3.org/2000/svg" width="21" height="20" fill="none" viewBox="0 0 21 20">
  <path fill="#E2E6E7" d="M6.876 16.564a5.68 5.68 0 0 0 3.773-6.661 5.05 5.05 0 0 1 4.702 5.043A5.048 5.048 0 0 1 10.309 20a5.044 5.044 0 0 1-4.683-3.18 5.671 5.671 0 0 0 1.25-.256Z"/>
  <path fill="#E2E6E7" d="M15.974 14.946a5.673 5.673 0 0 0-5.154-5.654 5.038 5.038 0 0 1 6.236-2.926 5.057 5.057 0 0 1 3.238 6.37 5.045 5.045 0 0 1-4.463 3.482 5.74 5.74 0 0 0 .143-1.272Z"/>
  <path fill="#E2E6E7" d="M9.445 2.089A5.033 5.033 0 0 1 16.486.97a5.063 5.063 0 0 1 1.925 5.331 5.66 5.66 0 0 0-8.12 2.637 5.064 5.064 0 0 1-.846-6.85Z"/>
  <path fill="#E2E6E7" d="M4.15.965A5.033 5.033 0 0 1 9.802.778a5.69 5.69 0 0 0-.007 8.556 5.033 5.033 0 0 1-6.76-1.308A5.063 5.063 0 0 1 4.15.966Z"/>
  <path fill="#E2E6E7" d="M.331 12.726A5.064 5.064 0 0 1 1.9 7.28c.165.385.374.758.63 1.112a5.657 5.657 0 0 0 7.486 1.538 5.057 5.057 0 0 1-3.332 6.042 5.039 5.039 0 0 1-6.352-3.245Z"/>
</svg>
