<svg width="24" height="25" viewBox="0 0 24 25" fill="none" xmlns="http://www.w3.org/2000/svg">
<path d="M9.5 3.5C8.23824 3.49963 6.99677 3.8176 5.89053 4.42447C4.7843 5.03134 3.84905 5.90749 3.17137 6.97182C2.49369 8.03615 2.09548 9.25425 2.01361 10.5134C1.93174 11.7725 2.16885 13.0319 2.703 14.175C2.4513 15.2168 2.22424 16.2645 2.022 17.317C1.99122 17.4758 1.99958 17.6397 2.04634 17.7945C2.0931 17.9493 2.17686 18.0904 2.29039 18.2056C2.40391 18.3208 2.54378 18.4067 2.69791 18.4557C2.85204 18.5047 3.01579 18.5154 3.175 18.487C3.798 18.377 5.153 18.127 6.411 17.837C7.43064 18.2968 8.54021 18.5227 9.65846 18.4982C10.7767 18.4737 11.8753 18.1994 12.8738 17.6953C13.8723 17.1913 14.7455 16.4703 15.4293 15.5851C16.1131 14.7 16.5903 13.6731 16.8258 12.5797C17.0614 11.4862 17.0495 10.354 16.7908 9.26577C16.5322 8.17756 16.0334 7.16099 15.3311 6.29048C14.6287 5.41998 13.7405 4.71759 12.7316 4.23476C11.7227 3.75193 10.6185 3.50088 9.5 3.5V3.5ZM9.462 19.5C10.8476 20.7882 12.6701 21.5029 14.562 21.5C15.662 21.5 16.707 21.263 17.65 20.837C18.693 21.081 19.836 21.325 20.563 21.477C20.7677 21.52 20.9799 21.5106 21.18 21.4498C21.3801 21.3891 21.5617 21.2788 21.7079 21.1293C21.8541 20.9798 21.9603 20.7958 22.0166 20.5944C22.0729 20.393 22.0775 20.1807 22.03 19.977C21.868 19.274 21.612 18.182 21.359 17.174C21.8035 16.222 22.043 15.1872 22.0621 14.1367C22.0812 13.0862 21.8795 12.0434 21.47 11.0758C21.0605 10.1082 20.4523 9.23739 19.6849 8.51978C18.9175 7.80216 18.0079 7.25373 17.015 6.91C17.3698 7.55486 17.6388 8.24337 17.815 8.958C18.6582 9.50149 19.3515 10.2479 19.8314 11.1287C20.3113 12.0096 20.5625 12.9969 20.562 14C20.562 14.992 20.322 15.925 19.897 16.747L19.767 17L19.837 17.276C20.065 18.171 20.304 19.176 20.479 19.926C19.705 19.763 18.661 19.536 17.739 19.316L17.475 19.254L17.232 19.375C16.428 19.775 15.522 20 14.562 20C13.54 20.0019 12.5346 19.7416 11.642 19.244C10.9294 19.423 10.1967 19.5091 9.462 19.5V19.5Z" fill="#373D3C"/>
</svg>
