<svg width="16" height="16" viewBox="0 0 16 16" fill="none" xmlns="http://www.w3.org/2000/svg">
<rect width="16" height="16" rx="4" fill="#CFDDC7"/>
<path d="M4.8529 6.55301C4.34821 6.08197 3.55722 6.10924 3.08618 6.61393C2.61514 7.11862 2.64241 7.90961 3.1471 8.38065L4.8529 6.55301ZM12.9491 6.14699C13.3983 5.62283 13.3376 4.8337 12.8135 4.38443C12.2893 3.93515 11.5002 3.99585 11.0509 4.52001L12.9491 6.14699ZM7.42857 10.6668L6.57567 11.5806C6.82474 11.8131 7.1579 11.9338 7.49806 11.9149C7.83823 11.896 8.15592 11.739 8.37764 11.4803L7.42857 10.6668ZM3.1471 8.38065L6.57567 11.5806L8.28147 9.75301L4.8529 6.55301L3.1471 8.38065ZM8.37764 11.4803L12.9491 6.14699L11.0509 4.52001L6.4795 9.85334L8.37764 11.4803Z" fill="#666C63"/>
</svg>
