<svg width="16" height="12" viewBox="0 0 16 12" fill="none" xmlns="http://www.w3.org/2000/svg">
<path d="M2.8529 4.28618C2.34821 3.81514 1.55722 3.84241 1.08618 4.3471C0.615138 4.85179 0.642414 5.64278 1.1471 6.11382L2.8529 4.28618ZM14.9491 2.81349C15.3983 2.28933 15.3376 1.50021 14.8135 1.05093C14.2893 0.601652 13.5002 0.662354 13.0509 1.18651L14.9491 2.81349ZM7.14286 10L6.28996 10.9138C6.53902 11.1463 6.87218 11.267 7.21235 11.2481C7.55251 11.2291 7.87021 11.0722 8.09193 10.8135L7.14286 10ZM1.1471 6.11382L6.28996 10.9138L7.99576 9.08618L2.8529 4.28618L1.1471 6.11382ZM8.09193 10.8135L14.9491 2.81349L13.0509 1.18651L6.19379 9.18651L8.09193 10.8135Z" fill="#666C63"/>
</svg>
