<svg width="24" height="24" viewBox="0 0 24 24" fill="none" xmlns="http://www.w3.org/2000/svg">
<path fill-rule="evenodd" clip-rule="evenodd" d="M20.7803 3.21967C21.0732 3.51256 21.0732 3.98743 20.7803 4.28033L13.0607 12L20.7803 19.7196C21.0732 20.0125 21.0732 20.4874 20.7803 20.7803C20.4874 21.0732 20.0126 21.0732 19.7197 20.7803L12 13.0607L4.28038 20.7803C3.98749 21.0732 3.51262 21.0732 3.21972 20.7803C2.92683 20.4874 2.92683 20.0126 3.21972 19.7197L10.9393 12L3.21967 4.28038C2.92678 3.98749 2.92678 3.51262 3.21967 3.21972C3.51256 2.92683 3.98743 2.92683 4.28033 3.21972L12 10.9393L19.7196 3.21967C20.0125 2.92678 20.4874 2.92678 20.7803 3.21967Z" fill="black"/>
</svg>
