<svg width="16" height="16" viewBox="0 0 16 16" fill="none" xmlns="http://www.w3.org/2000/svg">
<path fill-rule="evenodd" clip-rule="evenodd" d="M13.8535 2.14645C14.0488 2.34171 14.0488 2.65829 13.8535 2.85355L8.70711 8L13.8536 13.1464C14.0488 13.3417 14.0488 13.6583 13.8536 13.8535C13.6583 14.0488 13.3417 14.0488 13.1464 13.8535L8 8.70711L2.85359 13.8536C2.65833 14.0488 2.34175 14.0488 2.14648 13.8536C1.95122 13.6583 1.95122 13.3417 2.14648 13.1464L7.29289 8L2.14645 2.85359C1.95118 2.65833 1.95118 2.34175 2.14645 2.14648C2.34171 1.95122 2.65829 1.95122 2.85355 2.14648L8 7.29289L13.1464 2.14645C13.3417 1.95118 13.6583 1.95118 13.8535 2.14645Z" fill="#394531"/>
</svg>
