<svg width="52" height="34" viewBox="0 0 52 34" fill="none" xmlns="http://www.w3.org/2000/svg">
<path d="M49.7778 20V30C49.7778 31.1046 48.8823 32 47.7778 32H16.9305M49.7778 20V4C49.7778 2.89543 48.8823 2 47.7778 2H16.9305M49.7778 20H16.9305M2 20V4C2 2.89543 2.89543 2 4 2H16.9305M2 20V30C2 31.1046 2.89543 32 4 32H16.9305M2 20H16.9305M16.9305 32V20M16.9305 2V20M16.9305 20L10.9583 26M16.8858 20C16.8858 14 12.4094 6.5 7.93086 11C3.45234 15.5 10.9124 20 16.8858 20ZM16.8858 20C16.8858 14 21.3626 6.5 25.8411 11C30.3196 15.5 22.8592 20 16.8858 20ZM16.8858 20L22.8546 26" stroke="white" stroke-width="3" stroke-linecap="square"/>
</svg>
