<svg width="24" height="24" viewBox="0 0 24 24" fill="none" xmlns="http://www.w3.org/2000/svg">
<path fill-rule="evenodd" clip-rule="evenodd" d="M4.15175 5.08929C4.95528 3.84864 6.20739 3 7.875 3C10.0086 3 11.2808 4.10032 12 5.1934C12.7192 4.10032 13.9914 3 16.125 3C17.7926 3 19.0447 3.84864 19.8483 5.08929C20.6354 6.30472 21 7.89563 21 9.5C21 12.0259 19.4773 14.5824 17.7217 16.5969C15.9549 18.6242 13.8081 20.2671 12.3046 20.9354C12.1107 21.0215 11.8893 21.0215 11.6954 20.9354C10.1919 20.2671 8.04509 18.6242 6.27833 16.5969C4.52269 14.5824 3 12.0259 3 9.5C3 7.89563 3.36455 6.30472 4.15175 5.08929Z" fill="black"/>
</svg>
