<svg width="25" height="25" viewBox="0 0 25 25" fill="none" xmlns="http://www.w3.org/2000/svg">
<path fill-rule="evenodd" clip-rule="evenodd" d="M7.665 1.88412C8.838 1.83012 9.212 1.81812 12.2 1.81812C15.188 1.81812 15.562 1.83112 16.734 1.88412C17.906 1.93712 18.706 2.12412 19.406 2.39512C20.139 2.67212 20.804 3.10512 21.354 3.66512C21.914 4.21412 22.346 4.87812 22.622 5.61212C22.894 6.31212 23.08 7.11212 23.134 8.28212C23.188 9.45712 23.2 9.83112 23.2 12.8181C23.2 15.8061 23.187 16.1801 23.134 17.3531C23.081 18.5231 22.894 19.3231 22.622 20.0231C22.346 20.7572 21.9133 21.4223 21.354 21.9721C20.804 22.5321 20.139 22.9641 19.406 23.2401C18.706 23.5121 17.906 23.6981 16.736 23.7521C15.562 23.8061 15.188 23.8181 12.2 23.8181C9.212 23.8181 8.838 23.8051 7.665 23.7521C6.495 23.6991 5.695 23.5121 4.995 23.2401C4.26092 22.9641 3.59582 22.5314 3.046 21.9721C2.48638 21.4228 2.05331 20.758 1.777 20.0241C1.506 19.3241 1.32 18.5241 1.266 17.3541C1.212 16.1791 1.2 15.8051 1.2 12.8181C1.2 9.83012 1.213 9.45612 1.266 8.28412C1.319 7.11212 1.506 6.31212 1.777 5.61212C2.05372 4.8782 2.48712 4.21343 3.047 3.66412C3.59604 3.10462 4.26047 2.67156 4.994 2.39512C5.694 2.12412 6.494 1.93812 7.664 1.88412H7.665ZM16.645 3.86412C15.485 3.81112 15.137 3.80012 12.2 3.80012C9.263 3.80012 8.915 3.81112 7.755 3.86412C6.682 3.91312 6.1 4.09212 5.712 4.24312C5.199 4.44312 4.832 4.68012 4.447 5.06512C4.08204 5.42017 3.80118 5.8524 3.625 6.33012C3.474 6.71812 3.295 7.30012 3.246 8.37312C3.193 9.53311 3.182 9.88111 3.182 12.8181C3.182 15.7551 3.193 16.1031 3.246 17.2631C3.295 18.3361 3.474 18.9181 3.625 19.3061C3.801 19.7831 4.082 20.2161 4.447 20.5711C4.802 20.9361 5.235 21.2171 5.712 21.3931C6.1 21.5441 6.682 21.7231 7.755 21.7721C8.915 21.8251 9.262 21.8361 12.2 21.8361C15.138 21.8361 15.485 21.8251 16.645 21.7721C17.718 21.7231 18.3 21.5441 18.688 21.3931C19.201 21.1931 19.568 20.9561 19.953 20.5711C20.318 20.2161 20.599 19.7831 20.775 19.3061C20.926 18.9181 21.105 18.3361 21.154 17.2631C21.207 16.1031 21.218 15.7551 21.218 12.8181C21.218 9.88111 21.207 9.53311 21.154 8.37312C21.105 7.30012 20.926 6.71812 20.775 6.33012C20.575 5.81712 20.338 5.45012 19.953 5.06512C19.5979 4.70019 19.1657 4.41933 18.688 4.24312C18.3 4.09212 17.718 3.91312 16.645 3.86412ZM10.795 16.2091C11.5797 16.5357 12.4534 16.5798 13.2669 16.3338C14.0805 16.0878 14.7834 15.567 15.2556 14.8604C15.7278 14.1537 15.9401 13.305 15.856 12.4592C15.772 11.6135 15.397 10.8231 14.795 10.2231C14.4112 9.83959 13.9472 9.54593 13.4363 9.36326C12.9255 9.1806 12.3804 9.11348 11.8405 9.16673C11.3006 9.21999 10.7792 9.39229 10.3138 9.67125C9.84845 9.9502 9.45074 10.3289 9.1493 10.78C8.84786 11.2311 8.65019 11.7434 8.57051 12.2801C8.49084 12.8167 8.53115 13.3644 8.68854 13.8836C8.84592 14.4029 9.11648 14.8807 9.48072 15.2828C9.84496 15.6849 10.2938 16.0013 10.795 16.2091ZM8.202 8.82012C8.72702 8.29509 9.35032 7.87862 10.0363 7.59448C10.7223 7.31034 11.4575 7.16409 12.2 7.16409C12.9425 7.16409 13.6777 7.31033 14.3637 7.59448C15.0497 7.87862 15.673 8.29509 16.198 8.82012C16.723 9.34514 17.1395 9.96844 17.4236 10.6544C17.7078 11.3404 17.854 12.0756 17.854 12.8181C17.854 13.5606 17.7078 14.2958 17.4236 14.9818C17.1395 15.6678 16.723 16.2911 16.198 16.8161C15.1377 17.8765 13.6995 18.4721 12.2 18.4721C10.7005 18.4721 9.26233 17.8765 8.202 16.8161C7.14166 15.7558 6.54597 14.3177 6.54597 12.8181C6.54597 11.3186 7.14166 9.88045 8.202 8.82012ZM19.108 8.00612C19.2381 7.88338 19.3423 7.7358 19.4143 7.57209C19.4863 7.40838 19.5248 7.23188 19.5274 7.05305C19.53 6.87421 19.4967 6.69666 19.4295 6.53093C19.3622 6.36519 19.2624 6.21463 19.136 6.08815C19.0095 5.96168 18.8589 5.86187 18.6932 5.79463C18.5275 5.72739 18.3499 5.69409 18.1711 5.6967C17.9922 5.69931 17.8157 5.73777 17.652 5.80981C17.4883 5.88185 17.3407 5.98601 17.218 6.11612C16.9793 6.36914 16.8486 6.70524 16.8537 7.05305C16.8588 7.40085 16.9992 7.73299 17.2452 7.97896C17.4911 8.22492 17.8233 8.36534 18.1711 8.37041C18.5189 8.37548 18.855 8.2448 19.108 8.00612Z" fill="white"/>
</svg>
