<svg width="25" height="25" viewBox="0 0 25 25" fill="none" xmlns="http://www.w3.org/2000/svg">
<path d="M4.5 14.499L13.5 14.5C14.0046 14.4998 14.4906 14.6904 14.8605 15.0335C15.2305 15.3766 15.4572 15.8468 15.495 16.35L15.5 16.5V18C15.499 21.5 11.784 22.5 9 22.5C6.278 22.5 2.665 21.544 2.505 18.23L2.5 18V16.499C2.5 15.445 3.316 14.581 4.35 14.504L4.5 14.5V14.499ZM9 3.5C10.1935 3.5 11.3381 3.97411 12.182 4.81802C13.0259 5.66193 13.5 6.80653 13.5 8C13.5 9.19347 13.0259 10.3381 12.182 11.182C11.3381 12.0259 10.1935 12.5 9 12.5C7.80653 12.5 6.66193 12.0259 5.81802 11.182C4.97411 10.3381 4.5 9.19347 4.5 8C4.5 6.80653 4.97411 5.66193 5.81802 4.81802C6.66193 3.97411 7.80653 3.5 9 3.5Z" fill="#DC3545"/>
<path d="M16.4697 13.4697C16.1768 13.7626 16.1768 14.2374 16.4697 14.5303C16.7626 14.8232 17.2374 14.8232 17.5303 14.5303L19.25 12.8107L21.0659 14.6265C21.3588 14.9194 21.8336 14.9194 22.1265 14.6265C22.4194 14.3336 22.4194 13.8588 22.1265 13.5659L20.3107 11.75L22.1265 9.93414C22.4194 9.64125 22.4194 9.16637 22.1265 8.87348C21.8336 8.58059 21.3588 8.58059 21.0659 8.87348L19.25 10.6893L17.5303 8.96967C17.2374 8.67678 16.7626 8.67678 16.4697 8.96967C16.1768 9.26257 16.1768 9.73744 16.4697 10.0303L18.1893 11.75L16.4697 13.4697Z" fill="#DC3545"/>
</svg>
