<svg width="16" height="16" viewBox="0 0 16 16" fill="none" xmlns="http://www.w3.org/2000/svg">
<path d="M11 12.5V3.49999C11 2.67157 11.6716 1.99999 12.5 1.99999C13.3284 1.99999 14 2.67157 14 3.49999L14 12.5C14 13.3284 13.3284 14 12.5 14C11.6716 14 11 13.3284 11 12.5ZM11 12.5C11 13.3284 10.3284 14 9.5 14C8.67157 14 8 13.3284 8 12.5M8 12.5V6.49999C8 5.67157 8.67157 4.99999 9.5 4.99999C10.3284 4.99999 11 5.67157 11 6.49999M8 12.5C8 13.3284 7.32842 14 6.5 14C5.67157 14 5 13.3284 5 12.5M5 12.5V9.49999C5 8.67157 5.67157 7.99999 6.5 7.99999C7.32843 7.99999 8 8.67157 8 9.49999M5 12.5C5 13.3284 4.32842 14 3.5 14C2.67157 14 2 13.3284 2 12.5C2 11.6716 2.67157 11 3.5 11C4.32843 11 5 11.6716 5 12.5Z" stroke="#626C6A" stroke-width="1.5" stroke-linecap="square" stroke-linejoin="round"/>
</svg>
