<svg width="475" height="537" viewBox="0 0 475 537" fill="none" xmlns="http://www.w3.org/2000/svg">
 
<g id="circles" fill="#CFDDC7">  
<circle id="1" opacity="0.2" cx="238" cy="303" r="40"/>
<circle id="2" opacity="0.2" cx="238" cy="283" r="80"/>
<circle id="3" opacity="0.2" cx="238" cy="263" r="120"/>
<circle id="4" opacity="0.2" cx="238" cy="243" r="160"/>
<circle id="5" opacity="0.2" cx="238" cy="203" r="200"/>
</g>
  
<path d="M227.344 411.198L227.217 411.682L227.344 411.198ZM300.142 409.702L300.336 409.241L300.142 409.702ZM287.676 438.13L287.774 437.639L287.676 438.13ZM188.451 438.13L188.6 438.607L188.6 438.607L188.451 438.13ZM232.33 176.795L231.941 177.11L231.941 177.11L232.33 176.795ZM243.798 94.0056L243.79 94.5055L243.798 94.0056ZM276.707 142.881L276.225 142.746L276.707 142.881ZM318.092 438.13L318.045 437.632L318.092 438.13ZM166.391 390.254L166.34 390.752L166.391 390.254ZM298.792 437.013L298.591 436.555L298.792 437.013ZM227.217 411.682C238.682 414.673 247.238 416.693 257.31 415.686L257.211 414.69C247.338 415.678 238.942 413.708 227.47 410.714L227.217 411.682ZM257.31 415.686C259.839 415.433 263.23 414.719 267.006 413.861C270.795 413.001 274.983 411.991 279.148 411.131C283.311 410.271 287.428 409.565 291.06 409.309C294.708 409.053 297.797 409.257 299.948 410.163L300.336 409.241C297.96 408.241 294.674 408.053 290.99 408.312C287.292 408.572 283.124 409.289 278.945 410.152C274.768 411.015 270.556 412.029 266.784 412.886C263 413.746 259.668 414.445 257.211 414.69L257.31 415.686ZM299.948 410.163C304.608 412.125 306.594 414.289 307.465 416.61C307.906 417.787 308.073 419.037 308.126 420.382C308.181 421.743 308.118 423.136 308.118 424.664H309.118C309.118 423.2 309.181 421.725 309.126 420.342C309.07 418.944 308.895 417.576 308.401 416.259C307.402 413.594 305.149 411.268 300.336 409.241L299.948 410.163ZM287.774 437.639C281.53 436.39 265.924 433.518 247.256 432.394C228.597 431.27 206.836 431.89 188.303 437.652L188.6 438.607C206.964 432.898 228.584 432.271 247.196 433.392C265.8 434.512 281.357 437.375 287.578 438.62L287.774 437.639ZM188.303 437.652C174.192 442.039 154.953 442.667 136.808 439.577C118.651 436.486 101.7 429.692 92.086 419.336L91.3531 420.017C101.186 430.608 118.395 437.457 136.64 440.563C154.897 443.671 174.301 443.052 188.6 438.607L188.303 437.652ZM92.086 419.336C87.2807 414.16 84.9759 409.086 84.567 404.368C84.1584 399.652 85.6381 395.236 88.5065 391.359C94.2571 383.588 105.575 378.022 118.195 376.785L118.097 375.789C105.288 377.046 93.6695 382.701 87.7026 390.764C84.7122 394.806 83.1379 399.46 83.5707 404.454C84.0032 409.445 86.4353 414.719 91.3531 420.017L92.086 419.336ZM118.195 376.785C124.521 376.164 132.033 376.226 139.943 376.265C147.84 376.304 156.122 376.32 163.94 375.6C179.536 374.165 193.535 369.782 198.887 356.525L197.96 356.151C192.842 368.827 179.416 373.172 163.849 374.605C156.086 375.319 147.851 375.304 139.948 375.265C132.057 375.226 124.486 375.163 118.097 375.789L118.195 376.785ZM198.887 356.525C204.138 343.52 214.743 308.325 220.544 274.693C223.445 257.879 225.15 241.423 224.376 228.314C223.989 221.76 222.98 216.014 221.173 211.47C219.366 206.923 216.742 203.536 213.101 201.78L212.667 202.68C216.006 204.291 218.493 207.433 220.244 211.839C221.996 216.246 222.994 221.874 223.378 228.373C224.145 241.369 222.454 257.736 219.559 274.523C213.767 308.096 203.18 343.222 197.96 356.151L198.887 356.525ZM213.101 201.78C205.993 198.352 199.489 198.472 193.672 200.808C187.876 203.135 182.794 207.646 178.466 212.948C169.811 223.55 164.053 237.454 161.558 243.944L162.491 244.303C164.982 237.825 170.693 224.05 179.24 213.581C183.513 208.347 188.466 203.975 194.045 201.736C199.602 199.504 205.813 199.375 212.667 202.68L213.101 201.78ZM161.558 243.944C159.046 250.476 154.178 269.717 151.371 288.249C149.967 297.517 149.074 306.637 149.254 313.919C149.344 317.559 149.703 320.763 150.411 323.305C151.115 325.834 152.188 327.793 153.774 328.828L154.32 327.99C153.039 327.154 152.055 325.482 151.374 323.037C150.697 320.606 150.343 317.494 150.254 313.894C150.076 306.698 150.959 297.645 152.36 288.398C155.162 269.899 160.017 250.738 162.491 244.303L161.558 243.944ZM153.774 328.828C155.336 329.847 157.729 330.25 160.652 330.201C163.594 330.153 167.155 329.645 171.124 328.764C179.063 327.003 188.691 323.734 198.372 319.579C208.053 315.425 217.802 310.378 225.98 305.052C234.145 299.736 240.794 294.109 244.219 288.781L243.377 288.24C240.071 293.385 233.569 298.917 225.435 304.214C217.314 309.503 207.617 314.524 197.977 318.661C188.336 322.798 178.768 326.044 170.907 327.788C166.975 328.661 163.486 329.155 160.636 329.202C157.766 329.249 155.625 328.841 154.32 327.99L153.774 328.828ZM244.219 288.781C251.003 278.225 254.516 265.17 254.956 254.68C255.175 249.438 254.629 244.794 253.309 241.409C251.991 238.029 249.841 235.782 246.812 235.644L246.767 236.643C249.223 236.755 251.125 238.56 252.377 241.772C253.628 244.98 254.173 249.469 253.956 254.638C253.523 264.97 250.056 277.849 243.377 288.24L244.219 288.781ZM246.812 235.644C245.265 235.574 243.837 236.265 242.587 237.472C241.34 238.676 240.242 240.417 239.327 242.53C237.495 246.758 236.349 252.577 236.255 258.891C236.067 271.501 240.076 286.288 251.486 294.404L252.066 293.589C241.038 285.745 237.069 271.357 237.255 258.906C237.348 252.689 238.477 247.006 240.244 242.927C241.129 240.887 242.162 239.273 243.282 238.191C244.398 237.113 245.572 236.589 246.767 236.643L246.812 235.644ZM251.486 294.404C262.71 302.387 279.685 313.873 295.732 322.367C303.754 326.613 311.564 330.122 318.32 332.069C325.043 334.006 330.856 334.436 334.782 332.341L334.311 331.459C330.758 333.354 325.289 333.036 318.597 331.108C311.937 329.189 304.196 325.716 296.2 321.483C280.211 313.021 263.279 301.565 252.066 293.589L251.486 294.404ZM334.782 332.341C336.819 331.254 338.247 329.018 339.208 326.046C340.172 323.062 340.694 319.255 340.858 314.9C341.187 306.185 340.091 295.175 338.156 283.937C336.22 272.695 333.441 261.202 330.396 251.517C327.357 241.852 324.033 233.923 320.985 229.859L320.185 230.459C323.121 234.374 326.404 242.156 329.442 251.817C332.473 261.457 335.242 272.906 337.17 284.107C339.099 295.311 340.184 306.245 339.859 314.862C339.696 319.172 339.181 322.877 338.256 325.738C337.328 328.61 336.013 330.551 334.311 331.459L334.782 332.341ZM320.985 229.859C317.921 225.773 311.919 221.757 304.461 217.704C296.985 213.642 287.96 209.499 278.784 205.188C269.6 200.873 260.259 196.386 252.116 191.624C243.967 186.858 237.061 181.841 232.718 176.48L231.941 177.11C236.401 182.614 243.433 187.704 251.611 192.488C259.797 197.275 269.176 201.779 278.359 206.093C287.551 210.412 296.541 214.539 303.984 218.583C311.445 222.637 317.266 226.566 320.185 230.459L320.985 229.859ZM232.718 176.48C221.069 162.102 213.763 141.361 214.443 124.333C214.783 115.824 217.114 108.292 221.837 102.935C226.546 97.5912 233.688 94.3476 243.79 94.5055L243.806 93.5056C233.464 93.344 226.022 96.6735 221.086 102.273C216.163 107.859 213.789 115.641 213.444 124.293C212.753 141.588 220.155 162.562 231.941 177.11L232.718 176.48ZM243.79 94.5055C259.615 94.7528 269.399 100.677 274.402 109.525C279.423 118.406 279.696 130.35 276.225 142.746L277.188 143.016C280.699 130.476 280.473 118.231 275.272 109.033C270.053 99.8025 259.892 93.757 243.806 93.5056L243.79 94.5055ZM276.225 142.746C274.519 148.841 270.742 154.807 266.847 159.871C262.947 164.941 258.985 169.041 256.882 171.481L257.639 172.134C259.691 169.753 263.72 165.576 267.639 160.481C271.562 155.381 275.431 149.294 277.188 143.016L276.225 142.746ZM353.251 395.807C340.224 388.039 329.543 385.264 319.657 385.138C309.788 385.012 300.745 387.529 291.031 390.269L291.302 391.231C301.035 388.486 309.942 386.015 319.644 386.138C329.328 386.262 339.839 388.973 352.739 396.666L353.251 395.807ZM291.031 390.269C281.311 393.011 272.723 395.252 265.573 396.744C258.411 398.239 252.733 398.974 248.815 398.73L248.753 399.728C252.814 399.981 258.604 399.22 265.777 397.723C272.962 396.223 281.576 393.975 291.302 391.231L291.031 390.269ZM248.815 398.73C246.928 398.612 245.041 397.872 243.126 396.783C241.209 395.695 239.302 394.28 237.365 392.842C235.438 391.412 233.481 389.959 231.502 388.835C229.522 387.71 227.482 386.891 225.38 386.76L225.318 387.758C227.205 387.876 229.092 388.616 231.008 389.704C232.924 390.793 234.831 392.207 236.769 393.645C238.695 395.075 240.653 396.528 242.632 397.653C244.612 398.778 246.652 399.596 248.753 399.728L248.815 398.73ZM225.38 386.76C221.292 386.504 218.475 387.403 216.204 388.223C213.903 389.054 212.325 389.721 210.512 389.268L210.269 390.238C212.445 390.782 214.358 389.953 216.544 389.163C218.761 388.362 221.428 387.515 225.318 387.758L225.38 386.76ZM210.512 389.268C210.089 389.162 209.542 388.898 208.865 388.483C208.196 388.072 207.432 387.533 206.582 386.904C204.896 385.656 202.86 384.048 200.644 382.486C196.214 379.366 190.865 376.286 185.46 376.286V377.286C190.525 377.286 195.647 380.19 200.068 383.304C202.277 384.86 204.262 386.431 205.987 387.708C206.844 388.341 207.635 388.901 208.342 389.335C209.042 389.765 209.695 390.094 210.269 390.238L210.512 389.268ZM318.139 438.627C336.604 436.88 355.734 433.508 369.951 427.682C377.058 424.77 382.976 421.229 386.964 416.939C390.965 412.635 393.026 407.57 392.385 401.668L391.39 401.776C391.996 407.345 390.068 412.131 386.231 416.258C382.382 420.399 376.613 423.872 369.572 426.757C355.492 432.527 336.477 435.888 318.045 437.632L318.139 438.627ZM392.385 401.668C391.114 389.972 383.727 382.865 374.71 378.64C365.71 374.421 355.036 373.045 347.028 372.795L346.996 373.794C354.943 374.043 365.461 375.409 374.286 379.545C383.095 383.673 390.168 390.531 391.39 401.776L392.385 401.668ZM347.028 372.795C338.974 372.543 329.101 373.293 319.292 371.741C309.525 370.195 299.934 366.372 292.556 357.025L291.771 357.645C299.352 367.25 309.208 371.157 319.136 372.729C329.022 374.293 339.094 373.547 346.996 373.794L347.028 372.795ZM185.46 376.286C180.592 376.286 176.171 378.477 172.753 381.27C169.341 384.059 166.869 387.496 165.921 390.082L166.86 390.426C167.732 388.046 170.077 384.749 173.386 382.045C176.689 379.345 180.893 377.286 185.46 377.286V376.286ZM140.793 394.197C148.592 390.616 157.378 389.85 166.34 390.752L166.441 389.757C157.365 388.844 148.387 389.61 140.375 393.288L140.793 394.197ZM166.34 390.752C179.104 392.036 192.165 396.694 203.12 401.325C208.595 403.64 213.532 405.942 217.643 407.81C221.735 409.669 225.045 411.115 227.217 411.682L227.47 410.714C225.399 410.174 222.177 408.771 218.057 406.899C213.956 405.036 209.001 402.725 203.509 400.404C192.529 395.762 179.357 391.056 166.441 389.757L166.34 390.752ZM298.718 437.508C306.329 438.658 312.98 439.116 318.139 438.627L318.045 437.632C313.005 438.109 306.446 437.664 298.867 436.519L298.718 437.508ZM308.118 424.664C308.118 426.502 307.25 428.814 305.599 431.015C303.956 433.208 301.566 435.249 298.591 436.555L298.993 437.471C302.136 436.09 304.66 433.936 306.4 431.615C308.133 429.303 309.118 426.784 309.118 424.664H308.118ZM298.591 436.555C295.55 437.891 291.891 438.463 287.774 437.639L287.578 438.62C291.904 439.485 295.771 438.886 298.993 437.471L298.591 436.555Z" fill="#394531"/>
  
  
  
<animateTransform 
           xlink:href="#circles"
           attributeName="transform" 
           attributeType="XML"
           type="translate"
           dur="4.8s"
           values="0 60; 0 0; 0 60"
           keyTimes="0; 0.75; 1"       
           repeatCount="indefinite"
  />
  <animate
           xlink:href="#circles"
           attributeName="opacity" 
           dur="4.8s"
           values="0; 1; 1; 0"
           keyTimes="0; 0.15; 0.75; 1"
           repeatCount="indefinite"
  />
  
  
  <animate
           xlink:href="#1"
           attributeName="r" 
           dur="4.8s"
           values="0; 40; 40; 0"
           keyTimes="0; 0.15; 0.75; 1"
           repeatCount="indefinite"
  />

  <animate
           xlink:href="#2"
           attributeName="r" 
           dur="4.8s"
           values="0; 0; 80; 80; 0"
           keyTimes="0; 0.15; 0.30; 0.75; 1"
           repeatCount="indefinite"
  />  
  <animate
           xlink:href="#2"
           attributeName="cy" 
           dur="4.8s"
           values="303; 303; 283; 283; 303"
           keyTimes="0; 0.15; 0.30; 0.75; 1"
           repeatCount="indefinite"
  />  
  
  <animate
           xlink:href="#3"
           attributeName="r" 
           dur="4.8s"
           values="0; 0; 120; 120; 0"
           keyTimes="0; 0.3; 0.45; 0.75; 1"
           repeatCount="indefinite"
  />  
  <animate
           xlink:href="#3"
           attributeName="cy" 
           dur="4.8s"
           values="303; 303; 263; 263; 303"
           keyTimes="0; 0.3; 0.45; 0.75; 1"
           repeatCount="indefinite"
  />   

<animate
           xlink:href="#4"
           attributeName="r" 
           dur="4.8s"
           values="0; 0; 160; 160; 0"
           keyTimes="0; 0.45; 0.6; 0.75; 1"
           repeatCount="indefinite"
  />  
  <animate
           xlink:href="#4"
           attributeName="cy" 
           dur="4.8s"
           values="303; 303; 243; 243; 303"
           keyTimes="0; 0.45; 0.6; 0.75; 1"
           repeatCount="indefinite"
  />     
 
 <animate
           xlink:href="#5"
           attributeName="r" 
           dur="4.8s"
           values="0; 0; 200; 0"
           keyTimes="0; 0.6; 0.75; 1"
           repeatCount="indefinite"
  />  
  <animate
           xlink:href="#5"
           attributeName="cy" 
           dur="4.8s"
           values="303; 303; 203; 303"
           keyTimes="0; 0.6; 0.75; 1"
           repeatCount="indefinite"
  />  
  
</svg>