<svg width="200" height="57" xmlns="http://www.w3.org/2000/svg" viewBox="0 0 429.45 92.69"><defs><style>.cls-1{fill:#404040;}</style></defs><g id="Layer_2" data-name="Layer 2"><g id="Layer_1-2" data-name="Layer 1"><path class="cls-1" d="M59.94,25.42a24.53,24.53,0,0,1,8.62-1.57,24.81,24.81,0,0,1,13.42,4A22.88,22.88,0,0,0,43.82,6.36l0,0-.22.24a26.83,26.83,0,0,0-4.49,6.14A23.1,23.1,0,0,0,37,19.29,22.84,22.84,0,0,0,39.7,34a26.18,26.18,0,0,0,5.6,6.68A24.4,24.4,0,0,1,59.94,25.42"/><path class="cls-1" d="M53,43.15h.35a24.45,24.45,0,0,1,14.83,8.26,24.81,24.81,0,0,1,3.72,5.84c.23.5.45,1,.65,1.52A22.94,22.94,0,0,1,74,65.59a23.7,23.7,0,0,1-.54,7.19A22.82,22.82,0,0,0,91.92,42a22.75,22.75,0,0,0-7.31-9.93v0l-.46-.34-.21-.16a22.92,22.92,0,0,0-33.42,7.25,23.41,23.41,0,0,0-1.77,4.06h.77a25.3,25.3,0,0,1,3.47.24"/><path class="cls-1" d="M48.33,92.69a22.92,22.92,0,0,0,14.88-5.5,22.64,22.64,0,0,0,7.37-12,26.12,26.12,0,0,0,.57-7A22.87,22.87,0,0,0,51.78,47.15l-.12,0h0l-.12,0a24.52,24.52,0,0,0-3.21-.22h-.74A24.46,24.46,0,0,1,28,80.3h0A22.88,22.88,0,0,0,48.33,92.69"/><path class="cls-1" d="M25.63,78.54h.11l.12,0h0a22.77,22.77,0,0,0,17-11.45,23.1,23.1,0,0,0,1.33-19.74,24.14,24.14,0,0,1-4.25,3.09,24.42,24.42,0,0,1-12.16,3.25c-.71,0-1.47,0-2.32-.1a23.75,23.75,0,0,1-9.85-3.09,23.31,23.31,0,0,1-2.18-1.42,24.42,24.42,0,0,1-6.37-6.77A20.86,20.86,0,0,1,6,40.39a22.13,22.13,0,0,0-3,4.13A22.92,22.92,0,0,0,22.89,78.71c.57,0,1.18,0,1.85-.09.25,0,.52,0,.83-.07h.06Z"/><path class="cls-1" d="M26.87,3.86A22.52,22.52,0,0,0,12.25,9.32,23,23,0,0,0,7.73,39.07a24,24,0,0,0,6,6.34,22.72,22.72,0,0,0,9.75,4c.6.1,1.08.16,1.5.2.65.06,1.34.09,2,.09a23.22,23.22,0,0,0,11.5-3,22.26,22.26,0,0,0,4.11-3,27.13,27.13,0,0,1-6.19-7.33,23.79,23.79,0,0,1-3.19-11.88,24.49,24.49,0,0,1,.3-3.85c0-.28.08-.53.13-.77a21.47,21.47,0,0,1,2.09-6.21,24.23,24.23,0,0,1,4.13-5.9A23.38,23.38,0,0,0,30.72,4.2a21.37,21.37,0,0,0-3.85-.34"/><path class="cls-1" d="M141.84,26.92h-2.9l-.13.34L128,55.93,117.22,27.26l-.13-.34h-3.73l.28.71L126.15,60.8l-1.48,3.9c-1.84,4.92-4.87,6.68-10.14,5.9l-.61-.1v3.32l.44.09c6.35,1.18,11.17-1.65,13.57-8l14.4-38.29.27-.71Z"/><path class="cls-1" d="M160.85,26.07c-9.49,0-17.21,8.16-17.21,18.18s7.72,17.92,17.21,17.92,17.27-8,17.27-17.92S170.37,26.07,160.85,26.07Zm0,32.77c-7.58,0-13.75-6.54-13.75-14.59s6.17-14.85,13.75-14.85,13.75,6.66,13.75,14.85S168.43,58.84,160.85,58.84Z"/><path class="cls-1" d="M215.77,26.92h-2.93v6.43a16.12,16.12,0,0,0-13.69-7.28c-9.48,0-17.2,8.16-17.2,18.18s7.72,18,17.2,18A16.18,16.18,0,0,0,212.84,55v5c0,8.7-5.32,14.33-13.56,14.33-6.15,0-10.72-3-12.55-8.21l-.11-.36H183l.19.68c2.08,7.1,8.09,11.35,16.08,11.35,10.18,0,17-7.15,17-17.79v-33Zm-16.62,2.67c7.93,0,13.69,6.17,13.69,14.66s-5.76,14.46-13.69,14.46c-7.58,0-13.74-6.48-13.74-14.46S191.57,29.59,199.15,29.59Z"/><path class="cls-1" d="M252.47,60.67a17.19,17.19,0,0,1-.94-5.26V36.53c0-6.64-5-10.46-13.7-10.46-7.68,0-13,3.58-14.53,9.81l-.16.65h3.52l.12-.36c1.38-4.39,5.2-6.7,11.05-6.7,4.67,0,10.24,1.22,10.24,7.06,0,3.64-4.69,4.36-11.85,5-6.83.63-14.69,2.38-14.69,10.52,0,6.78,6.57,9.88,12.66,9.88,5.94,0,10.91-1.88,13.91-5.19a11.19,11.19,0,0,0,.94,4.3l.14.3h3.58Zm-4.4-11.94c0,6.76-7,9.79-13.88,9.79-3.11,0-9-1.36-9-6.48,0-3.65,1.94-6.27,11.4-7.2,4.06-.34,8.6-.74,11.49-2.71Z"/><polygon class="cls-1" points="299.98 26.9 297.45 26.9 297.06 26.9 296.95 27.27 288.5 55.07 280.05 27.27 279.94 26.9 279.54 26.9 276.95 26.9 276.56 26.9 276.44 27.27 268 55.07 259.54 27.27 259.43 26.9 259.04 26.9 256.51 26.9 255.79 26.9 256 27.58 266.19 61 266.3 61.37 266.69 61.37 269.29 61.37 269.68 61.37 269.79 61 278.24 33.2 286.7 61 286.81 61.37 287.2 61.37 289.8 61.37 290.19 61.37 290.3 61 300.49 27.58 300.69 26.9 299.98 26.9"/><path class="cls-1" d="M319.19,26.06c-9.49,0-17.2,8.15-17.2,18.17s7.71,17.92,17.2,17.92,17.27-8,17.27-17.92S328.71,26.06,319.19,26.06Zm0,32.77c-7.58,0-13.75-6.55-13.75-14.6s6.17-14.85,13.75-14.85,13.75,6.67,13.75,14.85S326.77,58.83,319.19,58.83Z"/><path class="cls-1" d="M357.39,26.19a14.71,14.71,0,0,0-11.77,3.44,10.59,10.59,0,0,0-1.33,1.53V26.9h-3.52V61.37h3.52V40.67a11.3,11.3,0,0,1,3.53-8.5c2.17-2.11,5.53-3.07,9.46-2.73l.58.06V26.24Z"/><polygon class="cls-1" points="391.14 60.55 377.11 39.7 389.44 27.81 390.39 26.9 389.08 26.9 385.64 26.9 385.43 26.9 385.27 27.05 366.57 45.13 366.57 12.57 366.57 12.04 366.04 12.04 363.64 12.04 363.11 12.04 363.11 12.57 363.11 60.85 363.11 61.37 363.64 61.37 366.04 61.37 366.57 61.37 366.57 60.85 366.57 49.91 374.58 42.2 387.34 61.14 387.5 61.37 387.78 61.37 390.7 61.37 391.69 61.37 391.14 60.55"/><path class="cls-1" d="M408.1,41.24c-8-1.12-10.46-2.42-10.51-5.58a4.84,4.84,0,0,1,1.48-3.5c1.74-1.77,4.74-2.78,8.25-2.78,5.63,0,9.32,2.32,10.65,6.7l.12.38h3.52l-.16-.65c-1.48-6.29-6.53-9.75-14.2-9.75-8.66,0-13.18,4.83-13.18,9.61.13,7,7.44,8.07,13.32,8.93l.17,0c7.92,1.13,11.05,3,11.17,6.82a5.46,5.46,0,0,1-1.48,4.23c-1.93,2-5.2,3.15-9,3.15-7,0-11.44-2.78-12.53-7.83l-.09-.41h-3.45l.1.61c1.11,6.86,7.1,10.95,16,10.95,4.75,0,8.91-1.47,11.41-4a9.34,9.34,0,0,0,2.49-6.75C421.9,44.28,415.25,42.32,408.1,41.24Z"/><path class="cls-1" d="M425.27,30.12h.46c.52,0,1-.19,1-.68s-.26-.69-1-.69l-.46,0Zm0,2.2h-.63v-4a6.73,6.73,0,0,1,1.12-.1,2,2,0,0,1,1.23.31.91.91,0,0,1,.37.82,1,1,0,0,1-.78,1v0c.35.07.59.39.67,1a3.25,3.25,0,0,0,.25,1h-.66a2.85,2.85,0,0,1-.27-1,.75.75,0,0,0-.86-.7h-.44Zm.66-5.08a3,3,0,0,0,0,6,3,3,0,0,0,0-6Zm0-.55a3.57,3.57,0,1,1-3.55,3.56A3.51,3.51,0,0,1,426,26.69Z"/></g></g></svg>
