<svg width="24" height="24" viewBox="0 0 24 24" fill="none" xmlns="http://www.w3.org/2000/svg">
<path fill-rule="evenodd" clip-rule="evenodd" d="M11.5 4.5C7.63401 4.5 4.5 7.63401 4.5 11.5C4.5 15.366 7.63401 18.5 11.5 18.5C15.366 18.5 18.5 15.366 18.5 11.5C18.5 7.63401 15.366 4.5 11.5 4.5ZM3 11.5C3 6.80558 6.80558 3 11.5 3C16.1944 3 20 6.80558 20 11.5C20 13.5772 19.2549 15.4803 18.0174 16.9568L20.7803 19.7197C21.0732 20.0126 21.0732 20.4874 20.7803 20.7803C20.4874 21.0732 20.0126 21.0732 19.7197 20.7803L16.9568 18.0174C15.4803 19.2549 13.5772 20 11.5 20C6.80558 20 3 16.1944 3 11.5Z" fill="black"/>
</svg>
