<svg width="24" height="25" viewBox="0 0 24 25" fill="none" xmlns="http://www.w3.org/2000/svg">
<path d="M5.43314 16.6776L6.53722 15.5664C6.19338 14.8675 6.00015 14.081 6.00015 13.25V12.5C6.00015 12.3011 5.92113 12.1103 5.78048 11.9697C5.63983 11.829 5.44906 11.75 5.25015 11.75C5.05124 11.75 4.86047 11.829 4.71982 11.9697C4.57917 12.1103 4.50015 12.3011 4.50015 12.5V13.25C4.49835 14.4639 4.82483 15.6465 5.43314 16.6776Z" fill="#373D3C"/>
<path fill-rule="evenodd" clip-rule="evenodd" d="M9.89059 16.4764L8.59435 17.7811C9.39868 18.2531 10.3156 18.5019 11.2501 18.5H12.7501C14.1425 18.5 15.4779 17.9469 16.4624 16.9623C17.447 15.9777 18.0001 14.6424 18.0001 13.25V12.5C18.0001 12.3011 18.0791 12.1103 18.2198 11.9697C18.3605 11.829 18.5513 11.75 18.7502 11.75C18.9491 11.75 19.1399 11.829 19.2805 11.9697C19.4212 12.1103 19.5002 12.3011 19.5002 12.5V13.25C19.5002 15.0402 18.789 16.7571 17.5231 18.023C16.2572 19.2888 14.5403 20 12.7501 20V21.5H14.2501C14.449 21.5 14.6398 21.579 14.7805 21.7197C14.9211 21.8603 15.0001 22.0511 15.0001 22.25C15.0001 22.4489 14.9211 22.6397 14.7805 22.7803C14.6398 22.921 14.449 23 14.2501 23H9.75017C9.55125 23 9.36049 22.921 9.21984 22.7803C9.07918 22.6397 9.00017 22.4489 9.00017 22.25C9.00017 22.0511 9.07918 21.8603 9.21984 21.7197C9.36049 21.579 9.55125 21.5 9.75017 21.5H11.2501V20C9.86732 20 8.58136 19.585 7.51174 18.8707L4.15788 22.25C4.01703 22.3873 3.82786 22.4638 3.63114 22.463C3.43442 22.4622 3.2459 22.3841 3.1062 22.2456C2.96651 22.1071 2.88683 21.9192 2.88434 21.7225C2.88185 21.5258 2.95674 21.336 3.09288 21.194L18.4352 5.74541C18.576 5.60807 18.7653 5.53157 18.962 5.53239C19.1587 5.53321 19.3472 5.6113 19.4869 5.74981C19.6266 5.88832 19.7063 6.07618 19.7088 6.27288C19.7113 6.46959 19.6364 6.6594 19.5003 6.80141L16.5001 9.82421V12.5C16.5004 13.2893 16.2931 14.0648 15.8989 14.7487C15.5048 15.4325 14.9377 16.0007 14.2546 16.3961C13.5714 16.7916 12.7963 17.0004 12.007 17.0016C11.2684 17.0027 10.5417 16.822 9.89059 16.4764Z" fill="#373D3C"/>
<path d="M15.1821 3.31802C15.8169 3.95279 16.2424 4.75768 16.4144 5.62552L7.85048 14.2447C7.62008 13.6967 7.49914 13.1039 7.50017 12.5V6.5C7.50017 5.30653 7.97427 4.16193 8.81819 3.31802C9.6621 2.47411 10.8067 2 12.0001 2C13.1936 2 14.3382 2.47411 15.1821 3.31802Z" fill="#373D3C"/>
</svg>
