<svg width="1281" height="64" viewBox="0 0 1281 64" fill="none" xmlns="http://www.w3.org/2000/svg">
<g clip-path="url(#clip0_3137_136718)">
<g opacity="0.5">
<path d="M8.94323 -16.2394C8.6206 -6.89562 5.84999 4.57734 1.54529 13.4918C-2.96671 4.58107 -5.73656 -6.89178 -6.00387 -16.2365C-6.14205 -21.0674 -5.60961 -25.2792 -4.34155 -28.2628C-3.08008 -31.2308 -1.13851 -32.9 1.55606 -32.9C4.24819 -32.9 6.1608 -31.2339 7.38693 -28.2673C8.61999 -25.284 9.11009 -21.0719 8.94323 -16.2394Z" stroke="white"/>
<path d="M8.94323 85.4394C8.6206 76.0956 5.84999 64.6226 1.54529 55.7081C-2.96671 64.6189 -5.73656 76.0917 -6.00387 85.4364C-6.14205 90.2673 -5.60961 94.4792 -4.34155 97.4627C-3.08008 100.431 -1.13851 102.1 1.55606 102.1C4.24819 102.1 6.1608 100.434 7.38693 97.4673C8.61999 94.484 9.11009 90.2719 8.94323 85.4394Z" stroke="white"/>
<path d="M16.448 19.4862C15.9174 6.24923 20.2775 -5.95945 26.7085 -12.9001C29.9587 -16.4078 33.7064 -18.5392 37.5924 -18.833C41.4652 -19.1258 45.5673 -17.6005 49.5569 -13.6109C53.5465 -9.62127 55.0271 -5.56429 54.6842 -1.74885C54.3399 2.08201 52.1485 5.76779 48.5963 8.97891C41.5701 15.3303 29.3586 19.689 16.448 19.4862Z" stroke="white"/>
<path d="M-13.0375 48.5077C-12.5068 61.7447 -16.8669 73.9533 -23.298 80.894C-26.5481 84.4017 -30.2958 86.5331 -34.1818 86.8269C-38.0546 87.1197 -42.1567 85.5944 -46.1463 81.6048C-50.1359 77.6152 -51.6165 73.5582 -51.2736 69.7427C-50.9293 65.9119 -48.738 62.2261 -45.1857 59.015C-38.1595 52.6636 -25.9481 48.3049 -13.0375 48.5077Z" stroke="white"/>
<path d="M-12.639 19.6268C-25.8759 20.1575 -38.0846 15.7974 -45.0253 9.36629C-48.5329 6.11617 -50.6643 2.36845 -50.9581 -1.51758C-51.2509 -5.39037 -49.7256 -9.49247 -45.736 -13.4821C-41.7464 -17.4717 -37.6894 -18.9523 -33.874 -18.6094C-30.0431 -18.265 -26.3573 -16.0737 -23.1462 -12.5214C-16.7948 -5.49526 -12.4361 6.71619 -12.639 19.6268Z" stroke="white"/>
<path d="M16.3826 49.1122C29.6195 48.5816 41.8282 52.9417 48.7689 59.3727C52.2766 62.6228 54.4079 66.3706 54.7018 70.2566C54.9946 74.1294 53.4692 78.2315 49.4796 82.2211C45.49 86.2107 41.4331 87.6913 37.6176 87.3484C33.7868 87.0041 30.101 84.8127 26.8899 81.2605C20.5385 74.2343 16.1797 62.0228 16.3826 49.1122Z" stroke="white"/>
<path d="M53.4749 42.6C64.987 42.6 69.4749 38.5505 69.4749 34.6C69.4749 30.6495 64.987 26.6 53.4749 26.6C64.4749 26.6 68.4749 31.1433 68.4749 34.6C68.4749 38.0567 64.4749 42.6 53.4749 42.6Z" fill="white"/>
<circle cx="1.47485" cy="34.6" r="9.5" stroke="white"/>
</g>
<g opacity="0.45">
<path d="M114.742 -20.0171C119.078 -16.5462 123.56 -11.1911 126.355 -5.96856C120.484 -7.05803 114.072 -9.8231 109.525 -13.0134C107.121 -14.7005 105.28 -16.4778 104.303 -18.1516C103.334 -19.8109 103.253 -21.2799 104.173 -22.5141C105.091 -23.7462 106.509 -24.0756 108.362 -23.6054C110.233 -23.1306 112.447 -21.8537 114.742 -20.0171Z" stroke="white"/>
<path d="M164.508 17.0731C159.942 13.9096 153.53 11.1451 147.726 9.95911C150.448 15.2739 154.93 20.6282 159.287 24.0733C161.591 25.8949 163.82 27.1513 165.703 27.6093C167.57 28.0634 169.001 27.7216 169.921 26.4875C170.839 25.2553 170.75 23.8023 169.77 22.161C168.78 20.5042 166.924 18.7471 164.508 17.0731Z" stroke="white"/>
<path d="M121.898 29.7211C125.061 25.1557 127.826 18.743 129.012 12.9394C123.697 15.6614 118.343 20.1437 114.898 24.5003C113.076 26.804 111.82 29.0334 111.362 30.9167C110.907 32.7836 111.249 34.2147 112.483 35.1344C113.716 36.0528 115.169 35.9632 116.81 34.9829C118.467 33.9934 120.224 32.1369 121.898 29.7211Z" stroke="white"/>
<path d="M138.991 15.1218C145.542 19.6617 149.831 26.1491 150.863 31.7238C151.388 34.561 151.064 37.1183 149.824 39.0736C148.592 41.0177 146.405 42.4444 143.042 42.9353C139.678 43.4262 137.215 42.6783 135.525 41.1659C133.824 39.6431 132.833 37.2793 132.56 34.4012C132.024 28.75 134.283 21.3058 138.991 15.1218Z" stroke="white"/>
<path d="M108.44 16.4191C100.619 17.5605 96.8563 13.1145 96.1599 8.34313C95.4636 3.57171 97.7987 -1.76419 105.62 -2.90563C98.1467 -1.81497 96.3307 3.99796 96.94 8.17293C97.5494 12.3479 100.967 17.5097 108.44 16.4191Z" fill="white"/>
<path d="M168.83 7.60559C176.651 6.46415 178.986 1.12825 178.29 -3.64317C177.593 -8.41458 173.831 -12.8605 166.01 -11.7191C173.483 -12.8098 176.802 -7.71015 177.411 -3.53518C178.021 0.639795 176.303 6.51493 168.83 7.60559Z" fill="white"/>
<circle cx="137.225" cy="2.34989" r="5.60294" transform="rotate(-8.30324 137.225 2.34989)" stroke="white"/>
</g>
<g opacity="0.4">
<path d="M212.538 46.3189C215.44 48.6418 218.44 52.1957 220.37 55.6951C216.423 54.9074 212.161 53.048 209.118 50.9128C207.465 49.7525 206.213 48.5393 205.553 47.4099C204.902 46.2952 204.868 45.3509 205.454 44.5648C206.038 43.7807 206.943 43.5521 208.187 43.8679C209.449 44.1882 210.96 45.0554 212.538 46.3189Z" stroke="white"/>
<path d="M246.944 71.9614C243.889 69.8442 239.626 67.9853 235.721 67.1359C237.604 70.6931 240.604 74.2461 243.52 76.5517C245.104 77.8047 246.625 78.6578 247.895 78.9668C249.149 79.2719 250.064 79.0353 250.65 78.2492C251.235 77.4651 251.195 76.5325 250.537 75.4303C249.869 74.3125 248.606 73.1131 246.944 71.9614Z" stroke="white"/>
<path d="M243.097 46.0824C240.774 48.9845 237.22 51.9842 233.72 53.9142C234.508 49.9673 236.368 45.7052 238.503 42.6624C239.663 41.0088 240.876 39.7567 242.006 39.0974C243.12 38.4466 244.065 38.4119 244.851 38.9978C245.635 39.5822 245.863 40.4872 245.548 41.7316C245.227 42.9935 244.36 44.5038 243.097 46.0824Z" stroke="white"/>
<path d="M226.921 52.6187C222.488 49.5039 219.598 45.0985 218.9 41.3273C218.542 39.3919 218.767 37.6671 219.597 36.358C220.42 35.0601 221.886 34.0933 224.177 33.759C226.467 33.4247 228.12 33.936 229.247 34.9443C230.384 35.9629 231.059 37.5549 231.245 39.5194C231.608 43.3437 230.095 48.3927 226.921 52.6187Z" stroke="white"/>
<path d="M208.279 71.3823C202.874 72.1713 200.273 69.0983 199.792 65.8004C199.31 62.5025 200.924 58.8144 206.33 58.0255C201.165 58.7793 200.139 62.7957 200.56 65.6814C200.981 68.567 203.114 72.1362 208.279 71.3823Z" fill="white"/>
<path d="M250.02 65.2906C255.425 64.5017 257.04 60.8136 256.558 57.5157C256.077 54.2178 253.476 51.1448 248.07 51.9338C253.236 51.1799 255.159 54.857 255.58 57.7427C256.001 60.6284 255.185 64.5368 250.02 65.2906Z" fill="white"/>
<circle cx="228.175" cy="61.658" r="3.71824" transform="rotate(-8.30324 228.175 61.658)" stroke="white"/>
</g>
<g opacity="0.35">
<path d="M290.181 -3.30443C291.951 -1.88779 293.78 0.245538 295.021 2.38188C292.597 1.83754 290.031 0.693766 288.175 -0.608454C287.113 -1.354 286.325 -2.1229 285.916 -2.82339C285.515 -3.50937 285.517 -4.04029 285.84 -4.47352C286.162 -4.90482 286.662 -5.05397 287.428 -4.8598C288.21 -4.66116 289.166 -4.11666 290.181 -3.30443Z" stroke="white"/>
<path d="M312.49 13.322C310.626 12.0309 308.059 10.8876 305.657 10.3087C306.872 12.476 308.701 14.6083 310.479 16.0145C311.497 16.8195 312.459 17.3551 313.248 17.5468C314.019 17.7345 314.528 17.5808 314.85 17.1475C315.172 16.7162 315.172 16.1936 314.767 15.5159C314.353 14.8226 313.558 14.0623 312.49 13.322Z" stroke="white"/>
<path d="M309.959 -3.70503C308.542 -1.93515 306.409 -0.105898 304.272 1.13528C304.817 -1.28869 305.96 -3.85488 307.263 -5.71062C308.008 -6.77307 308.777 -7.56127 309.478 -7.97023C310.164 -8.37071 310.694 -8.36858 311.128 -8.04569C311.559 -7.72425 311.708 -7.22333 311.514 -6.45824C311.315 -5.67553 310.771 -4.71979 309.959 -3.70503Z" stroke="white"/>
<path d="M293.332 18.6039C294.623 16.7405 295.767 14.1734 296.345 11.7714C294.178 12.9858 292.046 14.8153 290.64 16.5935C289.835 17.6116 289.299 18.5737 289.107 19.3619C288.92 20.1337 289.073 20.6419 289.507 20.9648C289.938 21.2862 290.461 21.286 291.138 20.8812C291.832 20.4672 292.592 19.6722 293.332 18.6039Z" stroke="white"/>
<path d="M299.574 0.397844C296.81 -1.59304 295.022 -4.35785 294.587 -6.70899C294.36 -7.93408 294.507 -9.00322 295.014 -9.80344C295.514 -10.5925 296.414 -11.1971 297.859 -11.408C299.304 -11.6189 300.319 -11.294 301.002 -10.6828C301.697 -10.0613 302.122 -9.07706 302.24 -7.8321C302.466 -5.44634 301.54 -2.28427 299.574 0.397844Z" stroke="white"/>
<path d="M301.276 12.6017C304.04 14.5926 305.828 17.3574 306.263 19.7085C306.49 20.9336 306.343 22.0027 305.836 22.803C305.336 23.592 304.436 24.1966 302.991 24.4075C301.546 24.6184 300.531 24.2935 299.848 23.6823C299.153 23.0608 298.728 22.0766 298.61 20.8316C298.384 18.4458 299.31 15.2838 301.276 12.6017Z" stroke="white"/>
<path d="M287.53 12.8021C284.027 13.3135 282.341 11.3218 282.029 9.18438C281.717 7.04695 282.763 4.65665 286.267 4.14532C282.919 4.6339 282.56 7.18825 282.833 9.0585C283.106 10.9287 284.183 13.2907 287.53 12.8021Z" fill="white"/>
<path d="M314.583 8.854C318.087 8.34268 319.133 5.95238 318.821 3.81494C318.509 1.67751 316.823 -0.314125 313.32 0.197202C316.667 -0.291375 317.871 2.09351 318.144 3.96376C318.417 5.834 317.931 8.36543 314.583 8.854Z" fill="white"/>
<circle cx="300.425" cy="6.49965" r="2.23391" transform="rotate(-8.30324 300.425 6.49965)" stroke="white"/>
</g>
<g opacity="0.3">
<path d="M348.157 44.6763C349.927 46.0929 351.756 48.2263 352.997 50.3626C350.573 49.8183 348.007 48.6745 346.151 47.3723C345.089 46.6267 344.301 45.8578 343.892 45.1573C343.491 44.4713 343.493 43.9404 343.816 43.5072C344.138 43.0759 344.639 42.9267 345.404 43.1209C346.186 43.3196 347.142 43.8641 348.157 44.6763Z" stroke="white"/>
<path d="M370.466 61.3027C368.602 60.0116 366.035 58.8683 363.633 58.2894C364.848 60.4567 366.677 62.589 368.455 63.9952C369.473 64.8002 370.436 65.3358 371.224 65.5275C371.996 65.7152 372.504 65.5615 372.827 65.1282C373.148 64.6969 373.148 64.1743 372.743 63.4966C372.329 62.8033 371.534 62.0431 370.466 61.3027Z" stroke="white"/>
<path d="M367.935 44.2757C366.518 46.0456 364.385 47.8748 362.248 49.116C362.793 46.692 363.937 44.1258 365.239 42.2701C365.984 41.2076 366.753 40.4194 367.454 40.0105C368.14 39.61 368.671 39.6121 369.104 39.935C369.535 40.2565 369.684 40.7574 369.49 41.5225C369.292 42.3052 368.747 43.2609 367.935 44.2757Z" stroke="white"/>
<path d="M351.308 66.5846C352.599 64.7212 353.743 62.1541 354.322 59.7521C352.154 60.9665 350.022 62.796 348.616 64.5743C347.811 65.5924 347.275 66.5544 347.083 67.3426C346.896 68.1144 347.049 68.6226 347.483 68.9455C347.914 69.2669 348.437 69.2667 349.114 68.8619C349.808 68.4479 350.568 67.653 351.308 66.5846Z" stroke="white"/>
<path d="M357.55 48.3786C354.786 46.3877 352.998 43.6229 352.563 41.2717C352.336 40.0466 352.483 38.9775 352.99 38.1773C353.49 37.3883 354.39 36.7836 355.835 36.5727C357.28 36.3618 358.296 36.6867 358.978 37.2979C359.673 37.9194 360.098 38.9037 360.216 40.1486C360.442 42.5344 359.516 45.6964 357.55 48.3786Z" stroke="white"/>
<path d="M359.252 60.5824C362.016 62.5733 363.804 65.3381 364.239 67.6892C364.466 68.9143 364.319 69.9834 363.812 70.7837C363.312 71.5727 362.412 72.1773 360.967 72.3882C359.522 72.5992 358.507 72.2743 357.824 71.6631C357.13 71.0415 356.704 70.0573 356.586 68.8123C356.36 66.4266 357.286 63.2645 359.252 60.5824Z" stroke="white"/>
<path d="M345.507 60.7828C342.003 61.2942 340.317 59.3025 340.005 57.1651C339.693 55.0277 340.74 52.6374 344.243 52.126C340.895 52.6146 340.493 55.1924 340.766 57.0627C341.039 58.9329 342.159 61.2714 345.507 60.7828Z" fill="white"/>
<path d="M372.559 56.8347C376.063 56.3234 377.109 53.9331 376.797 51.7957C376.485 49.6582 374.799 47.6666 371.296 48.1779C374.643 47.6893 375.736 50.122 376.009 51.9923C376.281 53.8625 375.907 56.3461 372.559 56.8347Z" fill="white"/>
<circle cx="358.401" cy="54.4804" r="2.23391" transform="rotate(-8.30324 358.401 54.4804)" stroke="white"/>
</g>
<g opacity="0.25">
<path d="M409.997 15.0252C411.289 16.0591 412.624 17.5937 413.569 19.1522C411.791 18.7148 409.94 17.8738 408.586 16.9234C407.772 16.3522 407.179 15.7701 406.875 15.2498C406.58 14.7441 406.597 14.3869 406.81 14.102C407.021 13.819 407.352 13.7032 407.915 13.8463C408.497 13.9938 409.219 14.4027 409.997 15.0252Z" stroke="white"/>
<path d="M427.221 27.8621C425.861 26.9198 424.009 26.0793 422.246 25.6187C423.173 27.1972 424.508 28.7306 425.805 29.7568C426.585 30.3736 427.313 30.7757 427.898 30.9181C428.467 31.0565 428.804 30.9375 429.017 30.6526C429.228 30.3696 429.244 30.0193 428.946 29.52C428.638 29.0052 428.04 28.4295 427.221 27.8621Z" stroke="white"/>
<path d="M425.244 14.5556C424.21 15.8473 422.675 17.182 421.117 18.1275C421.554 16.3499 422.395 14.4989 423.345 13.1446C423.917 12.3306 424.499 11.7374 425.019 11.4336C425.525 11.1384 425.882 11.156 426.167 11.3683C426.45 11.5792 426.566 11.9103 426.423 12.474C426.275 13.0552 425.866 13.7779 425.244 14.5556Z" stroke="white"/>
<path d="M412.407 31.7797C413.349 30.4198 414.19 28.5677 414.65 26.804C413.072 27.7313 411.538 29.0661 410.512 30.3639C409.895 31.1439 409.493 31.8713 409.351 32.4567C409.212 33.0257 409.331 33.363 409.616 33.5753C409.899 33.7862 410.25 33.8026 410.749 33.5044C411.264 33.1969 411.839 32.5986 412.407 31.7797Z" stroke="white"/>
<path d="M417.292 17.634C415.231 16.1169 413.906 14.0423 413.581 12.2878C413.41 11.3613 413.523 10.5677 413.895 9.9814C414.26 9.4063 414.921 8.95387 416.011 8.79482C417.101 8.63576 417.848 8.88233 418.344 9.32662C418.852 9.78124 419.173 10.51 419.262 11.4525C419.431 13.2338 418.751 15.6023 417.292 17.634Z" stroke="white"/>
<path d="M418.657 27.3718C420.718 28.889 422.044 30.9636 422.368 32.718C422.54 33.6446 422.426 34.4381 422.055 35.0245C421.69 35.5996 421.029 36.052 419.939 36.211C418.849 36.3701 418.102 36.1235 417.605 35.6792C417.098 35.2246 416.777 34.4958 416.688 33.5533C416.519 31.772 417.199 29.4036 418.657 27.3718Z" stroke="white"/>
<path d="M408.023 27.3671C405.319 27.7617 404.018 26.2246 403.777 24.5749C403.536 22.9253 404.344 21.0805 407.048 20.6858C404.464 21.0629 404.284 23.1315 404.495 24.5749C404.705 26.0184 405.439 27.7441 408.023 27.3671Z" fill="white"/>
<path d="M428.902 24.3199C431.606 23.9253 432.413 22.0805 432.172 20.4308C431.932 18.7812 430.631 17.2441 427.927 17.6387C430.51 17.2616 431.265 19.1359 431.476 20.5794C431.687 22.0228 431.486 23.9429 428.902 24.3199Z" fill="white"/>
<circle cx="417.975" cy="22.5028" r="1.61001" transform="rotate(-8.30324 417.975 22.5028)" stroke="white"/>
</g>
<g opacity="0.2">
<path d="M467.897 34.0525C469.189 35.0864 470.524 36.6211 471.469 38.1795C469.691 37.7421 467.84 36.9012 466.486 35.9508C465.672 35.3796 465.079 34.7974 464.775 34.2772C464.48 33.7715 464.498 33.4143 464.71 33.1293C464.921 32.8464 465.252 32.7306 465.815 32.8736C466.397 33.0211 467.119 33.43 467.897 34.0525Z" stroke="white"/>
<path d="M485.121 46.8895C483.761 45.9471 481.909 45.1067 480.146 44.6461C481.073 46.2245 482.408 47.7579 483.705 48.7842C484.485 49.401 485.213 49.8031 485.798 49.9454C486.367 50.0838 486.704 49.9649 486.917 49.68C487.128 49.397 487.144 49.0466 486.846 48.5474C486.538 48.0325 485.94 47.4569 485.121 46.8895Z" stroke="white"/>
<path d="M483.144 33.583C482.11 34.8747 480.575 36.2094 479.017 37.1548C479.454 35.3772 480.295 33.5263 481.246 32.1719C481.817 31.3579 482.399 30.7647 482.919 30.461C483.425 30.1657 483.782 30.1833 484.067 30.3957C484.35 30.6066 484.466 30.9377 484.323 31.5013C484.175 32.0826 483.766 32.8052 483.144 33.583Z" stroke="white"/>
<path d="M470.307 50.8071C471.249 49.4471 472.09 47.5951 472.55 45.8314C470.972 46.7586 469.438 48.0935 468.412 49.3913C467.795 50.1713 467.393 50.8987 467.251 51.484C467.112 52.0531 467.231 52.3903 467.516 52.6027C467.799 52.8136 468.15 52.8299 468.649 52.5317C469.164 52.2243 469.739 51.6259 470.307 50.8071Z" stroke="white"/>
<path d="M475.193 36.6614C473.132 35.1442 471.806 33.0696 471.481 31.3152C471.31 30.3886 471.423 29.5951 471.795 29.0087C472.16 28.4336 472.821 27.9812 473.911 27.8222C475.001 27.6631 475.748 27.9097 476.244 28.354C476.752 28.8086 477.073 29.5374 477.162 30.4799C477.331 32.2612 476.651 34.6296 475.193 36.6614Z" stroke="white"/>
<path d="M476.557 46.3992C478.618 47.9163 479.944 49.991 480.268 51.7454C480.44 52.6719 480.326 53.4655 479.955 54.0518C479.59 54.6269 478.929 55.0793 477.839 55.2384C476.749 55.3974 476.002 55.1509 475.505 54.7066C474.998 54.252 474.677 53.5232 474.588 52.5807C474.419 50.7994 475.099 48.4309 476.557 46.3992Z" stroke="white"/>
<path d="M465.923 46.3944C463.219 46.789 461.918 45.2519 461.677 43.6023C461.436 41.9526 462.244 40.1078 464.948 39.7132C462.364 40.0902 462.184 42.1588 462.395 43.6023C462.605 45.0457 463.339 46.7715 465.923 46.3944Z" fill="white"/>
<path d="M486.802 43.3473C489.506 42.9527 490.313 41.1078 490.072 39.4582C489.832 37.8085 488.531 36.2714 485.827 36.666C488.411 36.289 489.165 38.1633 489.376 39.6067C489.587 41.0501 489.386 42.9702 486.802 43.3473Z" fill="white"/>
<circle cx="475.875" cy="41.5301" r="1.61001" transform="rotate(-8.30324 475.875 41.5301)" stroke="white"/>
</g>
<g opacity="0.15">
<path d="M525.866 15.2562C526.995 16.1596 528.161 17.4904 529.004 18.8511C527.448 18.4515 525.841 17.714 524.657 16.8837C523.928 16.3716 523.401 15.8529 523.133 15.3938C522.873 14.9493 522.896 14.6511 523.071 14.4165C523.244 14.1838 523.518 14.0794 524.013 14.2051C524.526 14.3352 525.169 14.6981 525.866 15.2562Z" stroke="white"/>
<path d="M541.365 26.8067C540.176 25.9834 538.568 25.2464 537.023 24.8274C537.851 26.2044 539.017 27.534 540.151 28.4306C540.85 28.9835 541.498 29.3403 542.014 29.466C542.514 29.5876 542.794 29.4805 542.968 29.2459C543.142 29.0133 543.164 28.7214 542.902 28.2827C542.63 27.8284 542.099 27.3154 541.365 26.8067Z" stroke="white"/>
<path d="M539.575 14.7632C538.672 15.8918 537.341 17.0577 535.98 17.9008C536.38 16.3446 537.117 14.7372 537.948 13.5539C538.46 12.8243 538.978 12.2972 539.437 12.0292C539.882 11.7697 540.18 11.7925 540.415 11.9674C540.647 12.1408 540.752 12.4142 540.626 12.9094C540.496 13.4223 540.133 14.0659 539.575 14.7632Z" stroke="white"/>
<path d="M528.024 30.2613C528.848 29.0731 529.585 27.4645 530.004 25.9196C528.627 26.7473 527.297 27.9134 526.401 29.0473C525.848 29.7465 525.491 30.3943 525.365 30.9108C525.244 31.411 525.351 31.6902 525.585 31.865C525.818 32.0384 526.11 32.0604 526.548 31.7984C527.003 31.5271 527.516 30.9954 528.024 30.2613Z" stroke="white"/>
<path d="M532.45 17.4933C530.627 16.1374 529.459 14.2972 529.172 12.7453C529.019 11.9201 529.121 11.2201 529.447 10.7064C529.766 10.2039 530.346 9.80311 531.315 9.66166C532.285 9.52021 532.941 9.74019 533.374 10.1278C533.818 10.5258 534.103 11.1678 534.183 12.0077C534.332 13.5839 533.736 15.6828 532.45 17.4933Z" stroke="white"/>
<path d="M533.7 26.3951C535.522 27.751 536.691 29.5912 536.978 31.1432C537.131 31.9683 537.028 32.6684 536.703 33.1821C536.384 33.6846 535.804 34.0853 534.834 34.2268C533.865 34.3682 533.209 34.1482 532.776 33.7606C532.331 33.3626 532.047 32.7206 531.967 31.8807C531.817 30.3046 532.414 28.2056 533.7 26.3951Z" stroke="white"/>
<path d="M524.122 26.3202C521.689 26.6752 520.519 25.2924 520.302 23.8083C520.086 22.3242 520.812 20.6646 523.245 20.3095C520.92 20.6488 520.812 22.4303 521.002 23.7288C521.191 25.0274 521.797 26.6594 524.122 26.3202Z" fill="white"/>
<path d="M542.905 23.5789C545.338 23.2238 546.064 21.5642 545.848 20.0801C545.631 18.596 544.461 17.2132 542.028 17.5682C544.352 17.229 545.007 18.9269 545.197 20.2254C545.386 21.524 545.23 23.2396 542.905 23.5789Z" fill="white"/>
<circle cx="533.075" cy="21.944" r="1.39823" transform="rotate(-8.30324 533.075 21.944)" stroke="white"/>
</g>
<g opacity="0.15">
<path d="M572.006 36.8238C572.892 37.5326 573.806 38.5605 574.494 39.6254C573.27 39.2844 572.025 38.7015 571.096 38.05C570.491 37.6257 570.063 37.2008 569.847 36.8324C569.641 36.4785 569.671 36.2677 569.791 36.1077C569.908 35.9497 570.097 35.862 570.49 35.962C570.902 36.0664 571.428 36.361 572.006 36.8238Z" stroke="white"/>
<path d="M584.947 46.4683C584.015 45.8223 582.769 45.2398 581.551 44.8851C582.228 45.961 583.143 46.9875 584.032 47.691C584.612 48.1492 585.141 48.4389 585.556 48.5397C585.954 48.6366 586.147 48.5469 586.267 48.387C586.384 48.2289 586.415 48.0237 586.206 47.6748C585.989 47.3102 585.556 46.8901 584.947 46.4683Z" stroke="white"/>
<path d="M583.436 36.2961C582.727 37.1816 581.699 38.096 580.634 38.7838C580.975 37.5593 581.558 36.3143 582.21 35.3859C582.634 34.7812 583.059 34.3522 583.427 34.1371C583.781 33.9305 583.992 33.9611 584.152 34.0804C584.31 34.1982 584.398 34.3862 584.298 34.7801C584.193 35.1917 583.899 35.718 583.436 36.2961Z" stroke="white"/>
<path d="M573.791 49.2368C574.437 48.3045 575.02 47.0582 575.375 45.8411C574.299 46.5178 573.272 47.4322 572.569 48.3219C572.11 48.9013 571.821 49.431 571.72 49.8456C571.623 50.2437 571.713 50.437 571.873 50.5563C572.031 50.6741 572.236 50.7043 572.585 50.4959C572.949 50.2782 573.37 49.8455 573.791 49.2368Z" stroke="white"/>
<path d="M577.535 38.5092C576.066 37.3927 575.13 35.9003 574.898 34.6483C574.773 33.9732 574.859 33.4118 575.117 33.0057C575.367 32.6108 575.828 32.2866 576.618 32.1712C577.409 32.0559 577.93 32.2364 578.269 32.5401C578.62 32.8541 578.852 33.3677 578.917 34.0555C579.038 35.3278 578.565 37.0271 577.535 38.5092Z" stroke="white"/>
<path d="M578.615 46.1742C580.084 47.2906 581.02 48.783 581.252 50.0351C581.377 50.7101 581.291 51.2715 581.033 51.6776C580.783 52.0726 580.322 52.3968 579.532 52.5121C578.741 52.6275 578.22 52.4469 577.881 52.1432C577.53 51.8292 577.298 51.3156 577.232 50.6279C577.112 49.3556 577.585 47.6562 578.615 46.1742Z" stroke="white"/>
<path d="M570.602 45.9943C568.571 46.2906 567.594 45.1363 567.414 43.8976C567.233 42.6588 567.839 41.2735 569.87 40.9772C567.929 41.2603 567.911 42.6803 568.069 43.7643C568.227 44.8482 568.662 46.2774 570.602 45.9943Z" fill="white"/>
<path d="M586.28 43.7061C588.311 43.4097 588.917 42.0244 588.736 40.7857C588.555 39.5469 587.578 38.3926 585.548 38.689C587.488 38.4058 587.9 39.8125 588.059 40.8964C588.217 41.9803 588.22 43.4229 586.28 43.7061Z" fill="white"/>
<circle cx="578.075" cy="42.3416" r="1.08444" transform="rotate(-8.30324 578.075 42.3416)" stroke="white"/>
</g>
<g opacity="0.1">
<path d="M623.371 14.8726C624.049 15.4147 624.747 16.1844 625.298 16.9944C624.36 16.7074 623.424 16.2574 622.714 15.7592C622.215 15.4091 621.869 15.0638 621.699 14.7721C621.537 14.495 621.575 14.3581 621.647 14.2613C621.718 14.1664 621.833 14.0929 622.141 14.1711C622.467 14.2538 622.894 14.4907 623.371 14.8726Z" stroke="white"/>
<path d="M634.147 22.9037C633.434 22.4096 632.497 21.9601 631.564 21.6639C632.107 22.4805 632.805 23.2488 633.486 23.7868C633.964 24.1648 634.393 24.3977 634.722 24.4775C635.033 24.5534 635.154 24.4785 635.226 24.3817C635.297 24.2868 635.334 24.1549 635.171 23.882C634.999 23.5934 634.65 23.2518 634.147 22.9037Z" stroke="white"/>
<path d="M632.872 14.3155C632.33 14.9928 631.56 15.6915 630.75 16.2421C631.037 15.3043 631.487 14.3684 631.985 13.6584C632.335 13.1595 632.681 12.8136 632.972 12.6433C633.249 12.4815 633.386 12.5187 633.483 12.5909C633.578 12.6616 633.652 12.7773 633.573 13.0855C633.491 13.4113 633.254 13.8384 632.872 14.3155Z" stroke="white"/>
<path d="M624.841 25.0915C625.335 24.3785 625.784 23.4412 626.08 22.5077C625.264 23.0507 624.496 23.7494 623.958 24.4297C623.58 24.9078 623.347 25.3376 623.267 25.6658C623.191 25.9776 623.266 26.0981 623.363 26.1703C623.458 26.241 623.589 26.2783 623.862 26.1153C624.151 25.943 624.493 25.5939 624.841 25.0915Z" stroke="white"/>
<path d="M628.006 16.0895C626.838 15.177 626.098 13.9794 625.913 12.9811C625.812 12.4332 625.884 11.9891 626.083 11.6741C626.276 11.3702 626.635 11.1109 627.275 11.0176C627.914 10.9243 628.321 11.0715 628.581 11.3041C628.852 11.5471 629.04 11.9519 629.093 12.5109C629.189 13.5261 628.82 14.8867 628.006 16.0895Z" stroke="white"/>
<path d="M628.944 22.7105C630.112 23.6231 630.852 24.8207 631.037 25.8189C631.138 26.3668 631.066 26.8109 630.867 27.126C630.674 27.4298 630.315 27.6892 629.675 27.7825C629.036 27.8758 628.629 27.7286 628.369 27.4959C628.098 27.253 627.91 26.8482 627.857 26.2892C627.761 25.274 628.13 23.9133 628.944 22.7105Z" stroke="white"/>
<path d="M622.255 22.4403C620.565 22.687 619.751 21.7262 619.601 20.6951C619.451 19.6641 619.955 18.511 621.645 18.2643C620.03 18.5 619.88 19.726 620.012 20.6282C620.144 21.5304 620.64 22.676 622.255 22.4403Z" fill="white"/>
<path d="M635.305 20.5356C636.995 20.289 637.499 19.1359 637.349 18.1048C637.198 17.0738 636.385 16.113 634.695 16.3597C636.31 16.124 636.713 17.303 636.845 18.2052C636.977 19.1074 636.92 20.3 635.305 20.5356Z" fill="white"/>
<circle cx="628.475" cy="19.3999" r="0.818815" transform="rotate(-8.30324 628.475 19.3999)" stroke="white"/>
</g>
<g opacity="0.1">
<path d="M675.55 37.3917C676.228 37.9338 676.926 38.7035 677.477 39.5134C676.539 39.2265 675.603 38.7765 674.893 38.2783C674.394 37.9282 674.048 37.5829 673.878 37.2912C673.716 37.014 673.753 36.8772 673.826 36.7803C673.896 36.6854 674.012 36.612 674.32 36.6902C674.646 36.7728 675.073 37.0097 675.55 37.3917Z" stroke="white"/>
<path d="M686.326 45.4227C685.613 44.9286 684.676 44.4791 683.742 44.183C684.285 44.9996 684.984 45.7679 685.664 46.3058C686.142 46.6839 686.572 46.9167 686.9 46.9965C687.212 47.0724 687.333 46.9976 687.405 46.9007C687.476 46.8059 687.513 46.674 687.35 46.401C687.178 46.1125 686.829 45.7709 686.326 45.4227Z" stroke="white"/>
<path d="M685.051 36.8346C684.509 37.5119 683.739 38.2105 682.929 38.7611C683.216 37.8234 683.666 36.8874 684.164 36.1775C684.514 35.6786 684.859 35.3326 685.151 35.1623C685.428 35.0005 685.565 35.0377 685.662 35.1099C685.757 35.1807 685.83 35.2964 685.752 35.6045C685.67 35.9303 685.433 36.3574 685.051 36.8346Z" stroke="white"/>
<path d="M677.019 47.6106C677.514 46.8975 677.963 45.9602 678.259 45.0267C677.443 45.5697 676.674 46.2684 676.136 46.9487C675.758 47.4268 675.526 47.8566 675.446 48.1848C675.37 48.4966 675.445 48.6172 675.541 48.6893C675.636 48.7601 675.768 48.7974 676.041 48.6344C676.33 48.462 676.671 48.113 677.019 47.6106Z" stroke="white"/>
<path d="M680.185 38.6086C679.017 37.696 678.277 36.4984 678.092 35.5002C677.991 34.9523 678.062 34.5082 678.262 34.1931C678.455 33.8893 678.814 33.6299 679.453 33.5366C680.093 33.4433 680.5 33.5905 680.76 33.8232C681.031 34.0661 681.219 34.4709 681.272 35.0299C681.368 36.0451 680.999 37.4058 680.185 38.6086Z" stroke="white"/>
<path d="M681.122 45.2295C682.291 46.1421 683.031 47.3397 683.216 48.3379C683.317 48.8859 683.245 49.33 683.045 49.645C682.853 49.9489 682.493 50.2082 681.854 50.3015C681.215 50.3948 680.808 50.2476 680.548 50.015C680.276 49.772 680.089 49.3672 680.036 48.8082C679.94 47.793 680.309 46.4323 681.122 45.2295Z" stroke="white"/>
<path d="M674.434 44.9594C672.743 45.206 671.93 44.2453 671.78 43.2142C671.629 42.1831 672.134 41.03 673.824 40.7834C672.209 41.0191 672.059 42.2451 672.191 43.1473C672.323 44.0495 672.819 45.195 674.434 44.9594Z" fill="white"/>
<path d="M687.483 43.0547C689.174 42.808 689.678 41.655 689.528 40.6239C689.377 39.5928 688.564 38.6321 686.874 38.8787C688.489 38.643 688.892 39.8221 689.024 40.7243C689.155 41.6265 689.098 42.819 687.483 43.0547Z" fill="white"/>
<circle cx="680.654" cy="41.919" r="0.818815" transform="rotate(-8.30324 680.654 41.919)" stroke="white"/>
</g>
<g opacity="0.1">
<path d="M729.271 31.8535C729.949 32.3956 730.647 33.1653 731.198 33.9752C730.26 33.6883 729.324 33.2383 728.614 32.7401C728.115 32.39 727.769 32.0447 727.599 31.753C727.437 31.4758 727.475 31.3389 727.547 31.2421C727.617 31.1472 727.733 31.0738 728.041 31.152C728.367 31.2346 728.794 31.4715 729.271 31.8535Z" stroke="white"/>
<path d="M740.047 39.8845C739.334 39.3904 738.397 38.9409 737.464 38.6448C738.006 39.4614 738.705 40.2297 739.386 40.7676C739.864 41.1457 740.293 41.3785 740.622 41.4583C740.933 41.5342 741.054 41.4594 741.126 41.3625C741.197 41.2676 741.234 41.1358 741.071 40.8628C740.899 40.5742 740.55 40.2327 740.047 39.8845Z" stroke="white"/>
<path d="M738.772 31.2964C738.23 31.9737 737.46 32.6723 736.65 33.2229C736.937 32.2852 737.387 31.3492 737.885 30.6393C738.235 30.1404 738.581 29.7944 738.872 29.6241C739.149 29.4623 739.286 29.4995 739.383 29.5717C739.478 29.6424 739.552 29.7582 739.473 30.0663C739.391 30.3921 739.154 30.8192 738.772 31.2964Z" stroke="white"/>
<path d="M730.741 42.0724C731.235 41.3593 731.684 40.422 731.98 39.4885C731.164 40.0315 730.396 40.7302 729.858 41.4105C729.479 41.8886 729.247 42.3184 729.167 42.6466C729.091 42.9584 729.166 43.079 729.263 43.1511C729.358 43.2219 729.489 43.2592 729.762 43.0962C730.051 42.9238 730.392 42.5748 730.741 42.0724Z" stroke="white"/>
<path d="M733.906 33.0704C732.738 32.1578 731.998 30.9602 731.813 29.962C731.712 29.4141 731.784 28.97 731.983 28.6549C732.176 28.3511 732.535 28.0917 733.175 27.9984C733.814 27.9051 734.221 28.0523 734.481 28.285C734.752 28.5279 734.94 28.9327 734.993 29.4917C735.089 30.5069 734.72 31.8676 733.906 33.0704Z" stroke="white"/>
<path d="M734.844 39.6913C736.012 40.6039 736.752 41.8015 736.937 42.7997C737.038 43.3477 736.966 43.7918 736.766 44.1068C736.574 44.4106 736.215 44.67 735.575 44.7633C734.936 44.8566 734.529 44.7094 734.269 44.4768C733.998 44.2338 733.81 43.829 733.757 43.27C733.661 42.2548 734.03 40.8941 734.844 39.6913Z" stroke="white"/>
<path d="M728.155 39.4211C726.465 39.6678 725.651 38.7071 725.501 37.676C725.35 36.6449 725.855 35.4918 727.545 35.2452C725.93 35.4809 725.78 36.7069 725.912 37.6091C726.044 38.5112 726.54 39.6568 728.155 39.4211Z" fill="white"/>
<path d="M741.205 37.5165C742.895 37.2698 743.399 36.1168 743.249 35.0857C743.098 34.0546 742.285 33.0938 740.595 33.3405C742.21 33.1048 742.613 34.2839 742.745 35.1861C742.877 36.0883 742.82 37.2808 741.205 37.5165Z" fill="white"/>
<circle cx="734.375" cy="36.3808" r="0.818815" transform="rotate(-8.30324 734.375 36.3808)" stroke="white"/>
</g>
<g opacity="0.1">
<path d="M780.371 14.8726C781.049 15.4147 781.747 16.1844 782.298 16.9944C781.36 16.7074 780.424 16.2574 779.714 15.7592C779.215 15.4091 778.869 15.0638 778.699 14.7721C778.537 14.495 778.575 14.3581 778.647 14.2613C778.718 14.1664 778.833 14.0929 779.141 14.1711C779.467 14.2538 779.894 14.4907 780.371 14.8726Z" stroke="white"/>
<path d="M791.147 22.9037C790.434 22.4096 789.497 21.9601 788.564 21.6639C789.107 22.4805 789.805 23.2488 790.486 23.7868C790.964 24.1648 791.393 24.3977 791.722 24.4775C792.033 24.5534 792.154 24.4785 792.226 24.3817C792.297 24.2868 792.334 24.1549 792.171 23.882C791.999 23.5934 791.65 23.2518 791.147 22.9037Z" stroke="white"/>
<path d="M789.872 14.3155C789.33 14.9928 788.56 15.6915 787.75 16.2421C788.037 15.3043 788.487 14.3684 788.985 13.6584C789.335 13.1595 789.681 12.8136 789.972 12.6433C790.249 12.4815 790.386 12.5187 790.483 12.5909C790.578 12.6616 790.652 12.7773 790.573 13.0855C790.491 13.4113 790.254 13.8384 789.872 14.3155Z" stroke="white"/>
<path d="M781.841 25.0915C782.335 24.3785 782.784 23.4412 783.08 22.5077C782.264 23.0507 781.496 23.7494 780.958 24.4297C780.58 24.9078 780.347 25.3376 780.267 25.6658C780.191 25.9776 780.266 26.0981 780.363 26.1703C780.458 26.241 780.589 26.2783 780.862 26.1153C781.151 25.943 781.493 25.5939 781.841 25.0915Z" stroke="white"/>
<path d="M785.006 16.0895C783.838 15.177 783.098 13.9794 782.913 12.9811C782.812 12.4332 782.884 11.9891 783.083 11.6741C783.276 11.3702 783.635 11.1109 784.275 11.0176C784.914 10.9243 785.321 11.0715 785.581 11.3041C785.852 11.5471 786.04 11.9519 786.093 12.5109C786.189 13.5261 785.82 14.8867 785.006 16.0895Z" stroke="white"/>
<path d="M785.944 22.7105C787.112 23.6231 787.852 24.8207 788.037 25.8189C788.138 26.3668 788.066 26.8109 787.867 27.126C787.674 27.4298 787.315 27.6892 786.675 27.7825C786.036 27.8758 785.629 27.7286 785.369 27.4959C785.098 27.253 784.91 26.8482 784.857 26.2892C784.761 25.274 785.13 23.9133 785.944 22.7105Z" stroke="white"/>
<path d="M779.255 22.4403C777.565 22.687 776.751 21.7262 776.601 20.6951C776.451 19.6641 776.955 18.511 778.645 18.2643C777.03 18.5 776.88 19.726 777.012 20.6282C777.144 21.5304 777.64 22.676 779.255 22.4403Z" fill="white"/>
<path d="M792.305 20.5356C793.995 20.289 794.499 19.1359 794.349 18.1048C794.198 17.0738 793.385 16.113 791.695 16.3597C793.31 16.124 793.713 17.303 793.845 18.2052C793.977 19.1074 793.92 20.3 792.305 20.5356Z" fill="white"/>
<circle cx="785.475" cy="19.3999" r="0.818815" transform="rotate(-8.30324 785.475 19.3999)" stroke="white"/>
</g>
<g opacity="0.1">
<path d="M832.65 37.6415C833.328 38.1837 834.026 38.9534 834.577 39.7633C833.639 39.4764 832.703 39.0264 831.993 38.5282C831.494 38.1781 831.148 37.8327 830.978 37.5411C830.816 37.2639 830.853 37.127 830.926 37.0302C830.996 36.9353 831.112 36.8618 831.42 36.94C831.746 37.0227 832.173 37.2596 832.65 37.6415Z" stroke="white"/>
<path d="M843.426 45.6726C842.713 45.1785 841.776 44.729 840.842 44.4329C841.385 45.2495 842.084 46.0177 842.764 46.5557C843.242 46.9338 843.672 47.1666 844 47.2464C844.312 47.3223 844.433 47.2475 844.505 47.1506C844.576 47.0557 844.613 46.9239 844.45 46.6509C844.278 46.3623 843.929 46.0208 843.426 45.6726Z" stroke="white"/>
<path d="M842.151 37.0845C841.609 37.7618 840.839 38.4604 840.029 39.011C840.316 38.0733 840.766 37.1373 841.264 36.4274C841.614 35.9285 841.959 35.5825 842.251 35.4122C842.528 35.2504 842.665 35.2876 842.762 35.3598C842.857 35.4305 842.93 35.5462 842.852 35.8544C842.769 36.1802 842.533 36.6073 842.151 37.0845Z" stroke="white"/>
<path d="M834.119 47.8605C834.614 47.1474 835.063 46.2101 835.359 45.2766C834.543 45.8196 833.774 46.5183 833.236 47.1986C832.858 47.6767 832.625 48.1065 832.546 48.4347C832.47 48.7465 832.545 48.867 832.641 48.9392C832.736 49.0099 832.868 49.0473 833.141 48.8842C833.43 48.7119 833.771 48.3629 834.119 47.8605Z" stroke="white"/>
<path d="M837.285 38.8585C836.116 37.9459 835.377 36.7483 835.192 35.7501C835.091 35.2021 835.162 34.7581 835.362 34.443C835.555 34.1392 835.914 33.8798 836.553 33.7865C837.193 33.6932 837.6 33.8404 837.86 34.0731C838.131 34.316 838.319 34.7208 838.372 35.2798C838.468 36.295 838.099 37.6557 837.285 38.8585Z" stroke="white"/>
<path d="M838.222 45.4794C839.391 46.392 840.131 47.5896 840.316 48.5878C840.417 49.1358 840.345 49.5798 840.145 49.8949C839.953 50.1987 839.593 50.4581 838.954 50.5514C838.315 50.6447 837.908 50.4975 837.648 50.2648C837.376 50.0219 837.189 49.6171 837.136 49.0581C837.04 48.0429 837.409 46.6822 838.222 45.4794Z" stroke="white"/>
<path d="M831.534 45.2092C829.843 45.4559 829.03 44.4951 828.88 43.4641C828.729 42.433 829.234 41.2799 830.924 41.0333C829.309 41.2689 829.159 42.4949 829.291 43.3971C829.423 44.2993 829.919 45.4449 831.534 45.2092Z" fill="white"/>
<path d="M844.583 43.3046C846.274 43.0579 846.778 41.9048 846.628 40.8738C846.477 39.8427 845.664 38.8819 843.974 39.1286C845.589 38.8929 845.992 40.072 846.124 40.9742C846.255 41.8763 846.198 43.0689 844.583 43.3046Z" fill="white"/>
<circle cx="837.754" cy="42.1689" r="0.818815" transform="rotate(-8.30324 837.754 42.1689)" stroke="white"/>
</g>
</g>
<defs>
<clipPath id="clip0_3137_136718">
<rect width="1280" height="64" fill="white" transform="translate(0.574829)"/>
</clipPath>
</defs>
</svg>
