<svg width="25" height="24" viewBox="0 0 25 24" fill="none" xmlns="http://www.w3.org/2000/svg">
<path d="M13.3625 0.304504C8.55275 0.304504 3.8 3.51075 3.8 8.70001C3.8 12 5.65625 13.875 6.78125 13.875C7.2455 13.875 7.5125 12.5813 7.5125 12.216C7.5125 11.7803 6.40175 10.8518 6.40175 9.03751C6.40175 5.26875 9.2705 2.5965 12.983 2.5965C16.175 2.5965 18.5375 4.41075 18.5375 7.74375C18.5375 10.233 17.5393 14.9018 14.3045 14.9018C13.1375 14.9018 12.1385 14.058 12.1385 12.849C12.1385 11.0768 13.376 9.3615 13.376 7.533C13.376 4.43025 8.97425 4.99275 8.97425 8.74275C8.97425 9.53025 9.0725 10.4018 9.42425 11.1195C8.777 13.9043 7.4555 18.0525 7.4555 20.9213C7.4555 21.807 7.58225 22.6793 7.66625 23.565C7.82525 23.7435 7.74575 23.7248 7.9895 23.6355C10.352 20.4008 10.268 19.7685 11.3368 15.5355C11.9135 16.6328 13.4038 17.223 14.585 17.223C19.5628 17.223 21.7993 12.3713 21.7993 7.998C21.7993 3.3435 17.777 0.306004 13.3618 0.306004L13.3625 0.304504Z" fill="#394531"/>
</svg>
