<svg width="320" height="48" viewBox="0 0 320 48" fill="none" xmlns="http://www.w3.org/2000/svg">
<path opacity="0.8" fill-rule="evenodd" clip-rule="evenodd" d="M13.3613 45.5897C13.3056 46.3867 13.2789 47.1885 13.2789 48H0.833374C0.833374 47.1643 0.855196 46.3358 0.896414 45.5122C2.19116 20.1593 23.1592 0 48.8334 0C74.6846 0 95.7617 20.433 96.7922 46.0306C96.8188 46.6846 96.8334 47.3387 96.8334 48H84.3903C84.3903 47.2636 84.366 46.532 84.32 45.8053C83.1852 27.2182 67.6993 12.4439 48.8334 12.4439C30.0378 12.4439 14.6027 27.1043 13.3613 45.5897ZM29.4098 45.735C29.3223 46.4869 29.2786 47.2431 29.2789 48H16.8334C16.8334 47.2902 16.8576 46.5877 16.9037 45.8925C17.9899 29.2021 31.8684 16 48.8334 16C65.825 16 79.7229 29.2409 80.7703 45.9652C80.8116 46.6386 80.8309 47.3169 80.8309 48H68.3903C68.3903 47.2854 68.3515 46.5829 68.2739 45.8852C67.2192 36.0939 58.9028 28.4439 48.8334 28.4439C38.8173 28.4439 30.5348 36.0163 29.4098 45.735ZM48.8334 32C50.9357 32.0003 53.0173 32.4145 54.9593 33.2189C56.9013 34.0232 58.6656 35.202 60.1515 36.6879C61.6374 38.1737 62.8156 39.9376 63.619 41.8785C64.4223 43.8195 64.835 45.8996 64.8334 48H32.8334C32.8321 45.8997 33.245 43.8197 34.0484 41.8789C34.8519 39.9381 36.0301 38.1744 37.5159 36.6886C39.0017 35.2028 40.766 34.024 42.7078 33.2195C44.6497 32.415 46.7312 32.0006 48.8334 32Z" fill="#F1543D"/>
<path fill-rule="evenodd" clip-rule="evenodd" d="M144.403 43.266V13.2966H157.809V4.73396H120.833V13.2966H134.057V43.266H144.403ZM200.205 24C200.205 35.8654 191.389 44 180.186 44C168.983 44 160.168 35.8654 160.168 24C160.168 12.1346 168.983 4 180.186 4C191.389 4 200.205 12.1346 200.205 24ZM189.492 24C189.492 17.4556 185.88 13.1743 180.187 13.1743C174.493 13.1743 170.882 17.4556 170.882 24C170.882 30.5443 174.493 34.8257 180.187 34.8257C185.88 34.8257 189.492 30.5443 189.492 24ZM216.216 35.0703H220.317C227.051 35.0703 231.031 31.0336 231.031 23.9389C231.031 16.9663 227.051 12.9297 220.317 12.9297H216.216V35.0703ZM205.809 43.266V4.73396H221.052C233.847 4.73396 241.744 11.9511 241.744 24C241.744 36.049 233.847 43.266 221.052 43.266H205.809ZM257.938 4.73396H269.569L284.935 43.266H273.854L270.978 35.8043H255.917L253.04 43.266H242.572L257.938 4.73396ZM263.325 16.6605L258.917 28.0367H267.977L263.57 16.6605H263.325ZM299.699 18.6177L307.964 4.73396H319.167L304.352 28.6483V43.266H294.251V28.6483L279.435 4.73396H291.006L299.699 18.6177Z" fill="#8D9690"/>
</svg>
