<svg width="25" height="25" viewBox="0 0 25 25" fill="none" xmlns="http://www.w3.org/2000/svg">
<path d="M22.6 6.7467C21.8645 7.0726 21.0744 7.29281 20.2438 7.39234C21.1008 6.87952 21.742 6.0724 22.0477 5.12158C21.2425 5.59985 20.3612 5.93651 19.4422 6.11691C18.8242 5.45705 18.0057 5.01969 17.1136 4.87272C16.2216 4.72575 15.306 4.8774 14.5089 5.30413C13.7119 5.73085 13.0781 6.40878 12.7058 7.23265C12.3336 8.05652 12.2437 8.98025 12.4502 9.86041C10.8187 9.77849 9.22257 9.35442 7.76551 8.61572C6.30845 7.87702 5.02299 6.84021 3.99257 5.57256C3.64024 6.18033 3.43765 6.88499 3.43765 7.63545C3.43725 8.31104 3.60362 8.97628 3.92199 9.57215C4.24036 10.168 4.70089 10.6761 5.26272 11.0513C4.61115 11.0306 3.97396 10.8545 3.40418 10.5378V10.5906C3.40411 11.5382 3.73187 12.4565 4.33185 13.1899C4.93182 13.9233 5.76705 14.4265 6.69582 14.6142C6.09138 14.7778 5.45767 14.8019 4.84256 14.6847C5.10461 15.5 5.61504 16.2129 6.30241 16.7237C6.98978 17.2345 7.81968 17.5176 8.67591 17.5333C7.2224 18.6743 5.42733 19.2932 3.57946 19.2905C3.25213 19.2906 2.92507 19.2715 2.59998 19.2333C4.47568 20.4393 6.65912 21.0793 8.88907 21.0768C16.4377 21.0768 20.5644 14.8247 20.5644 9.40238C20.5644 9.22622 20.56 9.04829 20.5521 8.87213C21.3548 8.29164 22.0476 7.57282 22.5982 6.74934L22.6 6.7467Z" fill="white"/>
</svg>
