<svg width="25" height="25" viewBox="0 0 25 25" fill="none" xmlns="http://www.w3.org/2000/svg">
<path fill-rule="evenodd" clip-rule="evenodd" d="M22.0303 4.03033C22.3232 3.73744 22.3232 3.26256 22.0303 2.96967C21.7374 2.67678 21.2626 2.67678 20.9697 2.96967L2.96967 20.9697C2.67678 21.2626 2.67678 21.7374 2.96967 22.0303C3.26256 22.3232 3.73744 22.3232 4.03033 22.0303L8.62992 17.4307C8.74845 17.746 8.93349 18.0356 9.17622 18.2784C9.62375 18.7259 10.2307 18.9773 10.8636 18.9773H19.8636C20.4965 18.9773 21.1035 18.7259 21.551 18.2784C21.9986 17.8308 22.25 17.2239 22.25 16.591V8.40913C22.25 7.77623 21.9986 7.16925 21.551 6.72172C21.1434 6.31403 20.6033 6.06909 20.032 6.02871L22.0303 4.03033Z" fill="#373D3C"/>
<path d="M15.9166 6.02277L3.68909 18.2502C3.43005 18.1957 3.25 18.0533 3.25 17.75V8.40913C3.25 8.12739 3.4079 7.86941 3.6588 7.74124C3.90971 7.61306 4.21128 7.63632 4.43956 7.80144L8.33074 10.9777L8.47727 10.8312V8.40913C8.47727 7.77623 8.72869 7.16925 9.17622 6.72172C9.62375 6.27419 10.2307 6.02277 10.8636 6.02277H15.9166Z" fill="#373D3C"/>
</svg>
